<?xml version="1.0" encoding="utf-8" ?>
<svg baseProfile="full" height="300mm" version="1.1" viewBox="0,0,200,300" width="200mm" xmlns="http://www.w3.org/2000/svg" xmlns:ev="http://www.w3.org/2001/xml-events" xmlns:xlink="http://www.w3.org/1999/xlink"><defs /><rect fill="#222222" height="300" width="200" x="0" y="0" /><text fill="#FFFFFF" style="font-size:12px; font-family:Arial; font-weight:bold;" x="10" y="20">Over 10 km Workouts</text><text fill="#FFFFFF" style="font-size:4px; font-family:Arial" x="10" y="280">ATHLETE</text><text fill="#FFFFFF" style="font-size:9px; font-family:Arial" x="10" y="290">yeanment</text><text fill="#FFFFFF" style="font-size:4px; font-family:Arial" x="120" y="280">STATISTICS</text><text fill="#FFFFFF" style="font-size:3px; font-family:Arial" x="120" y="285">Number: 24</text><text fill="#FFFFFF" style="font-size:3px; font-family:Arial" x="120" y="290">Weekly: 1.4</text><text fill="#FFFFFF" style="font-size:3px; font-family:Arial" x="141" y="285">Total: 474.7 km</text><text fill="#FFFFFF" style="font-size:3px; font-family:Arial" x="141" y="290">Avg: 19.8 km</text><text fill="#FFFFFF" style="font-size:3px; font-family:Arial" x="167" y="285">Min: 10.6 km</text><text fill="#FFFFFF" style="font-size:3px; font-family:Arial" x="167" y="290">Max: 72.0 km</text><polyline fill="none" points="40.63407730248582,56.590121093244306 40.80694953796046,56.66769777580521 40.877559324289905,56.755974473089736 40.9579083914723,56.73992418169837 41.12104134609399,56.80412530137255 41.1526940089243,56.84692597983849 41.471655457498855,56.9726526582981 41.56417862577655,57.068953626534494 41.63965805254702,57.06092855636234 41.873400793469045,57.16525431945229 41.919662377622444,57.2615547370624 42.0316641076497,57.29097980974984 43.43168573305593,55.204410937099965 43.97708546189824,54.276113746320334 45.13119024527259,51.75861415359577 45.459890974714654,50.96934862834496 45.52319630038983,50.69377020403408 45.51345701952232,50.145282158649934 45.306497300975025,49.43089651887385 45.27240981791692,49.44427466646448 45.14336434636789,49.04292792485103 45.08736348134698,48.68438745351705 45.116581323964056,48.216138547062656 45.31867140207032,47.32778556705853 45.306497300975025,46.59996082157886 45.157973267676425,46.49025057856488 44.709966347538284,45.47340690558303 44.595529797297786,44.97300149393595 44.55657267381321,44.1916048883013 44.4664843257342,43.894562373790905 43.8042132264236,42.76256548983838 43.75551682205696,42.53241488843014 43.701950777263846,41.57432917150436 43.23690011560393,39.70357469759438 43.0956805429596,39.39043394483997 42.78158873482607,38.881908555653354 41.72244193995721,37.76580216253751 41.41078495205147,37.500821816434836 40.89460306581168,37.2197797711724 37.61490023205988,35.70478881140116 37.20585043542087,35.57095240232957 36.90636754859588,35.52812463877308 36.41696868474537,35.52812463877308 36.066354573355056,35.589689531707336 35.6232172936725,35.5495385273789 35.477128080587136,35.619133571046405 34.841640003665816,36.20265557046878 34.768595397123136,36.20800893636988 34.37415452179266,35.75296978809456 34.3765893420059,35.715495701082546 35.08999166591093,35.16676320896477 35.472258440146106,35.57898260191723 35.516085204071715,35.59504299532455 35.51852002428495,35.56559893487429 34.841640003665816,34.765245948123265 33.91884314100025,33.89527541071766 32.68438929042895,32.32391764478962 32.277774314017734,32.096372518512 31.54002378793666,32.0 31.238106080898433,32.08566447456542 30.99218923886656,32.334625612729724 30.704880453122314,32.43635113776327 30.16435036472103,32.864665756154864 29.879476399204577,32.5514612284951 29.83321481506573,32.54610727953332 29.57755869216635,32.72814106493388 29.45581768125703,32.762941529155796 28.240842392435297,32.95835885040469 28.067970156946103,32.97442049744677 28.070404977173894,32.8539579572971 28.014404112152988,32.80577282019658 26.504815576947294,33.04402087916242 26.44637989171315,32.995836014884844 25.752456129557686,33.086851811562155 26.40255312777299,33.001189892107504 26.40255312777299,33.05740555140437 26.195593409240246,33.0922056742711 25.43836432142416,33.100236466731076 23.996950752320117,33.35989772097673 23.71938124745793,33.51248123246842 23.492942967175622,33.729309240019575 23.032761945956736,33.96219702162307 23.20563418144593,34.160284208101075 23.120415473807952,34.109424096066505 23.037631586397765,34.11477779570123 22.90371647439315,34.299479910238006 23.181285979255335,34.591253643993696 23.293287709282595,34.816105066733144 23.229982383621973,34.68761872383402 23.159372597307083,34.676911506401666 22.38023012751364,35.279187181624366 22.98406554160465,36.119678289851436 21.98335443196993,36.89323272700494 21.08003613105393,37.92371874848686 20.70263899724523,38.424229124215344 20.34472042520065,39.178995375730665 19.986801853141515,39.49749094076469 20.016019695758587,39.486785256523945 19.99897595422226,39.5563721431281 19.899148325290298,39.700898293272985 19.677579685434466,40.19870583001466 19.397575360373594,41.25852957072311 19.249051327060442,41.56897666061741 19.200354922693805,41.76434275569409 19.197920102466014,42.0266132621764 18.81078368780436,43.6269542576556 18.27999288025603,45.430591760596144 18.301906262218836,45.4653790700504 18.51860526163364,45.47340690558303 18.462604396627285,45.47073096061831 18.460169576399494,45.40115631680419 18.43338655399566,45.44129555195832 18.457734756186255,45.47340690558303 18.525909722287906,45.4653790700504 18.4358213742089,45.46805501544259 18.382255329415784,45.3851006093264 18.21912237480865,45.435943656701056 18.073033161723288,45.53762952084435 18.11199028522242,45.59114827320445 18.36034194745298,45.45199933990625 18.37008122833504,45.31284983081969 18.348167846372235,45.39848036608964 18.447995475304197,45.4653790700504 18.54538828403747,45.43326770876047 18.723130159953143,45.4627031244454 18.8473059910757,45.42523986364358 18.854610451729968,45.39045251266907 18.8473059910757,45.42791581222991 18.92278541783162,45.45735123260056 19.419488742321846,45.4627031244454 19.456011045593186,45.518897937396105 19.314791472948855,45.80789834928328 19.129745136364363,46.056757824982924 18.33112410485046,46.78994600572878 18.090076903245063,47.14583085715822 17.84659488144098,47.8388589727183 17.595808398982626,48.34992461393631 17.4302406241477,48.903793270241295 17.233020186482463,49.182062004094405 17.09423543405137,49.543272793316646 16.72414276091149,50.220198126133255 16.45874735713005,50.94526905017665 15.913347628287738,52.743163509665465 15.847607482399326,53.21134943233301 15.923086909155245,53.42269980148194 15.920652088942006,53.57251698105756 15.90360834740568,53.612646469528045 15.791606617392972,53.63672413965469 15.75508431410708,53.71163233657535 15.871955684575369,53.81596847599394 15.920652088942006,53.92297956515722 16.04969756049104,56.06848013929084 14.988115945408936,56.29853817123694 14.817678530147532,56.58209590898696 14.579066148784477,57.1385041545891 14.56202240724815,57.430079805420974 14.476803699624725,57.68687828838847 14.739764283178374,57.91157535515595 14.557152766807121,58.46528672977547 14.537674205072108,58.770225340014804 14.817678530147532,59.31054838045202 14.915071338866255,59.68234979664521 15.034377529562335,59.86958636672716 15.745345033239573,60.57572635647011 15.920652088942006,60.73086118999527 16.139785908570047,60.85657337612065 16.28587512165541,61.00100807492527 16.631619592619245,61.629559278529996 16.816665929189185,62.2260034119372 16.60970621065644,61.57339135002985 16.31265814404469,61.06520107570941 16.39300721124164,61.01438162683917 16.53179196367273,61.33801996504917 16.68031599697133,61.576066015410106 16.9164935581357,61.81678503088369 16.921363198562176,61.955866345146205 17.125888096896233,62.28751947105229 17.228150546055986,62.30624172763055 17.444849545456236,62.207281110786425 17.839290420801262,63.21827049328567 17.895291285807616,63.24501583250276 18.055989420201513,63.17012882922427 18.569736486213515,63.812012031277845 18.467474037053762,63.99387671685872 18.535649003169965,64.09283208957459 19.326965574044152,64.49399954437285 19.434097663630382,64.45923188718734 19.40731464122655,64.52341830322257 19.463315506247454,64.62504654540317 20.288719560179743,65.17329888470886 20.89498979448399,65.28027391164687 21.16038519826543,65.23480956666026 21.696045646225684,65.31236635355708 22.521449700157973,65.69479893599419 23.071719069441315,65.8632818444421 23.266504686893313,66.00502078222598 23.738859809192945,66.1735021409695 24.788267323194304,66.32861121924725 25.460277703386964,66.57197057696067 26.122548802712117,66.63615297211072 26.502380756719504,66.84474491290348 27.1086509910092,67.33145442520981 27.510396327008493,67.54004206652644 27.814748854274512,67.61759355298636 28.7545894584473,67.63898703511768 29.241553502055467,67.79943771867693 29.54103638889501,67.94919100149673 30.010956690981402,68.0 30.2739172745205,67.93582019970563 30.476007352626766,67.84222443874023 30.670792970078764,67.68444813960741 30.777925059679546,67.54271625868569 30.87775268861151,67.33145442520981 31.191844496759586,66.35000551889243 31.337933709830395,66.06920425622593 31.62524249557464,65.74561133035968 32.00263962936879,65.49422294752912 32.85482670570491,65.31236635355708 33.3247470077913,65.0315564513221 34.52267855509126,63.812012031277845 34.7418123747193,63.662240377172566 35.026686340235756,63.5632837407029 35.59156463081308,63.20222327956981 36.52410077434615,62.37310684481781 37.373853030469036,61.84085683788544 37.91438311888487,61.367441478058026 38.96379063287168,60.326974184554274 40.388160460439394,59.31054838045202 40.918951268002274,58.81302352059174 41.30365286245069,58.34491546597019 43.0615930599015,55.71803988445936 42.9130690266029,55.68861343756544 41.27686984004686,54.88873925964617 41.19165113242343,54.99039656356035 40.89703788602492,55.62708532915349 40.841037021018565,55.67791290504647 39.7478027430916,55.177659214790765 39.721019720702316,55.28199081162347 40.30294175283052,55.565557108327994 40.424682763725286,55.58963338203648 40.799645077306195,55.798293699856 40.75094867293956,55.98555185871737 40.50746665113547,56.456367772680096" stroke="red" stroke-linecap="round" stroke-linejoin="round" stroke-width="0.5"><title>2023-09-24 54.0km</title><desc>1695550318000</desc></polyline><polyline fill="none" points="69.42609020881355,61.025065854075365 75.80469327792525,66.65001521632075 83.90724312141538,63.950042091542855 83.90724312141538,40.325074944878 78.73540279548615,33.575017636991106 70.63285295199603,34.475026991334744 68.04693278856575,38.07505913567729 68.3917221436277,60.35007054696325 74.08074650261551,66.65001521632075 84.94161118753254,62.82505188975483 84.07963779848069,41.67508284980431 77.70103473123163,33.12501276296098 73.56356246955693,32.9000102764694 67.7021434335038,39.20006745273713 69.08130085468292,61.9250591348391 73.39116779249161,66.20002002490219 81.83850699197501,65.75002470146865 84.76921650953591,61.025065854075365 83.39005908928812,39.20006745273713 76.49427198804915,32.675007756683044 69.42609020881355,35.15003366058227 68.90890617668629,60.80006745166611 73.2187731154263,66.42501763673499 81.66611231397837,66.20002002490219 84.59682183153927,63.05004999565426 84.07963779848069,43.47509154479485 77.87342940829694,33.35001521627419 73.90835182461888,32.675007756683044 68.21932746656239,38.97506585542578 68.21932746656239,59.67507494403981 72.87398375943303,66.42501763673499 77.35624537523836,68.0 84.25203247647732,63.05004999565426 84.07963779848069,39.87507204664871 75.4599039228633,32.22500261873938 68.3917221436277,37.400053751072846 68.3917221436277,58.77508034533821 76.66666666511446,66.8750127630774 84.07963779848069,64.1750400327146 85.63118989672512,59.67507494403981 83.56245376728475,38.52506256115157 77.87342940829694,32.9000102764694 68.3917221436277,38.07505913567729 69.25369553174824,59.900073511875235 70.63285295199603,63.950042091542855 78.04582408536226,66.8750127630774 82.01090166904032,66.20002002490219 85.80358457472175,58.55008161359001 84.76921650953591,40.775077711907215 83.39005908928812,36.72504807007499 76.1494826329872,32.675007756683044 68.04693278856575,38.07505913567729 68.73651149962097,59.67507494403981 77.528640053235,67.77500261855312 85.4587952196598,61.250064223539084 83.21766441129148,37.400053751072846 74.77032521180809,32.675007756683044 67.35735407937318,41.67508284980431 69.08130085468292,62.60005375056062 76.49427198804915,67.32500775693916 80.80413892585784,66.42501763673499 84.94161118753254,58.77508034533821 83.04526973422617,36.72504807007499 76.49427198804915,32.45000520371832 67.7021434335038,40.1000735120615 70.11566891986877,61.70006086421199 76.49427198804915,66.42501763673499 80.97653360385448,65.97502237989102 85.11400586459786,54.27509944792837 83.04526973422617,36.5000461100135 76.32187731005251,32.45000520371832 72.18440504930913,33.35001521627419 68.04693278856575,40.775077711907215 69.08130085468292,61.025065854075365 78.90779747348279,65.52502699068282 82.70048037916422,63.72504411684349 85.4587952196598,56.52509154356085 83.73484844435006,36.5000461100135 74.08074650261551,32.0 67.87453811056912,38.07505913567729 70.11566891986877,62.60005375056062 77.35624537523836,66.65001521632075 85.11400586459786,60.35007054696325 84.07963779848069,38.97506585542578 78.04582408536226,32.675007756683044 68.21932746656239,37.62505557946861 68.73651149962097,59.67507494403981 74.94271989073604,66.65001521632075 82.52808570116758,64.40003794187214 84.76921650953591,60.35007054696325 83.56245376728475,39.20006745273713 78.04582408536226,32.675007756683044 68.21932746656239,36.275044117704965 69.25369553174824,60.35007054696325 75.63229860085994,66.65001521632075 83.73484844435006,63.950042091542855 85.63118989672512,59.67507494403981 83.73484844435006,38.52506256115157 77.87342940829694,32.45000520371832 69.77087956480682,34.475026991334744 67.7021434335038,38.300060865236446 68.90890617668629,59.225077710463665 74.42553585767746,66.42501763673499 83.73484844435006,63.50004610908218 84.94161118753254,42.575087460223585 77.87342940829694,32.22500261873938 73.2187731154263,33.12501276296098 67.7021434335038,39.65007054863963 69.25369553174824,61.025065854075365 75.97708795592189,66.20002002490219 83.73484844435006,63.05004999565426 84.76921650953591,59.225077710463665 83.39005908928812,37.175051890546456 76.66666666511446,32.675007756683044 67.7021434335038,40.1000735120615 69.42609020881355,59.67507494403981 77.528640053235,66.42501763673499 84.42442715447396,61.9250591348391 84.07963779848069,40.325074944878 76.8390613431111,32.22500261873938 68.90890617668629,36.275044117704965 67.35735407937318,44.60009590815753 71.83961569424719,64.85003365983721 79.769770860672,66.42501763673499 85.4587952196598,57.87508522020653 81.83850699197501,34.92503147001844 73.2187731154263,32.45000520371832 69.42609020881355,35.15003366058227 68.56411682162434,58.55008161359001 73.04637843742967,65.30002924683504 80.97653360385448,65.97502237989102 84.07963779848069,62.82505188975483 84.07963779848069,41.90008405176923 80.63174424879253,33.575017636991106 72.5291944053024,32.9000102764694 69.42609020881355,36.050042092218064 69.42609020881355,60.575069015612826 75.80469327792525,66.42501763673499 84.25203247647732,62.150057373102754 83.90724312141538,41.000079045421444 79.59737618360668,33.12501276296098 75.11511456780136,32.675007756683044 68.90890617668629,37.175051890546456 68.90890617668629,58.32508284843061 73.2187731154263,65.97502237989102 81.49371763691306,66.65001521632075 84.25203247647732,62.82505188975483 84.25203247647732,40.1000735120615 79.94216553866863,32.675007756683044 69.77087956480682,34.92503147001844 71.49482633918524,63.72504411684349 79.59737618360668,66.42501763673499 85.4587952196598,55.40009590785485 82.87287505716085,36.275044117704965 72.5291944053024,32.675007756683044 67.87453811056912,39.65007054863963 69.94327424187213,61.025065854075365 72.70158908236772,64.62503581715282 80.63174424879253,65.97502237989102 85.4587952196598,59.00007904425729 83.73484844435006,37.175051890546456 77.528640053235,32.0 73.2187731154263,32.675007756683044 67.7021434335038,42.575087460223585 70.97764230705798,63.50004610908218 79.25258682854474,66.20002002490219 83.04526973422617,64.1750400327146 85.97597925271839,56.52509154356085 82.52808570116758,35.37503581761848 72.35679972730577,32.9000102764694 67.7021434335038,40.1000735120615 69.94327424187213,62.150057373102754 76.49427198804915,66.20002002490219 83.56245376728475,63.27504806884099 85.28640054259449,58.32508284843061 84.59682183153927,37.175051890546456 79.94216553866863,32.675007756683044 74.25314117968082,32.45000520371832 68.3917221436277,41.22508034657221 70.11566891986877,62.82505188975483 75.97708795592189,66.20002002490219 82.87287505716085,63.950042091542855" stroke="#4dd2ff" stroke-linecap="round" stroke-linejoin="round" stroke-width="0.5"><title>2022-05-02 10.8km</title><desc>1651497071000</desc></polyline><polyline fill="none" points="105.33705387898954,51.034622185936314 105.33333333332848,51.36972082914144 105.66074135317467,51.816513753630716 105.9509439162066,51.98163135476716 106.2597492076602,51.97677496646065 106.683891415174,52.214737156980846 106.60575995589898,52.04962071630871 106.9554912498279,51.94278022845174 107.40939782277565,51.8893598554605 107.64751274630544,51.95249301429067 107.85586330438673,51.8893598554605 108.05677277110226,51.962205797306524 109.06876119607477,51.704816086770734 109.779385420974,51.326012502468075 111.21551605344575,50.72865959828414 112.88976160946186,50.34984486481335 114.09893895548885,49.77675794128663 115.17789720269502,49.67962358294244 115.42717376325163,49.58248894009739 116.63635110926407,48.92682265941039 117.28000551190053,48.4217079440823 119.19608653712203,47.29974292781117 120.2452804189088,46.82860344396977 121.68885214273178,46.7071746570291 123.79468099764199,46.682888846265996 124.06256028662028,46.716888976348855 124.93688852140622,47.07145968394252 125.78889348213852,46.930603281394724 126.97946809975838,46.96460315747754 127.13573101832299,47.02774569200119 127.85379633457342,48.222574066912784 128.07702907535713,48.34885422528532 130.68513159705617,48.80054470185132 132.06173349867458,48.80054470185132 133.0067521013989,48.68398000653542 133.11464792612242,48.85882689585924 133.285793027404,50.24785554344999 133.54623122501653,50.32070509071491 135.2614027834934,51.1657481451839 135.4474300675065,51.20945668305649 135.68182444534614,51.07833089660198 136.80170869502763,50.96663074371463 138.76987735978037,50.86464331902971 138.82196499929705,50.95691766916207 138.8256855449872,52.25844431251244 139.0079922832956,52.23901891716014 139.0600799228123,53.04030703106764 139.33540030315635,53.21998716323287 139.61072068345675,53.29768637839152 141.2142758715636,53.190849910617544 141.33333333332848,53.31711115373764" stroke="#4dd2ff" stroke-linecap="round" stroke-linejoin="round" stroke-width="0.5"><title>2022-03-26 10.6km</title><desc>1648285272000</desc></polyline><polyline fill="none" points="188.0,50.88467582199701 186.73354355538322,50.97729260160304 186.00985415845935,51.093063194626666 185.57351202207792,51.34775700742648 185.1549073709175,51.87566128704384 184.8320851399476,51.986797907184155 181.11785573512316,52.27852967680337 180.72408356326923,52.2738990348098 179.02483247932105,51.40795706342942 178.91840756798047,51.31534154516885 178.77650768624153,50.17614848271296 178.66653527788003,49.81030135391666 178.2727631060261,46.70274556842378 178.5920378399751,49.90755226955844 177.62711864407174,50.05111259835212 176.42451714623894,50.03258872158949 173.79936933387944,49.588012423586406 173.07922743399104,48.37002658687015 173.00118249902152,48.33760807188264 171.62120614899322,48.30055829975936 170.90461174615484,48.448757127740464 169.87229010643205,48.078258755342176 167.43161214030988,48.11067753624411 166.32124556563213,48.24035232746792 165.68624359479873,48.518225089252155 163.5648403626401,49.75936027874741 162.8127709893597,50.33360037452985 161.6669294442254,50.912460884354005 160.3969255025586,51.08843237905057 159.47102877413272,51.56077207554881 157.71856523453607,51.96364447684937 156.21442648798984,52.59804233660725 155.78872684272937,52.880507361942364 154.7599527000275,53.144447810364 154.67126527393702,53.153708838724924 154.62869530942407,53.08425105988681 154.42648797792208,53.13518677929642 154.26330311391212,53.047206848810674 153.6495861253352,53.14907832488643 153.39061884114926,53.29725443157622 153.0323216397228,53.121295227587325 152.72368939692387,53.11203418973491 152.5072920772509,52.97311829646242 152.23413480487943,52.62582589359772 152.18092234924552,52.097934136747426 152.0,51.4635262441825 152.04611746156297,51.59781802787438" stroke="#4dd2ff" stroke-linecap="round" stroke-linejoin="round" stroke-width="0.5"><title>2022-03-26 12.2km</title><desc>1648276795000</desc></polyline><polyline fill="none" points="36.14910636562854,76.12743052479345 31.756887532770634,72.68790584255476 26.48622493352741,73.60511316300835 21.215562333352864,82.08925541653298 24.026582387275994,103.41405872185715 35.62204010691494,106.62421902595088 39.31150392629206,98.82810401846655 37.0275501338765,77.732539458666 27.013291193172336,73.14650956983678 20.688496073707938,82.3185559209669 23.148138620890677,102.95546385506168 25.959158673882484,106.62421902595088 34.39221883378923,108.0 38.433060159906745,102.2675713042263 37.55461639352143,79.79624852829147 34.21653007995337,74.29301830066834 26.13484742678702,73.14650956983678 21.039873579517007,78.87904483266175 24.202271139249206,104.33124805113766 32.986708806827664,107.31210966373328 38.784437666647136,100.89178529649507 37.55461639352143,77.732539458666 33.689463819377124,73.60511316300835 26.48622493352741,72.91720772255212 20.864184826612473,79.33764674759004 23.675204880535603,104.78984251467045 34.21653007995337,106.85351593862288 39.31150392629206,101.57967845117673 37.55461639352143,77.27393707400188 30.35137750674039,72.68790584255476 20.864184826612473,79.56694765505381 22.269694853574038,101.57967845117673 30.35137750674039,107.7707032545004 38.081682654097676,102.72616637183819 38.081682654097676,80.71345168573316 33.51377506740391,73.83441490877885 29.297244986519217,72.91720772255212 21.74262859299779,77.732539458666 22.97244986705482,102.72616637183819 29.472933740355074,107.7707032545004 38.081682654097676,105.01913969626185 38.25737140607089,82.77715682890266 35.270662599243224,74.52231994573958 27.716046206653118,72.68790584255476 20.864184826612473,80.02554936776869 22.796761113218963,102.49686885497067 32.635331301018596,107.7707032545004 38.6087489137426,102.03827372030355 36.67617262713611,76.58603324508294 29.297244986519217,72.0 21.74262859299779,76.81533455487806 21.215562333352864,81.40135370264761 23.148138620890677,103.64335610461421 30.175688752904534,107.54140647558961 34.7435963395983,106.39492207963485 38.6087489137426,100.66248751059175 36.67617262713611,76.58603324508294 29.121556234546006,72.22930198092945 21.918317346833646,77.04463583091274 21.039873579517007,81.40135370264761 23.499516126699746,102.95546385506168 25.607781167142093,105.70703103870619 34.04084132704884,105.93632808583789 38.96012642048299,99.05740207212511 35.97341761365533,75.89812911394984 32.45964254718274,73.14650956983678 24.026582387275994,74.29301830066834 20.688496073707938,82.3185559209669 24.202271139249206,103.87265345384367 31.93257628660649,106.85351593862288 35.97341761365533,105.24843684374355 38.96012642048299,97.68161324493121 37.37892763968557,77.50323828263208 30.35137750674039,72.45860392821487 22.796761113218963,75.66882767004427 21.039873579517007,79.79624852829147 23.32382737379521,101.35038076620549 29.472933740355074,106.85351593862288 37.0275501338765,104.10195076919626 38.784437666647136,99.97459395229816 37.37892763968557,77.732539458666 27.540357453748584,72.91720772255212 21.74262859299779,78.87904483266175 23.850893633440137,102.95546385506168 26.48622493352741,106.39492207963485 34.7435963395983,106.62421902595088 39.13581517338753,99.2867000924889 36.851861380040646,77.50323828263208 30.35137750674039,72.68790584255476 25.959158673882484,73.60511316300835 21.39125108718872,80.942752391682 23.32382737379521,102.03827372030355 32.10826504044235,106.85351593862288 38.6087489137426,101.1210830481723 37.37892763968557,78.19114170921966 30.878443766385317,73.14650956983678 26.48622493352741,73.83441490877885 21.39125108718872,81.17205306410324 23.675204880535603,102.95546385506168 29.64862249325961,107.08281281823292 37.20323888678104,104.10195076919626 38.784437666647136,99.97459395229816 37.20323888678104,78.87904483266175 34.04084132704884,75.21022468118463 25.25640365947038,74.52231994573958 21.39125108718872,81.85995487880427 24.026582387275994,103.64335610461421 27.188979947008193,106.62421902595088 34.7435963395983,105.47773395839613 38.96012642048299,98.369507809286 35.97341761365533,76.58603324508294 27.891734960488975,73.60511316300835 21.918317346833646,79.10834580659866 23.499516126699746,102.03827372030355 25.78346992097795,105.70703103870619 33.51377506740391,106.62421902595088 38.784437666647136,99.74529603275005 36.3247951194644,77.27393707400188 28.067423714324832,73.60511316300835 21.918317346833646,79.33764674759004 23.850893633440137,102.2675713042263 32.635331301018596,106.85351593862288 38.25737140607089,100.43318969174288 36.67617262713611,78.42044278350659 29.64862249325961,73.37581138347741 22.445383607409894,77.50323828263208 21.39125108718872,81.63065430719871 24.202271139249206,102.95546385506168 31.405510026961565,106.85351593862288 38.433060159906745,100.43318969174288 37.0275501338765,78.42044278350659 34.21653007995337,75.21022468118463 25.959158673882484,74.29301830066834 21.39125108718872,81.17205306410324 23.675204880535603,102.03827372030355 33.1623975597322,106.39492207963485 38.25737140607089,100.43318969174288 37.0275501338765,78.19114170921966 30.175688752904534,73.37581138347741 21.566939841024578,80.48415094683878 23.148138620890677,101.8089761028532 30.175688752904534,106.62421902595088 37.20323888678104,102.95546385506168 37.37892763968557,80.48415094683878 32.28395379334688,74.06371662125457 27.891734960488975,73.83441490877885 21.566939841024578,81.63065430719871 23.32382737379521,102.72616637183819 31.756887532770634,106.62421902595088 37.90599390026182,101.35038076620549 36.67617262713611,78.87904483266175 34.21653007995337,74.98092313669622 27.716046206653118,73.60511316300835 22.094006100669503,79.56694765505381 22.97244986705482,102.2675713042263 29.824311246164143,106.62421902595088 33.86515257321298,106.16562509955838 38.433060159906745,98.82810401846655 36.851861380040646,78.42044278350659 33.86515257321298,74.75162155798171 25.607781167142093,74.52231994573958 21.215562333352864,81.85995487880427 23.675204880535603,102.95546385506168 34.04084132704884,106.16562509955838 38.081682654097676,100.43318969174288 36.67617262713611,77.96184060024098 30.175688752904534,72.91720772255212 23.148138620890677,77.04463583091274 21.74262859299779,81.40135370264761 23.499516126699746,102.49686885497067 30.878443766385317,106.85351593862288 38.433060159906745,98.369507809286 36.67617262713611,77.732539458666 29.472933740355074,72.91720772255212 25.080714906565845,74.75162155798171 21.39125108718872,81.63065430719871 22.269694853574038,100.20389183866791 27.716046206653118,107.08281281823292 32.10826504044235,106.85351593862288 37.73030514642596,100.89178529649507 37.55461639352143,80.02554936776869 35.97341761365533,76.12743052479345 28.770178726874292,73.14650956983678 21.74262859299779,78.87904483266175 23.32382737379521,102.03827372030355 29.64862249325961,107.08281281823292 37.20323888678104,102.03827372030355" stroke="#4dd2ff" stroke-linecap="round" stroke-linejoin="round" stroke-width="0.5"><title>2022-03-15 10.9km</title><desc>1647348550000</desc></polyline><polyline fill="none" points="79.04974674771802,107.52760189050059 78.80156309857557,107.52760189050059 78.72297160968083,106.56788433436031 78.74468767898361,105.84296812801949 78.83672244887566,105.72821825046867 79.08904249217085,105.65531758613997 79.14902020738009,105.54731554203681 79.04974674771802,104.52123299298091 78.98976903251605,104.21743663418056 78.95150738660232,103.83801467124067 78.91945033192314,103.72459012580202 78.85223392694388,103.68003010093526 78.6516188105561,103.70433559576486 78.63507323394515,103.68408102119247 78.54407256259219,102.60782391708562 78.61128896756782,102.5470528274036 79.7146721077188,102.32017055036431 79.59161438168667,101.77725098852716 79.52750027232469,100.66835315357275 79.49957961179825,100.5846063601357 79.185213656212,100.04698783973254 80.05902692090967,99.16619821036329 80.20069842063094,99.0621730133571 80.05178823113965,98.83250283208872 79.96182165832943,98.61363532811356 78.98149624420694,96.93547823769859 78.71573291991444,96.5179181931071 76.62788797148824,92.98614296226697 76.30835152321379,92.32099569483489 75.97330359687112,91.93432293922069 75.20083198891007,91.18797150930277 74.94954604415034,90.98920466507025 74.46765612539821,90.53215984174949 74.36631446866159,90.41045768617278 74.05608490722807,89.94391783337596 73.95991374318692,89.73836232761096 73.93406127973867,89.58419268233774 73.90820881627951,88.52251571350916 73.8730494659867,88.33315916603533 73.80583306100743,88.18843403196388 73.27223821535154,87.30245012642354 73.28154510219247,87.2821594183115 73.35393199986356,87.25239963205331 74.54211122013658,86.7884050460907 75.06536508041972,86.60442403041634 75.00952375935594,86.4867283606336 74.58967975289124,85.16356296051163 74.61553221634313,85.12703115142813 74.8078745444327,85.04584883340067 74.82131782542274,84.98631467760606 74.80684044588997,84.92542707377743 74.82235192396183,84.90242498509815 75.25046871873565,84.76170507107872 75.23599133920288,84.70352216910487 75.29596905441213,84.67916642631371 74.7603060116744,82.9916974721591 74.42318988825718,81.38107307243536 74.39526922772711,80.97228142947824 74.38492824235072,80.15193600666498 74.49661088446373,78.77640690668977 74.52349744645107,78.50560917846542 74.54624761428931,78.44603260604981 75.37559464184596,78.44603260604981 75.41385628775606,78.34448073895146 75.4169585833697,76.48385163902913 75.3621513608523,75.8256348534951 75.38800382430418,75.82021723546404 75.39627661261329,75.79448350611983 75.4221290760579,75.47212857073828 75.51726614156723,75.34209984473455 75.32182151786765,74.85312115954366 75.55449368893824,74.72308365922163 75.57310746262738,74.69734685209369 75.4883113825017,74.44132941772568 75.50175466349901,74.3437970869345 75.47176580589075,74.23678125298466 75.48003859419987,72.95791315375664 75.41799268191244,72.87933281542428 75.17084313130181,72.82649393345491 75.06122868626335,72.76552561440622 75.04158081404239,72.71404094042464 75.02710343450963,72.23982640332451 74.99090998567408,72.21814743830328 74.96092112806946,72.23034186243513 74.83682930349823,72.33602619226258 74.75410142045439,72.32654175087464 74.74582863214528,72.29673344264938 74.84923848595281,72.05826348837672 74.82235192396183,72.00541987500219 74.83372700788459,72.0 74.84510209180371,72.09078248369951 74.75513551898621,72.26150531709482 74.74479453360982,72.31841222187722 74.77168109559716,72.34415570564488 74.82648831811821,72.34415570564488 74.9650575222222,72.23982640332451 75.0198647447396,72.23847146951539 75.04054671549966,72.33196143286932 75.03744441988965,72.70726661970093 75.06226278480244,72.77771931063944 75.15946804738633,72.82920362711593 75.4148903862988,72.88475217072028 75.46349301758892,72.93623588630089 75.4707317073553,74.25303690312194 75.50692515618721,74.38172644992028 75.48107269273532,74.42913793309071 75.5700051670101,74.70682884206872 75.04158081404239,74.98315681651547 74.91231849677933,74.99941114402827 74.89473882163293,75.02108353591484 74.80477224881906,75.52766111084475 74.53900892452293,77.42640086366009 74.32701872420876,80.24805287518757 74.37355315842797,81.2660176622503 74.70963518330973,83.01876437641658 75.40868579506787,85.21903691135958 75.59999402461108,85.73181684353949 75.59999402461108,85.78593442810597 74.8937047230902,86.04975308863777 74.90404570847386,86.08898701168528 74.85751127425465,86.12551499635083 74.9878076900568,86.55436973438191 74.97643260614132,86.59630713606475 74.57416827481939,86.7234709905515 73.5514448206377,87.12524309616128 73.22777197821051,87.26186866540684 73.14504409515939,87.30515555078273 73.13263491270482,87.33085704251789 73.42425070045283,87.7988821629815 73.67346844813073,88.12756764069854 73.81410584931655,88.43460065870204 73.85443569230483,88.64694789232271 73.88752684551946,89.55308796681766 73.90717471774406,89.71537228136276 73.98369800956425,89.92633760798435 74.19982460402753,90.2725266292191 74.40664431164987,90.56190901256286 75.09018344532888,91.23394418125099 75.24840052166473,91.42459310338563 76.05499738137951,92.20337318535803 76.21218035917263,92.39265004953904 76.34868136620207,92.66303881336353 76.43864793901594,92.92936397564063 76.78920734343046,93.5376920235376 77.39932548091019,94.52850470301382 78.31450268713161,96.08682500381019 78.46548107369381,96.29088730626245 78.62576634710058,96.55170207257925 78.72503980675538,96.72737624682577 78.80776768980286,96.95304507352375 78.98149624420694,97.1692495380903 79.27621432756132,97.6570422071809 79.81497966591996,98.65011360676363 79.98664002323858,98.87168226831363 80.082811187287,99.04055724052432 80.07764069459881,99.12161612698674 79.1841795576729,100.01862016164432 79.18211136059472,100.08751294255853 79.51819338548376,100.68050988286996 79.57093241092298,101.76779688185161 79.6774445603478,102.31071700088887 78.49236763568115,102.54975377323626 78.5233905918285,102.72531355374758 78.62162995294784,103.80425751198891 78.64438012078244,103.87987337695358 78.90393885384765,104.21068549022493 78.99080313104787,104.43482082573973 79.09628118193723,105.56486596032482 79.0476785506471,105.62831719376481 78.87084770062938,105.66611772094438 78.8036312956574,105.6998680606348 78.7115965257617,105.81326829674344 78.68988045645892,106.10891235193958 78.71469882137899,106.88780128805138 78.69505094915075,106.89320063503601 78.68367586523163,106.98363922688804 78.55337944943312,106.97419046028881 78.47892435469112,107.00523637131027 78.51201550790938,107.44526717156259 78.44376500439466,107.4574149632208 78.44066270877738,107.57349305404932 78.34862793888897,107.59103961504206 78.31553678566706,107.65177745289566 78.32174137689799,107.92711729936309 78.24832038069144,107.93791477285049 78.21729742454772,108.0" stroke="red" stroke-linecap="round" stroke-linejoin="round" stroke-width="0.5"><title>2022-03-12 72.0km</title><desc>1647067817000</desc></polyline><polyline fill="none" points="141.31214439866017,85.68178749693652 141.33333333332848,86.05512912617814 140.87070825975388,86.14731156306698 140.9731214439671,86.91702437651475 140.92368059643195,87.14747365475341 140.65175593485765,87.18895434573824 139.11555817147018,87.14747365475341 138.91426329212845,87.10138393403395 138.72356288012816,86.96772336244976 138.22209142631618,87.20739019084431 137.81597017853346,87.53923355722145 136.99313321561203,88.04160088808021 136.38924857758684,88.5762215383129 134.07259172061458,91.42891451406467 133.80419854816864,91.46117289247559 133.59584069058474,91.60403102829332 133.51814793015365,91.59020607573257 133.44398665880726,91.46117289247559 133.5075534628122,91.32753082394811 133.62056111438142,91.30448903067918 133.715911320367,91.35978930619967 133.87835981948592,91.60863934446388 133.5711202668317,91.91739499207506 133.21797135569796,92.1846735562649 133.0449283892376,92.23997228636108 132.8189130861283,91.92661153206427 132.8612909554504,91.79757972702464 133.0237394545693,91.7883631492914 133.1226211496978,91.94504460390635 133.0873062585888,92.02799329373374 132.76240926033643,92.23997228636108 132.80125564055925,92.39204329350832 130.9013144987257,93.63162502713021 129.83833627623972,94.2122301781892 127.41573474591132,94.3182125030653 126.92132627034152,94.20762224292412 126.76947223856405,94.06938387174523 125.79831273297896,92.57176262808389 125.36747106139956,92.6639259916119 121.94192662350542,92.77912981678128 106.53757112027961,92.77912981678128 105.33333333332848,92.81138681231823" stroke="#4dd2ff" stroke-linecap="round" stroke-linejoin="round" stroke-width="0.5"><title>2022-02-27 10.6km</title><desc>1645954165000</desc></polyline><polyline fill="none" points="188.0,95.73924647911736 186.33016688062344,95.73522823758867 186.19152759948338,95.69504579011118 186.10218228498707,92.93035238915036 186.2315789473796,92.52848427599929 186.13915275994805,92.15876042355558 186.00359435174323,86.00534321027226 185.89884467267257,84.84765550195152 185.99743260590185,84.66274253162373 185.99743260590185,84.34115179345645 185.90808729139098,84.26075352088264 185.58151476252533,84.40547024217085 179.4413350449322,84.63460349227898 178.29833119382965,84.63058362716401 178.064184852381,84.51400728301087 177.7992297817691,84.51802716518068 177.52503209243878,84.42958962161902 177.38331193837803,84.52606692775043 177.00744544286863,84.53812656719674 176.61309370987874,84.70696096382198 172.86367137356137,84.8516753353233 170.60847240051953,84.8717744933183 170.2603337612236,84.81951665194902 168.92015404364793,84.89187363661586 164.4498074454459,84.8717744933183 159.65905006417597,85.06070585991256 158.91347881899856,85.28179410768098 157.18510911424528,86.13397216754493 155.63543003851373,86.78514702541543 155.17021822850802,87.14690416881058 154.10115532734198,87.79001622257056 153.5003851091169,88.04323746468981 152.7147625160287,88.22812769171833 152.56379974324955,87.80609383110095 152.29576379974606,87.74580275058361 152.0,87.76589979212076" stroke="#4dd2ff" stroke-linecap="round" stroke-linejoin="round" stroke-width="0.5"><title>2022-01-01 13.7km</title><desc>1641042278000</desc></polyline><polyline fill="none" points="12.894789379119175,116.06618819522191 12.158115392303444,116.04742657552197 12.0,116.26318453873319 12.165302455570782,118.58014586564968 12.104212417645613,119.06321588410356 12.348572569375392,121.84424433861204 12.33419844279706,122.48201785390484 12.546216809743783,123.57933375503126 13.54521860650857,126.67412491113282 13.929726492322516,128.13232444380628 14.059093631469295,128.02917424559564 14.641245757622528,127.96353303753494 17.217807945693494,127.81349548579965 20.114194449983188,127.75723122284398 20.764623677387135,127.63063627008523 21.71690956277598,127.73847644657508 30.636055100811063,127.67752334792021 31.48412856856885,127.7244103571793 31.760830505081685,130.81880134537641 31.836294669599738,132.45964507525423 31.998003593529575,133.22846867283442 31.96925534037291,134.1847844927106 32.0519065681583,135.95670606649583 32.1668995807413,136.71607105341536 33.27011379516625,136.61294846843157 34.62487522458832,136.63169805400685 35.03813136352983,136.90356581286323 34.73268117387488,139.9220805487821 35.07047314832744,143.7885516237875 35.08125374325027,143.84478776422839 35.18546616091044,143.8401014229603 35.232182072271826,143.95257342447803 39.68816130961932,143.73700174177793 40.726691954478156,143.7885516237875 44.42443601516425,143.7510608087323 45.491714913150645,143.82604239503416 45.34797364741098,140.43295011760347 45.54202435615298,140.32046577355868 46.35416250747221,140.25953658914295 48.0,140.24078912449113" stroke="#4dd2ff" stroke-linecap="round" stroke-linejoin="round" stroke-width="0.5"><title>2022-01-01 15.8km</title><desc>1641030436000</desc></polyline><polyline fill="none" points="75.6815568190068,116.74730764504056 71.89267279114574,112.0 68.55845484603196,112.59341436717659 66.73979051131755,120.10997380304616 70.52867454010993,146.41760256967973 77.50022115278989,145.82420305570122 84.62332312669605,139.89019358169753 83.25932487659156,120.50558103621006 77.65177651494741,115.95609086274635 71.74111742898822,119.71436645404901 71.13489598594606,142.2638004986802 76.1362229026854,147.40660118078813 82.80465879291296,146.81320210115518 85.22954457066953,143.84620279294904 84.92643384821713,123.86823784187436 80.07666229270399,117.73632797191385 76.1362229026854,117.3407199283829 70.98334062378854,122.28581215220038 71.74111742898822,142.0660000812495 73.25667104125023,145.62640315957833 80.07666229270399,147.60440081648994 86.44198745954782,138.3077866550302 84.16865704301745,120.90118815365713 78.25799795798957,116.94511176866945 71.89267279114574,120.10997380304616 70.52867454010993,123.86823784187436 72.19578351266682,143.84620279294904 81.13754982035607,147.40660118078813 86.29043209925294,140.6813963506138 83.56243559904397,121.49459861230571 77.50022115278989,117.53852396458387 74.16600320767611,118.7253475751495 70.52867454010993,126.04407013882883 71.28645134624094,141.67039916000795 72.80200495757163,145.03300329798367 79.92510693054646,147.80220042273868 83.10776951536536,146.81320210115518 86.59354282170534,139.49459202424623 84.32021240424365,121.09899166878313 78.1064425976947,116.94511176866945 70.37711917981505,124.2638439743314 71.74111742898822,142.85720157588366 76.74244434759021,147.80220042273868 83.86554632056504,146.02200292248745 85.83576601650566,142.65940124553163 85.07798920944333,123.47263159265276 80.68288373760879,117.3407199283829 76.74244434759021,116.94511176866945 71.13489598594606,121.69240204058588 71.43800670746714,142.85720157588366 77.65177651494741,147.60440081648994 81.44066054280847,147.20880151668098 86.29043209925294,141.47259865584783 85.07798920944333,123.07702522794716 80.98599445912987,117.3407199283829 76.89399970788509,116.74730764504056 71.43800670746714,121.09899166878313 71.58956206869334,140.08799431740772 75.6815568190068,146.61540234985296 83.10776951536536,146.21980276098475 85.38109993282706,143.4506023930153 84.62332312669605,123.86823784187436 80.37977301422507,117.53852396458387 76.590888986364,117.14291586261243 71.28645134624094,121.69240204058588 71.89267279114574,143.05500187759753 77.9548872364685,147.20880151668098 81.89532662648708,146.61540234985296 86.13887673802674,141.07699756138027 85.68421065434813,125.4506616781 84.92643384821713,121.49459861230571 79.01577476412058,116.74730764504056 72.34733887482435,119.12095521320589 70.22556381858885,126.04407013882883 72.65044959634542,143.84620279294904 82.50154807046056,146.81320210115518 86.59354282170534,140.4835957022151 84.16865704301745,120.90118815365713 75.37844609748572,117.14291586261243 70.22556381858885,124.85725295601878 73.55978176370263,145.03300329798367 80.22821765299886,147.80220042273868 83.86554632056504,146.41760256967973 86.59354282170534,138.90118946961593 83.25932487659156,119.91217014333233 74.92378001380712,117.73632797191385 70.37711917981505,123.86823784187436 72.65044959634542,143.64840260753408 82.19843734800816,147.20880151668098 86.29043209925294,141.27479812304955 83.41088023781776,119.31875898933504 76.1362229026854,117.14291586261243 70.52867454010993,126.04407013882883 73.10511568002403,144.24180307704955 79.62199620902538,147.20880151668098 86.59354282170534,139.89019358169753 85.22954457066953,123.47263159265276 83.71399095933884,119.91217014333233 76.74244434759021,117.14291586261243 71.13489598594606,122.28581215220038 71.74111742898822,142.85720157588366 80.07666229270399,147.60440081648994 83.86554632056504,145.82420305570122 86.59354282170534,138.90118946961593 85.07798920944333,122.48361546429805 76.590888986364,117.14291586261243 70.22556381858885,124.46164699771907 73.10511568002403,144.83520328637678 81.44066054280847,147.60440081648994 86.59354282170534,141.67039916000795 84.92643384821713,122.68141874833964 82.95621415320784,118.92315140855499 77.19711043033749,117.14291586261243 70.83178526256233,121.69240204058588 72.34733887482435,143.64840260753408 79.01577476412058,148.0 85.98732137680054,142.65940124553163 84.32021240424365,120.90118815365713 77.9548872364685,116.94511176866945 70.52867454010993,124.46164699771907 71.89267279114574,139.692392817582 72.95356031879783,143.64840260753408 79.47044084779918,147.40660118078813 84.92643384821713,142.65940124553163 84.47176776546985,121.69240204058588 78.56110868044198,117.14291586261243 74.46911393012851,117.53852396458387 70.37711917981505,123.47263159265276 71.74111742898822,141.27479812304955 77.9548872364685,147.40660118078813 85.53265529312193,142.85720157588366 85.38109993282706,123.67043473175727 78.8642194038257,116.74730764504056 75.2268907353282,117.3407199283829 70.37711917981505,123.2748284250265 71.58956206869334,142.2638004986802 73.55978176370263,145.4286032343516 80.98599445912987,147.40660118078813 85.68421065434813,141.86819963541348 84.01710168179125,121.49459861230571 78.1064425976947,117.3407199283829 74.46911393012851,118.13193589972798 70.22556381858885,124.2638439743314 72.34733887482435,143.64840260753408 82.04688198771328,147.01100182347 85.98732137680054,140.6813963506138 84.92643384821713,124.65944999130443 81.28910518158227,118.92315140855499 77.34866579156369,117.93413195060566 73.71133712492883,119.12095521320589 70.07400845736265,125.8462673475733 71.58956206869334,142.85720157588366 76.89399970788509,147.80220042273868 83.41088023781776,144.63740324566606 84.16865704301745,122.48361546429805 82.04688198771328,119.12095521320589 74.92378001380712,117.93413195060566 70.52867454010993,123.67043473175727 72.34733887482435,142.2638004986802 74.01444784644991,145.4286032343516 79.92510693054646,147.20880151668098 85.68421065434813,140.87919697037432 84.32021240424365,121.49459861230571 78.4095533201471,116.94511176866945 70.98334062378854,122.48361546429805 72.34733887482435,142.0660000812495 77.9548872364685,147.20880151668098 86.29043209925294,142.0660000812495 85.07798920944333,122.68141874833964 80.22821765299886,117.3407199283829 72.95356031879783,119.31875898933504 70.83178526256233,122.68141874833964 71.58956206869334,141.27479812304955 76.43933362420648,147.01100182347 80.22821765299886,147.40660118078813 85.98732137680054,142.65940124553163 84.62332312669605,121.89020544022787 79.31888548657298,117.3407199283829 75.2268907353282,117.93413195060566 70.68022990133613,123.67043473175727 72.19578351266682,143.2528021497419 74.46911393012851,146.21980276098475 81.44066054280847,147.40660118078813 85.83576601650566,141.67039916000795 84.77487848792225,123.07702522794716 77.19711043033749,118.13193589972798 69.92245309613645,126.04407013882883" stroke="#4dd2ff" stroke-linecap="round" stroke-linejoin="round" stroke-width="0.5"><title>2021-10-20 11.0km</title><desc>1634723987000</desc></polyline><polyline fill="none" points="120.97654637042433,146.17723520111758 128.65792609844357,145.94938945106696 132.32403915002942,140.93677451403346 131.9748855251819,128.40516654984094 127.95961884967983,113.8228048211895 118.8816246278584,113.59495433559641 115.73924201261252,117.24055810901336 118.70704781543463,144.12662225053646 127.08673479035497,145.94938945106696 132.49861596152186,139.7975415949477 129.18165653478354,116.55700805177912 120.80196955986321,113.59495433559641 115.21551157627255,118.37980753672309 114.86635795235634,122.7089477594709 118.70704781543463,143.89877620048355 122.37316086795181,146.63292660063598 130.0545405941084,145.26585200126283 132.49861596152186,136.60768498678226 130.22911740653217,116.78485810407437 122.7223144909367,112.91140267706942 117.3104333197698,114.50635607889853 114.86635795235634,118.37980753672309 115.21551157627255,133.18997422466055 120.10366231109947,145.72154366760515 124.81723623443395,146.40508091752417 131.625731902197,140.93677451403346 130.0545405941084,116.55700805177912 122.02400724310428,112.45570140506607 115.21551157627255,118.37980753672309 117.13585650734603,142.30385291588027 125.16638985835016,145.72154366760515 132.32403915002942,137.51907325687353 130.57827102951705,118.6076573219616 123.94435217510909,112.45570140506607 114.86635795235634,117.4684080608422 116.08839563559741,141.1646209973842 122.54773767851293,146.86077225080226 126.73758116643876,146.40508091752417 131.80030871462077,139.34184819436632 130.92742465343326,118.15195771830622 121.84943043068051,112.91140267706942 115.21551157627255,117.24055810901336 114.16805070452392,121.79755081818439 117.48501013126224,143.67093011725228 125.51554348226637,146.86077225080226 132.14946233760566,140.02538824558724 129.87996378168464,116.55700805177912 118.35789419151843,114.27850569342263 114.51720432750881,121.56970149942208 116.43754926044494,142.7595454492839 123.76977536361665,147.0886178672081 132.32403915002942,139.5696949113626 130.57827102951705,116.78485810407437 123.24604492727667,112.45570140506607 114.86635795235634,119.97475533524994 116.08839563559741,142.07600659877062 123.76977536361665,147.0886178672081 131.2765782782808,142.5316991993459 132.49861596152186,137.97476719075348 130.22911740653217,115.87345769419335 122.02400724310428,112.91140267706942 115.56466520018876,118.6076573219616 114.86635795235634,123.16464602923952 116.43754926044494,142.9873916663928 127.26131160277873,147.3164634500863 132.49861596152186,140.25323486304842 129.7053869701922,116.32915796595626 122.02400724310428,112.91140267706942 114.51720432750881,120.43045440607239 116.43754926044494,142.7595454492839 123.42062173876911,147.54430900025181 132.32403915002942,140.02538824558724 130.92742465343326,119.51905613159761 129.18165653478354,115.87345769419335 121.67485361918807,114.27850569342263 114.86635795235634,119.29120647907257 116.43754926044494,143.2152378502069 126.03927391860634,147.0886178672081 132.67319277394563,137.74692024069373 130.22911740653217,117.01270812295843 119.92908549960703,113.8228048211895 114.51720432750881,121.79755081818439 116.61212607193738,144.35446826706175 126.38842754252255,146.17723520111758 131.625731902197,139.34184819436632 130.22911740653217,116.55700805177912 122.7223144909367,112.0 114.51720432750881,118.83550707460381 115.56466520018876,139.7975415949477 117.13585650734603,143.67093011725228 124.81723623443395,147.0886178672081 129.00707972235978,145.26585200126283 132.67319277394563,137.51907325687353 130.0545405941084,115.4177572891349 122.54773767851293,112.22785071912222 114.51720432750881,121.34185214771423 114.86635795235634,140.93677451403346 120.452815935947,145.49369785096496 124.46808261144906,144.35446826706175 130.92742465343326,138.20261410810053 130.22911740653217,116.32915796595626 122.89689130336046,112.22785071912222 114.86635795235634,120.20260488777421 116.78670288436115,143.89877620048355 124.11892898660153,147.3164634500863 132.8477695863694,138.88615465990733 131.10200146585703,117.01270812295843 123.94435217510909,112.0 119.40535506326705,113.13925326347817 113.81889708060771,122.25324935559183 115.39008838869631,141.84816024871543 124.46808261144906,147.0886178672081 131.2765782782808,139.5696949113626 130.4036942180246,116.55700805177912 122.7223144909367,112.45570140506607 118.18331738002598,113.8228048211895 114.34262751601636,121.56970149942208 116.78670288436115,142.9873916663928 119.75450868811458,145.94938945106696 128.4833492860198,145.26585200126283 131.2765782782808,137.74692024069373 129.18165653478354,115.4177572891349 120.97654637042433,113.8228048211895 115.21551157627255,125.44313538016286 116.61212607193738,142.9873916663928 119.75450868811458,146.40508091752417 128.4833492860198,146.63292660063598 132.14946233760566,139.34184819436632 130.4036942180246,116.78485810407437 123.59519855119288,112.45570140506607 115.21551157627255,120.43045440607239 115.91381882410496,140.70892799738795 117.83416375610977,144.58231425075792 126.03927391860634,145.94938945106696 131.625731902197,140.25323486304842 129.87996378168464,117.4684080608422 127.08673479035497,114.05065527372062 119.40535506326705,114.50635607889853 114.86635795235634,123.39249511482194 116.26297244802117,142.9873916663928 127.43588841427118,146.63292660063598 131.80030871462077,140.70892799738795 129.87996378168464,117.69625798030756 122.7223144909367,112.45570140506607 118.35789419151843,113.59495433559641 113.99347389210016,123.84819318517111 117.48501013126224,144.8101602010429 128.832502909936,146.40508091752417 132.49861596152186,138.43046099238563 130.0545405941084,116.55700805177912 123.0714681148529,112.6835520581808 116.08839563559741,117.69625798030756 115.39008838869631,122.48109857388772 117.13585650734603,142.9873916663928 123.0714681148529,148.0 130.22911740653217,146.40508091752417 132.49861596152186,138.20261410810053 127.95961884967983,114.73420643177815 119.57993187569082,113.36710381647572 114.86635795235634,120.43045440607239 116.61212607193738,141.84816024871543 122.7223144909367,147.54430900025181 127.08673479035497,147.0886178672081 130.4036942180246,141.1646209973842 128.4833492860198,116.55700805177912 125.8646971071139,113.59495433559641 118.00874056760222,114.05065527372062 114.69178113993257,126.81022738968022 118.35789419151843,145.49369785096496 126.9121579779312,147.3164634500863 130.75284784194082,144.8101602010429 130.57827102951705,119.51905613159761 125.16638985835016,113.13925326347817 116.96127969585359,115.87345769419335 114.69178113993257,119.74690575024579 115.39008838869631,138.20261410810053 119.05620144028217,146.17723520111758 127.78504203818738,146.86077225080226 131.10200146585703,144.12662225053646 130.57827102951705,118.37980753672309 127.61046522669494,113.59495433559641 122.54773767851293,112.22785071912222 115.73924201261252,116.32915796595626" stroke="#4dd2ff" stroke-linecap="round" stroke-linejoin="round" stroke-width="0.5"><title>2021-10-15 10.8km</title><desc>1634303852000</desc></polyline><polyline fill="none" points="181.86243715664023,118.8644340969986 181.6506709473615,116.76372035732129 181.36125712798093,112.06450152356047 181.22007965511875,112.0 181.15654979235842,113.0873025600813 181.94714364034007,123.53550675279621 181.84831940935692,124.89898922085922 177.87417354850913,125.19379235738597 174.71885703018052,125.07402874970285 173.24355243885657,125.24906779175944 172.32589886526694,125.10166652555927 170.55412158096442,125.19379235738597 170.0035294368572,124.81607558996257 169.88352858493454,124.85292610605757 166.82703629761818,126.7046367604562 165.58467453645426,127.72719989332472 160.6152274919732,133.76090540836594 160.23404831526568,133.7701167303676 159.64816180293565,134.07408960082103 159.4152189727174,133.76090540836594 159.5563964455796,133.5029878446876 159.84581026493106,133.49377648356676 160.248166062549,134.01882191536788 160.21993056798237,134.2030473448649 159.7611037812312,134.59913019274973 158.7093316084356,135.3452329750471 158.27168144262396,134.91231021523345 158.14462171701598,134.58070778994443 158.26462256893865,134.41490592232367 158.48344765190268,134.4056946946439 158.72344935574802,134.69124212579845 158.66697836658568,134.8938879040943 158.05285635965993,135.3728662416288 158.3493290526676,135.95316203781113 158.55403638831922,136.13738180693326 159.65522067656275,135.73209760328973 160.02228210601606,136.275546280016 159.97286999048083,136.45055417732874 159.7328682866355,136.34002293036974 159.33757136267377,135.66762033035047 159.36580685721128,135.49261025661326 160.6081686183461,134.5346517594262 161.04581878418685,134.99521054863726 161.01758328962023,135.31759969634368 160.71405172295636,135.3912884126039 160.48816776642343,135.04126624224227 160.89758243766846,134.5714965865409 161.02464216327644,134.11093469750995 162.11170870426577,132.959515233415 165.07643563419697,129.03531950261095 165.8105584930454,128.24308129558267 167.1940977270133,127.34028606699212 168.64116682379972,126.8336096026178 169.38234855627525,126.98100681290816 170.22235451976303,127.55216774269866 170.709416801139,128.46417203081 170.8505942739721,129.5051304737135 171.2317734506505,135.07811077287988 171.11177259872784,135.2254886797382 167.95645608042832,135.4373438164621 168.0905746796634,139.74798046473734 169.92588182675536,147.7973963986733 169.88352858493454,147.98158151773896 169.55882039736025,148.0" stroke="#4dd2ff" stroke-linecap="round" stroke-linejoin="round" stroke-width="0.5"><title>2021-07-17 11.8km</title><desc>1626518053000</desc></polyline><polyline fill="none" points="48.0,155.70833196951935 47.29330254040542,155.8865970058214 44.66248762785108,155.94860209519175 44.42494226328563,156.09586389142714 44.37743319038418,156.522145729763 43.961728802358266,156.60740168562188 41.134938964038156,156.56864899543143 40.5945232596423,156.24312527810616 38.11217419995228,157.73896773474553 36.37809303859831,159.26576853162624 34.59056417024112,161.62176054584415 32.808973935985705,163.72966456214635 32.35763774334919,163.78391098466454 31.989442428253824,164.0163950232818 31.781590234255418,163.73741405449255 31.90036291652359,163.4894297373903 32.155724183423445,163.50492879122612 32.46453315738472,163.93890045714215 32.339821840956574,164.2101309425925 31.241174529859563,165.05481127020175 31.051138238224667,165.00056614935602 30.736390630161623,164.59760065520823 30.819531507760985,164.30312393214626 31.027383701730287,164.30312393214626 31.19366545692901,164.60535002055985 31.06895414055907,164.80683312138717 30.65324975256226,165.07030986597601 30.61167931376258,165.43452556055854 26.157703728153137,168.20868206616433 24.928406466526212,168.49538828124423 21.549323655548505,168.59612252896113 20.753546684252797,168.38690503102043 20.474430880887667,168.0847005195501 13.728142527223099,157.6459632180995 13.057076872326434,156.39813682164458 12.083140877599362,153.70087121488177 12.0,153.77838076468834 12.72451336189988,156.03385897450426 13.241174529859563,157.2274408716985 20.42692180798622,168.2939192111371 20.777301220747177,168.60387130932213 21.16331243814784,168.75109792059084 25.427251732093282,168.75109792059084 25.884526558889775,168.85958042495622 26.086440118786413,169.1152883061659 25.90828109535505,171.04468070565417 26.674364896083716,180.07857133100333 26.38337182448595,182.85196112695485 25.747937974258093,186.26814400713192 26.69218079841812,186.29912878512187 26.73968987131957,184.30057350443167 27.1138238205167,180.26450144352202 27.107885186414933,178.91649334544127 28.836027713608928,178.71506390281866 34.151105245779036,178.43616033346552 35.76047509073396,178.21148694600197 36.14054767403286,178.0255496289683 41.06367535464233,176.90216445798433" stroke="#4dd2ff" stroke-linecap="round" stroke-linejoin="round" stroke-width="0.5"><title>2021-07-13 17.2km</title><desc>1626169012000</desc></polyline><polyline fill="none" points="59.07533919684647,173.47102957450625 58.931751551121124,172.23561957049606 58.75871002931672,171.6010718354919 58.66666666667152,170.54346500247266 59.12688347994117,170.37520622632655 61.01193154703651,169.91849948367235 61.33960591806681,169.70216249160148 62.77916410990292,169.21179336097703 66.46458035045362,167.7550653582548 70.28990250223433,166.93292297699736 70.87898002317525,166.913691329617 71.07043021749996,167.25985925733403 71.09252062453015,167.65890941870384 70.83111747460498,168.30795654069516 70.90107043023454,168.57718713396753 71.12565623508999,168.8464155175243 71.36496897799952,168.88487653480843 71.64109906594967,168.66372506964763 72.28540260449518,168.57718713396753 72.86711665644543,168.6012254723355 73.05488511624571,168.54834110466618 73.10642939934041,168.4137259658637 72.84870798392512,167.9329531033436 72.64253085157543,167.77429651232887 71.43124019910465,167.2454356666094 70.91579736824497,166.45212840960812 70.96365991682978,166.37039263227052 73.58505488513038,165.90401400590054 75.82723119930597,165.6395695706342 81.02584032183222,164.34616516165988 85.78632303811901,163.9663080805076 87.0160223631392,163.57202139348374 87.5056930524297,163.30755815469092 88.37826413036964,162.62475229529082 91.25369877957564,160.18673086364652 91.40096815982542,159.99437431807746 91.94586486670596,158.7680748128223 92.6453944228706,157.57539443784844 92.98043226292066,157.1233187634134 92.94361491785094,157.0463690916513 93.29337969592598,156.8636128973958 93.36333265154099,156.902087970313 93.30074316493119,157.8110484349454 93.433285607156,157.79662068788093 93.67259835005098,158.1236480624575 94.13649689778686,159.22493685152585 94.53412422446127,160.26367316592223 94.66666666667152,161.3408464419772 94.61512238359137,161.42259475497485 94.3021749505715,161.50434286420204 93.6762800845463,161.50915157015697 92.99884093544097,161.39374243248312 92.1925410786207,167.42332617552165 92.071043839911,168.7358398416727 91.82436762802536,170.1252201653515 91.76914161042077,176.78285257575044 91.9790004772658,176.72517491909457 92.08945251244586,176.80688490278044 93.65787141201145,176.4752372354087 94.63721279063611,176.34065461720456 94.21381332242163,176.28297618329816 92.66748482988623,176.6194322852607 92.34349219335127,176.60981930165144 92.01949955683085,176.72036844314061 91.9900456807809,176.86456241581982 91.81700415900559,176.97030425976118 91.71391559283074,180.08953538265268 90.91866093952558,180.0991473469985 89.8509579327947,180.30099794827402 84.37253698780842,180.46920583436076 84.30994750119862,180.59415970593545 84.09640689984371,180.61818924209365 84.1405877139332,182.0695406040577 84.03381741324847,182.146431601308 81.78427763006766,182.24735076186698 81.35351469287707,182.19929405745643 80.21954046499741,182.30501871430897 80.09436149179237,182.21851674766367 79.96918251858733,181.98784372207228 79.6893706961273,182.12720886887837 79.65255335105758,182.0887633702514 79.72986977569235,182.29060173569815 79.43533101520734,182.31943568657516 66.78857298700314,182.84805363051782 64.39176382357255,182.88169266610203 59.009067975741345,183.1363871026042 58.90966114407638,182.55971762557238" stroke="#ffbc00" stroke-linecap="round" stroke-linejoin="round" stroke-width="0.5"><title>2021-07-06 26.8km</title><desc>1625562864000</desc></polyline><polyline fill="none" points="128.1648729210865,155.6660532341739 126.88919369396172,155.1024544175234 126.56072538997978,154.64857601833864 126.37357484469248,154.25454480642657 129.18083302414743,153.71087399747194 131.44573656212015,153.4564929293956 134.92902834397682,152.61353030677856 136.559911667282,152.12969025528946 136.48734308850544,152.0 136.20470757111616,152.04489283661678 134.64639282658754,152.49880596842922 134.88701495624264,153.76075241526632 134.94048654063954,154.6435883099948 135.18110867029463,155.76081672025975 135.4675635865715,162.79751511831273 135.50575757540355,162.84738022024612 135.6776305251551,162.8025016317879 135.58978435084282,161.92985065029643 136.08248680681572,161.93483729088257 136.07484800906968,162.5581616121235 136.11686139677477,162.0096368121558 136.25817915548396,161.92985065029643 136.74706221258384,161.95977048291024 136.74324281368172,161.74534443470475 136.29255374542845,161.86003760525637 136.0175570258143,161.83510434017808 135.92971085148747,161.740357766339 135.6776305251551,161.740357766339 135.7311021095229,161.87001090617923 135.60124254749098,161.88497085206473 135.69672751959297,163.03686694140924 135.5172157720517,163.09670463421207 135.54777096312318,163.8197351076342 135.83040648051247,166.73164719574925 135.9717242392071,167.04077392298132 137.4536510060425,166.95601364803952 137.6255239558086,167.0258162427308 137.51094198929786,170.62045641432633 137.617885158048,172.57964972608897 136.6974100270745,172.60457512345965 136.20470757111616,171.14890133583685 135.92589145258535,171.29845973028569 136.20470757111616,171.84683488991868 136.34602532979625,172.36529055553183 136.3383865320211,172.84884305221567 136.1856105766783,173.22271914161684 136.2849149476533,173.46698263637518 136.6668548360176,173.77604822083958 136.8043531958392,174.19477776397616 137.70955073123332,178.41667966777095 137.79739690557471,179.35868553843466 138.08767122073914,179.3537014489484 138.1907949905726,179.5331282111474 139.97063487036212,179.33874917610592 140.45187912968686,179.4434149481931 140.52062830957584,179.50820788403144 140.52826710735098,179.7873145063786 140.47479552296863,180.4751032068525 140.47861492187076,179.5181760170708 140.0050094603066,179.48827160921428 139.7376515384385,179.35868553843466 139.36335044783482,179.473319395438 139.3862668411457,179.3437332677786 139.18765809921024,179.74245823916863 139.20675509363355,179.85709080462038 139.18383870032267,179.73249017177295 139.37480864449753,178.85030465378077 139.84459470718866,175.4758587989054 139.93626028040308,175.53567463461877 139.34043405455304,181.1728456690944 139.48175181323313,181.14294271383915 139.51994580207975,180.10629070299183 140.13868842121155,179.4483990245717 140.2876449776668,179.6676976625531 140.40222694419208,179.68763383236364 140.44042093302414,179.32878099055233 140.57028049508517,179.1991943130124 140.6008356861421,179.25900361005915 140.53590590512613,180.23088996850493 140.44042093302414,180.29568140646006 140.51680891068827,180.02654693386285 140.50153131516709,179.61785718698957 140.5129895118298,180.26079372441018 140.3945881464315,180.49005498089173 140.5129895118298,181.10805589953088 140.50153131516709,183.54506314636092 138.6720392499119,183.56001357301284 138.24808597384254,183.40054201694147 137.8508684899425,183.42047600228398 137.5987881636247,183.28093786002137 137.34288843841932,183.43542648361836 136.99914253890165,183.42047600228398 136.52935647621052,183.64473253355754 136.2849149476533,183.66964983479193 131.82385705159686,183.81416982262454 129.11972264198994,183.84407043320607 128.6461171804258,183.78925262705525 127.04578904819209,183.86400415902244 122.01946011735708,183.8689875886521 121.99272432517319,183.67961675020342 121.63370083010523,183.52512923390896 121.41217569484434,183.33575648405895 121.14099837413232,183.33575648405895 120.58718553600193,183.5649970471204 120.09830247890204,183.88892129988017 119.81566696151276,183.93377210752806 115.22093010452227,184.09822456370966 114.4035787434259,184.4271270946083 111.87513668247266,185.66297489101999 110.4428621011175,186.19118648421863 109.83939707749232,186.70444084837072 108.51788506377488,187.48676515108673 108.02136320889986,187.71099491950372 106.91755693155574,188.0 106.81061376280559,187.98006869384335 106.67693480187154,187.35222658175553 106.06583098050032,187.3671753379058" stroke="#ffbf00" stroke-linecap="round" stroke-linejoin="round" stroke-width="0.5"><title>2021-06-22 26.1km</title><desc>1624363393000</desc></polyline><polyline fill="none" points="178.86619183744187,160.87385477240605 177.0320332009578,163.05364174762872 176.63244864088483,163.07928581623128 176.16080784861697,163.3613698277586 175.90533575281734,163.1818619780206 175.8987851862621,162.95961339984933 176.24596521392232,162.83139268166633 176.665201473661,163.37846578466633 175.8201783875702,164.1819701168497 175.3419870287762,164.540979118854 175.12581833233708,164.540979118854 174.71968320567976,164.04520420246263 174.7851888712612,163.7289317990908 175.09961606608704,163.7374797243865 175.25027909694472,164.01956055785558 174.6672786732379,164.5067878803966 174.64762697351398,164.87434264534386 169.77400545371347,167.96854922733837 168.73246537084924,168.27625142083707 164.79557486897102,168.4301019099039 163.91779895010404,168.31898770843327 163.28239399386803,167.64375070947062 155.8343998164346,156.11223326572872 155.25139939269866,155.0008474200149 154.33432007444208,152.47877801676077 154.11815137803205,152.0 154.0526457123924,152.09404599162372 154.59634273679694,153.85524295297728 155.42826468980638,155.86431056345464 163.38065249228384,168.14804237047792 163.76713591924636,168.44719638368406 164.21912501181941,168.60959363511938 168.9551846338727,168.55831034134098 169.38097146016662,168.67797129018072 169.62989298944012,168.96857543139777 169.42027485952713,170.74635753401526 169.43992655922193,171.6865088951963 170.2194439797022,181.29227961903962 169.94432018423686,184.10363447613054 169.70849978816113,185.5733467163409 169.30891522802995,187.06865554652904 169.25651069558808,187.9914556229196 170.17359001381556,188.0 170.28494964531274,187.87183421260488 170.31115191156277,185.821143395322 170.70418590510963,181.471731841757 170.72383760477533,179.82245972297824 173.3637159279897,179.54045516766564 178.07357328385115,179.23281228265841 178.5648657757556,179.29263185935633 185.56087086064508,177.76294059045904 185.9473542876076,177.66039002301113 185.77048899049987,176.74597284049378 185.5477697274764,176.3699466698854 184.9909715699905,176.30157801529276" stroke="#4dd2ff" stroke-linecap="round" stroke-linejoin="round" stroke-width="0.5"><title>2021-06-18 14.9km</title><desc>1624019954000</desc></polyline><polyline fill="none" points="40.248636528500356,192.05308703836272 40.1198507520312,192.0 40.07918155944208,192.13271750841886 40.75700143567519,201.41337235892206 40.66888485176605,202.51032412025597 36.967988327582134,202.7403276097648 34.05336285979138,202.68724995911543 32.90784726900165,202.84648277125598 29.63397726684343,202.87302153247583 29.810210434661712,204.35032752862026 29.525526086625177,205.0845440221201 29.823766832181718,205.57991396693978 30.081338385120034,206.87139509011467 30.447361118305707,212.36430447518433 30.250793354207417,212.51466695658746 27.45817546415492,212.68271869908494 27.342946085205767,212.80654599988338 27.43784086787491,216.74235305229377 28.630803850013763,222.10171425083172 28.53590906734462,222.20783541877609 26.414332854765235,222.64116158817342 26.217765090666944,222.8622451721276 27.16671291735838,224.82543193911624 27.559848445584066,224.94923437356192 28.79348062031204,224.58666938545866 29.166281552257715,224.74584452595082 27.783529004722368,224.96692041493588 27.268385898816632,224.83427497856246 27.024370743369218,224.59551245980765 26.27199068077607,222.8357151847449 26.38044186096522,222.71190842300712 28.637582048773766,222.172461716822 29.464522297756048,225.78047272643744 28.610469253733754,226.08113059336756 23.49292918824358,227.25721906545368 22.028838255588198,227.49597107508816 19.622577695030486,227.61976804231745 19.405675334623083,227.51365637166964 19.242998564295704,225.83353010570136 19.344671545753954,225.73625820816233 20.50374353409279,225.63898615415383 21.961056267929962,225.76278692302003 22.48297757265391,225.60361445935632 25.390824841655558,225.60361445935632 26.183874096837826,227.49597107508816 26.231321488216054,227.84083342492158 26.03475372408866,228.0 25.811073164950358,227.88504640447718 25.587392605782952,227.00962339321268 29.50519149034517,226.14303055688652 29.61364267053432,225.65667199379095 29.37640571387601,224.7635306268421 27.675077824562322,224.8608040891122 27.220938507496612,224.75468757706767 26.27199068077607,222.7649684947719 26.40077645724523,223.34862621144202 27.044705339649227,224.63972781219127" stroke="#4dd2ff" stroke-linecap="round" stroke-linejoin="round" stroke-width="0.5"><title>2021-05-14 12.6km</title><desc>1620998747000</desc></polyline><polyline fill="none" points="58.66666666667152,219.29703387610425 60.489032060140744,219.27543472267644 60.535419542880845,219.184718106093 60.482405276896316,218.20841691406895 60.535419542880845,217.79801520256115 62.901181162756984,217.7332144119191 64.9157232704456,218.17817698224098 69.0309556680586,218.23865681499046 69.85267679092067,217.84985573288577 70.69427826353058,217.5820120151293 73.80886639053642,217.2752847792799 74.71010891241895,217.00311569595942 75.55833716827328,216.97719470030097 76.0222119957034,216.8648701233069 76.75115815309982,216.9642341939434 77.34094186224684,216.92535264082835 77.5728792759619,216.86054993874677 78.70605921154493,216.0872267397899 78.91811627551215,216.00946127716816 79.30909648719535,216.0224222017987 79.98502837860724,216.39396629345356 80.2335327504261,216.46309026079507 81.3435189446318,216.48037122739697 82.25801503298862,216.0872267397899 82.54628010430315,216.07858614293218 82.50320601319254,213.65479907589543 82.54628010430315,212.7733727183131 83.74241448075918,212.78633506093138 83.9842920693336,212.73016486859706 86.38318760546099,212.93324121349178 88.37122258015734,213.01533551035754 88.87485810708313,213.06286368335714 89.70983279644861,213.28754128553555 89.9947844761482,213.29186199192554 89.89538272740901,211.77093435021925 89.6965792299452,210.41413175701564 89.60380426445045,207.86023573682724 89.71314618806355,206.48596691131752 89.91526307715685,205.43145318513598 89.98815769288922,203.42604462876625 90.17370762387873,201.75764851153326 90.15051388248685,201.05309026911164 91.58852584753186,200.81535210390393 92.91388249731972,200.84128726938798 94.66666666667152,200.70296612389575" stroke="#4dd2ff" stroke-linecap="round" stroke-linejoin="round" stroke-width="0.5"><title>2021-04-03 14.8km</title><desc>1617446473000</desc></polyline><polyline fill="none" points="141.22417626842798,200.47651852043964 141.33333333332848,200.85746139039475 141.28967050736537,200.92154465197564 139.0246614109492,201.45556527216468 138.29330907619442,201.56592807316338 138.32332726904133,202.87600310785274 138.28239336970728,203.6556066979574 138.3315140488994,204.54553462495642 138.3151404891687,204.58113106555902 138.07499494642252,204.50281882755553 138.30695370929607,204.59892926633802 138.222356984028,204.73419516719332 138.21144127754087,205.31084663102774 137.8075601374585,205.3962753161868 137.20173842732038,205.4425490621943 134.3472811804968,205.32152523306104 134.30361835454823,205.8518899091505 134.35001010712585,206.3430898434417 134.3745704467292,208.91994747333592 134.53557711743633,210.3897731604975 134.6092581362318,211.90577163363923 133.56680816656444,211.6958150319897 130.79421871840896,211.61396705301013 128.55376996159612,211.46806345195364 128.5646856680687,214.20450013503432 127.84152011318656,214.55676289216535 127.47857287245279,214.62436829336184 126.71174449159298,214.56032107584906 125.94491611077683,214.19738366322235 125.68839700828539,214.19382542652966 125.58469779664301,214.21873307243914 124.41125934910087,214.99085746671517 123.56529209621658,215.02288053067605 122.28269658378849,214.987299345903 121.41489791791537,215.2577150470297 118.86335152617539,215.5138955745806 118.13745704466419,215.73805132680354 117.61077420657966,216.0155746393284 115.97887608651945,216.0511543226021 115.88882150796417,218.1609366671346 115.94885789367254,218.51314223508052 115.75783303011849,218.9756266648219 115.41398827571538,219.50213671732854 114.04133818476112,219.52348147955854 113.87214473418135,219.4594471368 113.847584394578,219.39541262580315 113.70295128360158,219.37406775141062 110.91944612895895,219.37762523176752 110.38730543764541,219.32070548366573 108.80452799676277,219.33137794654976 107.99949464322708,219.26734309907806 105.33333333332848,219.3135905058025" stroke="#4dd2ff" stroke-linecap="round" stroke-linejoin="round" stroke-width="0.5"><title>2021-04-03 17.8km</title><desc>1617429273000</desc></polyline><polyline fill="none" points="184.59075107974058,197.96331164508229 185.18234488570306,197.2851278640519 185.66017065207416,197.05741347038565 186.49067734120763,196.9435556983226 187.54492784156173,196.9386053517046 188.0,203.36354516784195 187.9014010323299,203.8832288365811 184.15464026125846,203.97231666354492 183.53650057937193,204.0663535595886 182.1561150321213,204.01191117797498 181.05635731593065,204.11089726118735 179.74802486042609,204.912673856139 179.12609291057743,205.43233371760653 178.7279047719494,205.84805585712093 177.5143790161237,207.446558858941 176.52459707154776,208.60456027898545 176.20983882862492,208.6490980033086 175.9747182134306,208.7827108244128 175.86474244180135,208.65404663573645 175.88749604971963,208.54022790695672 175.9823027493985,208.48084407031638 176.08848625303654,208.5105360016605 176.30085326031258,208.75796774922128 176.2856841883622,208.86188854340435 176.0316022332263,209.09447202092633 175.47793110713246,209.47056106845776 175.19351100811036,209.16375189654354 175.24660275994393,208.99550052385894 175.3793321394769,208.99550052385894 175.49310017908283,209.1538547801465 175.4438006952696,209.25777435789132 175.14041925629135,209.45076701232756 175.15938059623295,209.65365553855008 172.50479300538427,211.33609886419435 171.8866533235123,211.6082509503285 169.3799641841324,211.71711117166342 169.05382913727954,211.69237024303584 168.8187085220561,211.58845814517554 164.22627198990085,204.55633104984736 163.93805962288752,204.01191117797498 163.26682818919653,202.18556594729307 163.14168334564602,202.11627177389528 161.83714315813268,202.5963784871965 161.12419677656726,202.77456068749598 160.8511534815334,202.7597122066727 160.62361740232154,202.4429430622913 160.31644369536662,200.55711532547502 160.32402823134908,200.25517513156956 160.19509111977823,200.17597725724772 159.0270725797891,200.2205260843839 158.46581691772735,199.07708760510286 157.74907826818526,197.9534112498004 157.3205519856856,197.4732385975185 155.36374170442286,197.93856065142973 153.62688296640408,198.6810825788525 153.24386389971187,198.93848637356132 152.3830190666922,200.05223020719131 152.07584535975184,200.28487428660083 152.0,200.50266729307623 152.04929948384233,200.75510743139967 152.1365216475533,200.8343039491192 152.56504793006752,200.93824909710747 152.61813968187198,201.37877498663875 152.8798061729758,201.85889217218937 157.50637311703758,206.28851778611715 157.79837775204214,206.7735141727244 158.10555145896797,207.91669242167336 158.73886021280487,209.040037733379 158.87538186031452,210.0396352283169 158.96639629201673,210.04953208553343 159.06120299168106,210.17324255622952 163.62709364797047,210.16334573522545 167.5558832824172,210.0297383682264 167.66965132202313,210.07922263977161 168.5570420309814,211.42516706069364 168.80733171811153,211.68742205514354 169.0689982092008,211.80123019365055 171.79943115981587,211.79628202166714 172.00042136311822,211.82102287430826 172.18245022647898,211.94967501623978 172.25829558621626,212.26635512712164 172.148319814587,212.83043423084382 172.12935847465997,213.49346255458659 172.22795744233008,214.01299059288067 172.21658063837094,214.7700028795989 172.46687032551563,217.08051732628883 172.59201516906614,219.23256764983307 172.4061940376996,220.95410936218832 172.05730538292846,222.46780643527381 172.02696723902773,223.0218224246746 172.4175708416733,223.0613946482954 172.6261455809581,222.97235708009248 172.67923733277712,221.0035776570512 172.8840198040707,219.1435200064043 172.86126619615243,218.33218623789435 173.76761824503774,218.18376941915994 175.95954914148024,218.11450801427782 177.9846202464978,217.9364066078415" stroke="#ffc000" stroke-linecap="round" stroke-linejoin="round" stroke-width="0.5"><title>2021-04-02 25.8km</title><desc>1617360244000</desc></polyline><polyline fill="none" points="34.00733348581707,266.0369833558216 33.788405528175645,261.41501800322294 24.850433691579383,262.0238396642453 19.834127879177686,259.5388258193052 19.453383604995906,256.2709218302916 19.00600908283377,254.40704189577082 17.85425765340915,244.37866501125973 17.178436566726305,239.92951346829068 17.644848302647006,239.14653807139985 16.70250622398453,236.95913993167778 13.751738099032082,232.52202838486846 13.351956611149944,232.0 12.895063482108526,232.1242927640269 16.0171665304224,236.92185424715717 17.045176070765592,239.8798009595921 17.70195994374808,244.0058400412454 19.5961627078359,259.91158253568574 24.022314895293675,261.91201560504123 24.76476622989867,262.4835592483796 25.097917469858658,262.47113442752016 25.71662691538222,262.1480884461125 26.43052242952399,262.0486894351852 29.69540458067786,261.7007919799289 33.69321945961565,261.58896749500127 36.339392165245954,261.2286431520697 36.75821086682845,260.9677176726618 37.81477622769307,259.6382277704397 39.042676511977334,258.9424116669179 41.74596085870871,258.5323745052665 43.85909158043796,258.5323745052665 44.506356846541166,268.0 47.104936517891474,267.81363961120223" stroke="#4dd2ff" stroke-linecap="round" stroke-linejoin="round" stroke-width="0.5"><title>2021-03-30 11.1km</title><desc>1617098167000</desc></polyline><polyline fill="none" points="61.00507295579882,263.37243190827576 60.337774527375586,257.28863277953496 60.337774527375586,252.6605064152609 63.0667263091309,252.12747636966378 64.6204360826523,250.37235482231335 65.98491197352996,249.7873065960448 68.25571856560418,249.50128161552857 70.78547678666655,249.46227813775477 71.26354133238783,258.27662850922206 71.69180748786312,262.0725098463299 71.90096072666347,266.5311632178564 71.80136394628789,267.67503820300044 66.2139845683705,267.9870015509441 61.77196816453943,268.0 61.592693959886674,267.8310200139749 60.427411629701965,257.5096327788342 60.278016459196806,252.86851727227622 60.51704873202834,252.50449795265013 63.17628276749747,252.07547326706117 64.2220489612082,250.72338190754817 65.51680710591609,249.89131545137207 67.37926689849701,249.54028507624025 70.9647509913193,249.35826877975342 71.14402519597206,248.83822016208433 71.17390423006145,243.2605071842845 71.42289618094219,242.51938607695047 71.89100104861427,241.96029062075831 72.51846076484071,241.59622657022555 74.35104152339045,241.21915865802293 74.79922703502234,240.86809398962941 75.10797705408186,240.29598562920728 74.49047701590462,233.83350557732774 74.49047701590462,232.80622697627405 74.64983186445897,232.6501836169482 78.35483209369704,232.1560445024079 83.6633404865861,232.0 86.79067938978551,232.18205189285072 87.38826007192256,232.58516546956525 91.28249418374617,237.1623266984243 92.11910713877296,238.7746795501589 92.53741361625725,240.56903780662833 93.05531687411712,255.83261903396487 92.52745393820805,258.471626367369 88.89217145525618,258.4586265235048 74.28132377716247,259.19961458756734" stroke="#4dd2ff" stroke-linecap="round" stroke-linejoin="round" stroke-width="0.5"><title>2021-03-25 13.5km</title><desc>1616666045000</desc></polyline><polyline fill="none" points="123.86753539275378,234.570071125092 123.91427807295986,234.6179855995706 124.00442467046378,235.0666355753583 123.92763312443276,235.15375129203858 121.24994530162076,235.82017809489844 120.38186695506738,235.96391525452418 120.30841417190095,236.07280658035415 120.33512427487585,239.69648287438758 118.20833232581208,238.95174885226515 117.66411397779302,238.5510655355265 116.37201274657855,237.32720594916645 116.29188243768294,237.19654181281112 116.26851109757263,236.9439228573483 115.89790841884678,232.3180038738701 115.94131233618828,232.0653435389322 115.72095398668898,232.0 115.63080738914141,232.08276845843466 116.03479769657133,236.96134492306373 115.84114945004694,238.82109184110232 115.56069336885412,240.06666537398087 115.4171265654004,241.2207342335205 115.49391811141686,242.4749168731796 115.51395068864804,244.90909988002932 115.77771295548882,247.65657026878944 115.84448821292608,249.1978294476212 115.7443253267702,249.8116986221812 115.31028615348623,250.07291571307178 115.31362491636537,250.9262089242893 115.59741976043733,251.37026001392587 115.77437419260968,251.9971444091043 115.78439048123255,252.2757554643904 115.71761522379529,253.5120606091823 115.44383666836075,255.77993781821897 115.42380409112957,260.8591828291319 115.59741976043733,260.9244631236361 115.71427646091615,260.8809429431749 115.8778758416156,260.94622319005066 116.37535150945769,260.95492721217306 118.44204572682793,260.8852949640768 122.45857746103138,260.9375191653962 122.51533642986033,261.0115032940412 122.4685937496688,262.4519812246399 122.9326817887777,262.4389258458614 123.2732356016495,262.33883441857506 126.44506032942445,262.4302222568076 126.88577702843759,262.66957002988784 127.48675434527104,262.6739217898066 127.57022341706033,262.86104686541694 127.58023970566865,263.104742878284 127.56688465419575,266.7816999801689 127.54351331409998,267.03841733599984 127.34318754181731,267.4517711479948 127.3598813561839,267.6997806860945 127.30312238736951,267.8477152183441 127.36322011904849,268.0 127.54351331409998,267.96084113039615 129.48667330520402,266.7512418422011 131.31631535870838,265.8287806446442 131.35638051317073,265.2239439043042 131.32633164733124,265.51113410146536 131.25287886415026,265.6025122207175 129.73374175769277,266.47276599595716 129.69033784035128,266.46841479022623 129.65361144879716,265.9506167774016 129.6001912428328,265.87664489900453 127.75719413785555,265.8026728371624 127.76387166359928,262.7087358462504 127.82063063242822,262.6391076927175 128.14782939381257,262.6391076927175 128.11778052795853,262.190872562971 127.99090753885685,261.78614961974745 127.75719413785555,261.4075328620147 127.75719413785555,258.5046446837114 128.06436032203783,258.40889243347556 128.09107042499818,258.2652634816259 128.30809001163288,257.99541327697625 128.33813887747237,257.7125031821888 128.07437661064614,257.3555973874227 128.02095640469634,257.1771428880529 127.770549189343,257.0944440993626 127.7438390863681,257.0117450813286 127.71379022052861,250.86526021924692 127.88406712697179,250.66064579802878 127.89408341556555,250.53439364595943 127.7171289833932,250.19916981973438 127.71045145766402,242.244116392636 127.44335042795865,237.64515295360434 127.1562168210221,237.59288792566258 125.55027187989617,237.71919491955123 125.40002755068417,235.87244623318475 125.11289394376217,234.11705773887115 125.10287765515386,233.7555132657708 124.99269848038966,233.3634721305625 125.01606982048543,233.00191850966985 124.84245415117766,232.96706973598157 124.28488075167115,233.1718056974496 122.43186735807103,233.5986974309253 122.40515725511068,233.72066537382852 122.84921271700296,234.63105317013833 123.02282838629617,234.73123768739788" stroke="#ffaf00" stroke-linecap="round" stroke-linejoin="round" stroke-width="0.5"><title>2021-02-27 29.9km</title><desc>1614420945000</desc></polyline><polyline fill="none" points="172.07683782782988,246.26543418685833 172.90136682672892,246.288578620115 173.92981159954797,246.18442856373076 180.89841152567533,246.0050583787779 180.96933875136892,245.50744650685738 180.82748429992353,242.4984970445803 180.8585149612045,241.56683354700363 185.66826745471917,241.38165557648608 185.69929811597103,241.19647673815052 185.86331732544932,241.15018189295733 185.38012560026255,235.8548510419605 185.3402290358208,234.4773699719808 185.50868119689403,234.38476447952416 186.22238640559954,234.45421861922296 186.2312523088185,235.21241836841364 185.54414480974083,235.21241836841364 185.42445511632832,235.1198145990238 185.5308459548978,235.40341295723556 185.8367196157924,235.40920065762475 185.37125969707267,235.3802621471732 185.34466198741575,234.44264293775632 185.16291097152862,234.51788480667528 185.21610639081337,236.06899294490722 185.65496859990526,241.22541098884903 182.85334318430978,241.29485310407836 186.01403768008458,246.66467376083529 186.31104543773108,247.6945775185668 186.2888806796982,248.0128007803105 186.08939785740222,248.56245310664235 186.20908755078563,248.84595500264913 186.528260066465,248.98481233224447 186.62578500181553,249.11788348199116 187.46804580712342,252.79162743891357 187.83154783892678,254.52713575543748 188.0,256.0311813355838 187.91134096783935,256.67327567395114 187.0380495012796,256.6964140139971 187.0735131141264,260.3000451890621 186.43516808273853,260.61238298565513 183.2833394901827,260.65287103789524 182.21943110454595,260.7569829818931 169.90912449202733,260.85531067728516 169.2973771702964,260.7743349458833 169.43923162171268,260.67022304759666 168.32212781676208,260.8321747709597 167.88769855926512,260.73384701801115 167.6837827853451,260.8379587488089 166.2829700775619,260.9825579201315 162.00960472846054,261.10402081541906 161.15847801993368,261.33537767899907 158.12190616916632,262.78711110176664 156.20243812334957,263.56790185799036 155.53749538233387,264.1231214611762 154.45142223863513,264.76508441015903 153.0949390468886,265.38968700702026 152.0,265.6152355204722" stroke="#ffd800" stroke-linecap="round" stroke-linejoin="round" stroke-width="0.5"><title>2021-02-25 20.0km</title><desc>1614253167000</desc></polyline></svg>