<?xml version="1.0" encoding="utf-8" ?>
<svg baseProfile="full" height="300mm" version="1.1" viewBox="0,0,200,300" width="200mm" xmlns="http://www.w3.org/2000/svg" xmlns:ev="http://www.w3.org/2001/xml-events" xmlns:xlink="http://www.w3.org/1999/xlink"><defs /><rect fill="#222222" height="300" width="200" x="0" y="0" /><text fill="#FFFFFF" style="font-size:12px; font-family:Arial; font-weight:bold;" x="10" y="20">Over 10 km Workouts</text><text fill="#FFFFFF" style="font-size:4px; font-family:Arial" x="10" y="280">ATHLETE</text><text fill="#FFFFFF" style="font-size:9px; font-family:Arial" x="10" y="290">yeanment</text><text fill="#FFFFFF" style="font-size:4px; font-family:Arial" x="120" y="280">STATISTICS</text><text fill="#FFFFFF" style="font-size:3px; font-family:Arial" x="120" y="285">Number: 23</text><text fill="#FFFFFF" style="font-size:3px; font-family:Arial" x="120" y="290">Weekly: 1.4</text><text fill="#FFFFFF" style="font-size:3px; font-family:Arial" x="141" y="285">Total: 420.6 km</text><text fill="#FFFFFF" style="font-size:3px; font-family:Arial" x="141" y="290">Avg: 18.3 km</text><text fill="#FFFFFF" style="font-size:3px; font-family:Arial" x="167" y="285">Min: 10.6 km</text><text fill="#FFFFFF" style="font-size:3px; font-family:Arial" x="167" y="290">Max: 72.0 km</text><polyline fill="none" points="22.759423542767763,61.025065854075365 29.138026611879468,66.65001521632075 37.24057645536959,63.950042091542855 37.24057645536959,40.325074944878 32.06873612944037,33.575017636991106 23.966186285950243,34.475026991334744 21.38026612251997,38.07505913567729 21.72505547758192,60.35007054696325 27.414079836569726,66.65001521632075 38.27494452148676,62.82505188975483 37.412971132434905,41.67508284980431 31.034368065185845,33.12501276296098 26.896895803511143,32.9000102764694 21.03547676745802,39.20006745273713 22.414634188637137,61.9250591348391 26.72450112644583,66.20002002490219 35.171840325929224,65.75002470146865 38.102549843490124,61.025065854075365 36.72339242324233,39.20006745273713 29.827605322003365,32.675007756683044 22.759423542767763,35.15003366058227 22.242239510640502,60.80006745166611 26.552106449380517,66.42501763673499 34.99944564793259,66.20002002490219 37.93015516549349,63.05004999565426 37.412971132434905,43.47509154479485 31.206762742251158,33.35001521627419 27.24168515857309,32.675007756683044 21.552660800516605,38.97506585542578 21.552660800516605,59.67507494403981 26.207317093387246,66.42501763673499 30.689578709192574,68.0 37.58536581043154,63.05004999565426 37.412971132434905,39.87507204664871 28.79323725681752,32.22500261873938 21.72505547758192,37.400053751072846 21.72505547758192,58.77508034533821 29.999999999068677,66.8750127630774 37.412971132434905,64.1750400327146 38.96452323067933,59.67507494403981 36.895787101238966,38.52506256115157 31.206762742251158,32.9000102764694 21.72505547758192,38.07505913567729 22.58702886570245,59.900073511875235 23.966186285950243,63.950042091542855 31.37915741931647,66.8750127630774 35.34423500299454,66.20002002490219 39.13691790867597,58.55008161359001 38.102549843490124,40.775077711907215 36.72339242324233,36.72504807007499 29.482815966941416,32.675007756683044 21.38026612251997,38.07505913567729 22.06984483357519,59.67507494403981 30.86197338718921,67.77500261855312 38.79212855361402,61.250064223539084 36.550997745245695,37.400053751072846 28.1036585457623,32.675007756683044 20.690687413327396,41.67508284980431 22.414634188637137,62.60005375056062 29.827605322003365,67.32500775693916 34.13747225981206,66.42501763673499 38.27494452148676,58.77508034533821 36.37860306818038,36.72504807007499 29.827605322003365,32.45000520371832 21.03547676745802,40.1000735120615 23.449002253822982,61.70006086421199 29.827605322003365,66.42501763673499 34.30986693780869,65.97502237989102 38.44733919855207,54.27509944792837 36.37860306818038,36.5000461100135 29.65521064400673,32.45000520371832 25.51773838326335,33.35001521627419 21.38026612251997,40.775077711907215 22.414634188637137,61.025065854075365 32.241130807437,65.52502699068282 36.033813713118434,63.72504411684349 38.79212855361402,56.52509154356085 37.06818177830428,36.5000461100135 27.414079836569726,32.0 21.207871444523335,38.07505913567729 23.449002253822982,62.60005375056062 30.689578709192574,66.65001521632075 38.44733919855207,60.35007054696325 37.412971132434905,38.97506585542578 31.37915741931647,32.675007756683044 21.552660800516605,37.62505557946861 22.06984483357519,59.67507494403981 28.27605322469026,66.65001521632075 35.8614190351218,64.40003794187214 38.102549843490124,60.35007054696325 36.895787101238966,39.20006745273713 31.37915741931647,32.675007756683044 21.552660800516605,36.275044117704965 22.58702886570245,60.35007054696325 28.965631934814155,66.65001521632075 37.06818177830428,63.950042091542855 38.96452323067933,59.67507494403981 37.06818177830428,38.52506256115157 31.206762742251158,32.45000520371832 23.104212898761034,34.475026991334744 21.03547676745802,38.300060865236446 22.242239510640502,59.225077710463665 27.758869191631675,66.42501763673499 37.06818177830428,63.50004610908218 38.27494452148676,42.575087460223585 31.206762742251158,32.22500261873938 26.552106449380517,33.12501276296098 21.03547676745802,39.65007054863963 22.58702886570245,61.025065854075365 29.310421289876103,66.20002002490219 37.06818177830428,63.05004999565426 38.102549843490124,59.225077710463665 36.72339242324233,37.175051890546456 29.999999999068677,32.675007756683044 21.03547676745802,40.1000735120615 22.759423542767763,59.67507494403981 30.86197338718921,66.42501763673499 37.757760488428175,61.9250591348391 37.412971132434905,40.325074944878 30.172394677065313,32.22500261873938 22.242239510640502,36.275044117704965 20.690687413327396,44.60009590815753 25.1729490282014,64.85003365983721 33.10310419462621,66.42501763673499 38.79212855361402,57.87508522020653 35.171840325929224,34.92503147001844 26.552106449380517,32.45000520371832 22.759423542767763,35.15003366058227 21.897450155578554,58.55008161359001 26.37971177138388,65.30002924683504 34.30986693780869,65.97502237989102 37.412971132434905,62.82505188975483 37.412971132434905,41.90008405176923 33.965077582746744,33.575017636991106 25.86252773925662,32.9000102764694 22.759423542767763,36.050042092218064 22.759423542767763,60.575069015612826 29.138026611879468,66.42501763673499 37.58536581043154,62.150057373102754 37.24057645536959,41.000079045421444 32.9307095175609,33.12501276296098 28.44844790175557,32.675007756683044 22.242239510640502,37.175051890546456 22.242239510640502,58.32508284843061 26.552106449380517,65.97502237989102 34.827050970867276,66.65001521632075 37.58536581043154,62.82505188975483 37.58536581043154,40.1000735120615 33.27549887262285,32.675007756683044 23.104212898761034,34.92503147001844 24.828159673139453,63.72504411684349 32.9307095175609,66.42501763673499 38.79212855361402,55.40009590785485 36.20620839111507,36.275044117704965 25.86252773925662,32.675007756683044 21.207871444523335,39.65007054863963 23.276607575826347,61.025065854075365 26.034922416321933,64.62503581715282 33.965077582746744,65.97502237989102 38.79212855361402,59.00007904425729 37.06818177830428,37.175051890546456 30.86197338718921,32.0 26.552106449380517,32.675007756683044 21.03547676745802,42.575087460223585 24.31097564101219,63.50004610908218 32.58592016249895,66.20002002490219 36.37860306818038,64.1750400327146 39.309312586672604,56.52509154356085 35.8614190351218,35.37503581761848 25.690133061259985,32.9000102764694 21.03547676745802,40.1000735120615 23.276607575826347,62.150057373102754 29.827605322003365,66.20002002490219 36.895787101238966,63.27504806884099 38.61973387654871,58.32508284843061 37.93015516549349,37.175051890546456 33.27549887262285,32.675007756683044 27.58647451363504,32.45000520371832 21.72505547758192,41.22508034657221 23.449002253822982,62.82505188975483 29.310421289876103,66.20002002490219 36.20620839111507,63.950042091542855" stroke="#4dd2ff" stroke-linecap="round" stroke-linejoin="round" stroke-width="0.5"><title>2022-05-02 10.8km</title><desc>1651497071000</desc></polyline><polyline fill="none" points="58.67038721233257,51.034622185936314 58.66666666667152,51.36972082914144 58.994074686517706,51.816513753630716 59.28427724954963,51.98163135476716 59.59308254100324,51.97677496646065 60.01722474851704,52.214737156980846 59.93909328924201,52.04962071630871 60.288824583170936,51.94278022845174 60.74273115611868,51.8893598554605 60.98084607964847,51.95249301429067 61.189196637729765,51.8893598554605 61.390106104445294,51.962205797306524 62.40209452941781,51.704816086770734 63.11271875431703,51.326012502468075 64.54884938678879,50.72865959828414 66.22309494280489,50.34984486481335 67.43227228883188,49.77675794128663 68.51123053603806,49.67962358294244 68.76050709659467,49.58248894009739 69.9696844426071,48.92682265941039 70.61333884524356,48.4217079440823 72.52941987046506,47.29974292781117 73.57861375225184,46.82860344396977 75.02218547607481,46.7071746570291 77.12801433098502,46.682888846265996 77.39589361996332,46.716888976348855 78.27022185474925,47.07145968394252 79.12222681548155,46.930603281394724 80.31280143310141,46.96460315747754 80.46906435166602,47.02774569200119 81.18712966791645,48.222574066912784 81.41036240870017,48.34885422528532 84.0184649303992,48.80054470185132 85.39506683201762,48.80054470185132 86.34008543474192,48.68398000653542 86.44798125946545,48.85882689585924 86.61912636074703,50.24785554344999 86.87956455835956,50.32070509071491 88.59473611683643,51.1657481451839 88.78076340084954,51.20945668305649 89.01515777868917,51.07833089660198 90.13504202837066,50.96663074371463 92.1032106931234,50.86464331902971 92.15529833264009,50.95691766916207 92.15901887833024,52.25844431251244 92.34132561663864,52.23901891716014 92.39341325615533,53.04030703106764 92.66873363649938,53.21998716323287 92.94405401679978,53.29768637839152 94.54760920490662,53.190849910617544 94.66666666667152,53.31711115373764" stroke="#4dd2ff" stroke-linecap="round" stroke-linejoin="round" stroke-width="0.5"><title>2022-03-26 10.6km</title><desc>1648285272000</desc></polyline><polyline fill="none" points="141.33333333332848,50.88467582199701 140.0668768887117,50.97729260160304 139.34318749178783,51.093063194626666 138.9068453554064,51.34775700742648 138.48824070424598,51.87566128704384 138.16541847327608,51.986797907184155 134.45118906845164,52.27852967680337 134.05741689659772,52.2738990348098 132.35816581264953,51.40795706342942 132.25174090130895,51.31534154516885 132.10984101957,50.17614848271296 131.9998686112085,49.81030135391666 131.6060964393546,46.70274556842378 131.92537117330357,49.90755226955844 130.96045197740023,50.05111259835212 129.75785047956742,50.03258872158949 127.13270266720792,49.588012423586406 126.41256076731952,48.37002658687015 126.33451583235001,48.33760807188264 124.9545394823217,48.30055829975936 124.23794507948332,48.448757127740464 123.20562343976053,48.078258755342176 120.76494547363836,48.11067753624411 119.65457889896061,48.24035232746792 119.01957692812721,48.518225089252155 116.89817369596858,49.75936027874741 116.14610432268819,50.33360037452985 115.00026277755387,50.912460884354005 113.73025883588707,51.08843237905057 112.8043621074612,51.56077207554881 111.05189856786455,51.96364447684937 109.54775982131832,52.59804233660725 109.12206017605786,52.880507361942364 108.09328603335598,53.144447810364 108.0045986072655,53.153708838724924 107.96202864275256,53.08425105988681 107.75982131125056,53.13518677929642 107.5966364472406,53.047206848810674 106.98291945866367,53.14907832488643 106.72395217447774,53.29725443157622 106.36565497305128,53.121295227587325 106.05702273025236,53.11203418973491 105.84062541057938,52.97311829646242 105.56746813820791,52.62582589359772 105.514255682574,52.097934136747426 105.33333333332848,51.4635262441825 105.37945079489145,51.59781802787438" stroke="#4dd2ff" stroke-linecap="round" stroke-linejoin="round" stroke-width="0.5"><title>2022-03-26 12.2km</title><desc>1648276795000</desc></polyline><polyline fill="none" points="176.14910636562854,36.12743052479345 171.75688753277063,32.687905842554756 166.4862249335274,33.605113163008355 161.21556233335286,42.08925541653298 164.026582387276,63.414058721857145 175.62204010691494,66.62421902595088 179.31150392629206,58.82810401846655 177.0275501338765,37.732539458666 167.01329119317234,33.14650956983678 160.68849607370794,42.3185559209669 163.14813862089068,62.95546385506168 165.95915867388248,66.62421902595088 174.39221883378923,68.0 178.43306015990674,62.267571304226294 177.55461639352143,39.79624852829147 174.21653007995337,34.29301830066834 166.13484742678702,33.14650956983678 161.039873579517,38.87904483266175 164.2022711392492,64.33124805113766 172.98670880682766,67.31210966373328 178.78443766664714,60.89178529649507 177.55461639352143,37.732539458666 173.68946381937712,33.605113163008355 166.4862249335274,32.91720772255212 160.86418482661247,39.33764674759004 163.6752048805356,64.78984251467045 174.21653007995337,66.85351593862288 179.31150392629206,61.57967845117673 177.55461639352143,37.27393707400188 170.3513775067404,32.687905842554756 160.86418482661247,39.56694765505381 162.26969485357404,61.57967845117673 170.3513775067404,67.7707032545004 178.08168265409768,62.72616637183819 178.08168265409768,40.71345168573316 173.5137750674039,33.834414908778854 169.29724498651922,32.91720772255212 161.7426285929978,37.732539458666 162.97244986705482,62.72616637183819 169.47293374035507,67.7707032545004 178.08168265409768,65.01913969626185 178.2573714060709,42.77715682890266 175.27066259924322,34.52231994573958 167.71604620665312,32.687905842554756 160.86418482661247,40.02554936776869 162.79676111321896,62.49686885497067 172.6353313010186,67.7707032545004 178.6087489137426,62.03827372030355 176.6761726271361,36.586033245082945 169.29724498651922,32.0 161.7426285929978,36.81533455487806 161.21556233335286,41.40135370264761 163.14813862089068,63.64335610461421 170.17568875290453,67.54140647558961 174.7435963395983,66.39492207963485 178.6087489137426,60.662487510591745 176.6761726271361,36.586033245082945 169.121556234546,32.22930198092945 161.91831734683365,37.04463583091274 161.039873579517,41.40135370264761 163.49951612669975,62.95546385506168 165.6077811671421,65.70703103870619 174.04084132704884,65.93632808583789 178.960126420483,59.057402072125115 175.97341761365533,35.898129113949835 172.45964254718274,33.14650956983678 164.026582387276,34.29301830066834 160.68849607370794,42.3185559209669 164.2022711392492,63.87265345384367 171.9325762866065,66.85351593862288 175.97341761365533,65.24843684374355 178.960126420483,57.681613244931214 177.37892763968557,37.50323828263208 170.3513775067404,32.45860392821487 162.79676111321896,35.668827670044266 161.039873579517,39.79624852829147 163.3238273737952,61.35038076620549 169.47293374035507,66.85351593862288 177.0275501338765,64.10195076919626 178.78443766664714,59.974593952298164 177.37892763968557,37.732539458666 167.54035745374858,32.91720772255212 161.7426285929978,38.87904483266175 163.85089363344014,62.95546385506168 166.4862249335274,66.39492207963485 174.7435963395983,66.62421902595088 179.13581517338753,59.2867000924889 176.85186138004065,37.50323828263208 170.3513775067404,32.687905842554756 165.95915867388248,33.605113163008355 161.39125108718872,40.942752391682006 163.3238273737952,62.03827372030355 172.10826504044235,66.85351593862288 178.6087489137426,61.121083048172295 177.37892763968557,38.191141709219664 170.87844376638532,33.14650956983678 166.4862249335274,33.834414908778854 161.39125108718872,41.17205306410324 163.6752048805356,62.95546385506168 169.6486224932596,67.08281281823292 177.20323888678104,64.10195076919626 178.78443766664714,59.974593952298164 177.20323888678104,38.87904483266175 174.04084132704884,35.21022468118463 165.25640365947038,34.52231994573958 161.39125108718872,41.859954878804274 164.026582387276,63.64335610461421 167.1889799470082,66.62421902595088 174.7435963395983,65.47773395839613 178.960126420483,58.369507809286006 175.97341761365533,36.586033245082945 167.89173496048898,33.605113163008355 161.91831734683365,39.10834580659866 163.49951612669975,62.03827372030355 165.78346992097795,65.70703103870619 173.5137750674039,66.62421902595088 178.78443766664714,59.74529603275005 176.3247951194644,37.27393707400188 168.06742371432483,33.605113163008355 161.91831734683365,39.33764674759004 163.85089363344014,62.267571304226294 172.6353313010186,66.85351593862288 178.2573714060709,60.43318969174288 176.6761726271361,38.42044278350659 169.6486224932596,33.37581138347741 162.4453836074099,37.50323828263208 161.39125108718872,41.63065430719871 164.2022711392492,62.95546385506168 171.40551002696157,66.85351593862288 178.43306015990674,60.43318969174288 177.0275501338765,38.42044278350659 174.21653007995337,35.21022468118463 165.95915867388248,34.29301830066834 161.39125108718872,41.17205306410324 163.6752048805356,62.03827372030355 173.1623975597322,66.39492207963485 178.2573714060709,60.43318969174288 177.0275501338765,38.191141709219664 170.17568875290453,33.37581138347741 161.56693984102458,40.48415094683878 163.14813862089068,61.808976102853194 170.17568875290453,66.62421902595088 177.20323888678104,62.95546385506168 177.37892763968557,40.48415094683878 172.28395379334688,34.06371662125457 167.89173496048898,33.834414908778854 161.56693984102458,41.63065430719871 163.3238273737952,62.72616637183819 171.75688753277063,66.62421902595088 177.90599390026182,61.35038076620549 176.6761726271361,38.87904483266175 174.21653007995337,34.98092313669622 167.71604620665312,33.605113163008355 162.0940061006695,39.56694765505381 162.97244986705482,62.267571304226294 169.82431124616414,66.62421902595088 173.86515257321298,66.16562509955838 178.43306015990674,58.82810401846655 176.85186138004065,38.42044278350659 173.86515257321298,34.75162155798171 165.6077811671421,34.52231994573958 161.21556233335286,41.859954878804274 163.6752048805356,62.95546385506168 174.04084132704884,66.16562509955838 178.08168265409768,60.43318969174288 176.6761726271361,37.961840600240976 170.17568875290453,32.91720772255212 163.14813862089068,37.04463583091274 161.7426285929978,41.40135370264761 163.49951612669975,62.49686885497067 170.87844376638532,66.85351593862288 178.43306015990674,58.369507809286006 176.6761726271361,37.732539458666 169.47293374035507,32.91720772255212 165.08071490656585,34.75162155798171 161.39125108718872,41.63065430719871 162.26969485357404,60.203891838667914 167.71604620665312,67.08281281823292 172.10826504044235,66.85351593862288 177.73030514642596,60.89178529649507 177.55461639352143,40.02554936776869 175.97341761365533,36.12743052479345 168.7701787268743,33.14650956983678 161.7426285929978,38.87904483266175 163.3238273737952,62.03827372030355 169.6486224932596,67.08281281823292 177.20323888678104,62.03827372030355" stroke="#4dd2ff" stroke-linecap="round" stroke-linejoin="round" stroke-width="0.5"><title>2022-03-15 10.9km</title><desc>1647348550000</desc></polyline><polyline fill="none" points="32.38308008105014,107.52760189050059 32.13489643190769,107.52760189050059 32.05630494301295,106.56788433436031 32.07802101231573,105.84296812801949 32.17005578220778,105.72821825046867 32.42237582550297,105.65531758613997 32.48235354071221,105.54731554203681 32.38308008105014,104.52123299298091 32.32310236584817,104.21743663418056 32.28484071993444,103.83801467124067 32.252783665255265,103.72459012580202 32.185567260276,103.68003010093526 31.984952143888222,103.70433559576486 31.96840656727727,103.68408102119247 31.877405895924312,102.60782391708562 31.944622300899937,102.5470528274036 33.04800544105092,102.32017055036431 32.92494771501879,101.77725098852716 32.86083360565681,100.66835315357275 32.832912945130374,100.5846063601357 32.51854698954412,100.04698783973254 33.392360254241794,99.16619821036329 33.53403175396306,99.0621730133571 33.385121564471774,98.83250283208872 33.29515499166155,98.61363532811356 32.31482957753906,96.93547823769859 32.049066253246565,96.5179181931071 29.961221304820356,92.98614296226697 29.641684856545908,92.32099569483489 29.30663693020324,91.93432293922069 28.53416532224219,91.18797150930277 28.28287937748246,90.98920466507025 27.800989458730328,90.53215984174949 27.699647801993706,90.41045768617278 27.38941824056019,89.94391783337596 27.293247076519037,89.73836232761096 27.267394613070792,89.58419268233774 27.241542149611632,88.52251571350916 27.206382799318817,88.33315916603533 27.139166394339554,88.18843403196388 26.605571548683656,87.30245012642354 26.614878435524588,87.2821594183115 26.687265333195683,87.25239963205331 27.875444553468697,86.7884050460907 28.398698413751845,86.60442403041634 28.342857092688064,86.4867283606336 27.923013086223364,85.16356296051163 27.948865549675247,85.12703115142813 28.141207877764828,85.04584883340067 28.15465115875486,84.98631467760606 28.140173779222096,84.92542707377743 28.155685257293953,84.90242498509815 28.583802052067767,84.76170507107872 28.569324672535004,84.70352216910487 28.629302387744247,84.67916642631371 28.093639345006522,82.9916974721591 27.756523221589305,81.38107307243536 27.728602561059233,80.97228142947824 27.718261575682845,80.15193600666498 27.829944217795855,78.77640690668977 27.856830779783195,78.50560917846542 27.879580947621434,78.44603260604981 28.708927975178085,78.44603260604981 28.747189621088182,78.34448073895146 28.750291916701826,76.48385163902913 28.695484694184415,75.8256348534951 28.7213371576363,75.82021723546404 28.729609945945413,75.79448350611983 28.75546240939002,75.47212857073828 28.850599474899354,75.34209984473455 28.655154851199768,74.85312115954366 28.887827022270358,74.72308365922163 28.906440795959497,74.69734685209369 28.821644715833827,74.44132941772568 28.835087996831135,74.3437970869345 28.805099139222875,74.23678125298466 28.81337192753199,72.95791315375664 28.751326015244558,72.87933281542428 28.50417646463393,72.82649393345491 28.39456201959547,72.76552561440622 28.37491414737451,72.71404094042464 28.360436767841747,72.23982640332451 28.3242433190062,72.21814743830328 28.29425446140158,72.23034186243513 28.170162636830355,72.33602619226258 28.08743475378651,72.32654175087464 28.079161965477397,72.29673344264938 28.18257181928493,72.05826348837672 28.155685257293953,72.00541987500219 28.16706034121671,72.0 28.17843542513583,72.09078248369951 28.08846885231833,72.26150531709482 28.07812786694194,72.31841222187722 28.10501442892928,72.34415570564488 28.15982165145033,72.34415570564488 28.298390855554317,72.23982640332451 28.353198078071728,72.23847146951539 28.37388004883178,72.33196143286932 28.370777753221773,72.70726661970093 28.395596118134563,72.77771931063944 28.492801380718447,72.82920362711593 28.748223719630914,72.88475217072028 28.796826350921037,72.93623588630089 28.80406504068742,74.25303690312194 28.84025848951933,74.38172644992028 28.814406026067445,74.42913793309071 28.903338500342215,74.70682884206872 28.37491414737451,74.98315681651547 28.245651830111456,74.99941114402827 28.228072154965048,75.02108353591484 28.138105582151184,75.52766111084475 27.872342257855053,77.42640086366009 27.660352057540877,80.24805287518757 27.706886491760088,81.2660176622503 28.04296851664185,83.01876437641658 28.74201912839999,85.21903691135958 28.9333273579432,85.73181684353949 28.9333273579432,85.78593442810597 28.227038056422316,86.04975308863777 28.23737904180598,86.08898701168528 28.19084460758677,86.12551499635083 28.32114102338892,86.55436973438191 28.309765939473436,86.59630713606475 27.907501608151506,86.7234709905515 26.88477815396982,87.12524309616128 26.561105311542633,87.26186866540684 26.478377428491513,87.30515555078273 26.465968246036937,87.33085704251789 26.75758403378495,87.7988821629815 27.006801781462855,88.12756764069854 27.147439182648668,88.43460065870204 27.187769025636953,88.64694789232271 27.22086017885158,89.55308796681766 27.240508051076176,89.71537228136276 27.31703134289637,89.92633760798435 27.533157937359647,90.2725266292191 27.73997764498199,90.56190901256286 28.423516778660996,91.23394418125099 28.581733854996855,91.42459310338563 29.38833071471163,92.20337318535803 29.545513692504755,92.39265004953904 29.682014699534193,92.66303881336353 29.771981272348057,92.92936397564063 30.122540676762583,93.5376920235376 30.732658814242313,94.52850470301382 31.64783602046373,96.08682500381019 31.79881440702593,96.29088730626245 31.9590996804327,96.55170207257925 32.0583731400875,96.72737624682577 32.14110102313498,96.95304507352375 32.31482957753906,97.1692495380903 32.60954766089344,97.6570422071809 33.148312999252084,98.65011360676363 33.3199733565707,98.87168226831363 33.41614452061913,99.04055724052432 33.41097402793093,99.12161612698674 32.517512891005026,100.01862016164432 32.51544469392684,100.08751294255853 32.851526718815876,100.68050988286996 32.9042657442551,101.76779688185161 33.010777893679915,102.31071700088887 31.82570096901327,102.54975377323626 31.856723925160622,102.72531355374758 31.954963286279963,103.80425751198891 31.977713454114564,103.87987337695358 32.23727218717977,104.21068549022493 32.32413646437999,104.43482082573973 32.42961451526935,105.56486596032482 32.38101188397923,105.62831719376481 32.204181033961504,105.66611772094438 32.13696462898952,105.6998680606348 32.04492985909383,105.81326829674344 32.02321378979104,106.10891235193958 32.04803215471111,106.88780128805138 32.028384282482875,106.89320063503601 32.017009198563755,106.98363922688804 31.886712782765244,106.97419046028881 31.812257688023237,107.00523637131027 31.845348841241503,107.44526717156259 31.777098337726784,107.4574149632208 31.773996042109502,107.57349305404932 31.681961272221088,107.59103961504206 31.648870118999184,107.65177745289566 31.65507471023011,107.92711729936309 31.58165371402356,107.93791477285049 31.550630757879844,108.0" stroke="red" stroke-linecap="round" stroke-linejoin="round" stroke-width="0.5"><title>2022-03-12 72.0km</title><desc>1647067817000</desc></polyline><polyline fill="none" points="94.6454777320032,85.68178749693652 94.66666666667152,86.05512912617814 94.20404159309692,86.14731156306698 94.30645477731014,86.91702437651475 94.25701392977498,87.14747365475341 93.98508926820068,87.18895434573824 92.44889150481322,87.14747365475341 92.24759662547149,87.10138393403395 92.05689621347119,86.96772336244976 91.55542475965922,87.20739019084431 91.1493035118765,87.53923355722145 90.32646654895507,88.04160088808021 89.72258191092988,88.5762215383129 87.40592505395762,91.42891451406467 87.13753188151168,91.46117289247559 86.92917402392777,91.60403102829332 86.85148126349668,91.59020607573257 86.7773199921503,91.46117289247559 86.84088679615525,91.32753082394811 86.95389444772445,91.30448903067918 87.04924465371005,91.35978930619967 87.21169315282896,91.60863934446388 86.90445360017475,91.91739499207506 86.55130468904099,92.1846735562649 86.37826172258065,92.23997228636108 86.15224641947134,91.92661153206427 86.19462428879342,91.79757972702464 86.35707278791233,91.7883631492914 86.45595448304084,91.94504460390635 86.42063959193183,92.02799329373374 86.09574259367946,92.23997228636108 86.13458897390228,92.39204329350832 84.23464783206873,93.63162502713021 83.17166960958275,94.2122301781892 80.74906807925436,94.3182125030653 80.25465960368456,94.20762224292412 80.10280557190708,94.06938387174523 79.13164606632199,92.57176262808389 78.70080439474259,92.6639259916119 75.27525995684846,92.77912981678128 59.87090445362264,92.77912981678128 58.66666666667152,92.81138681231823" stroke="#4dd2ff" stroke-linecap="round" stroke-linejoin="round" stroke-width="0.5"><title>2022-02-27 10.6km</title><desc>1645954165000</desc></polyline><polyline fill="none" points="141.33333333332848,95.73924647911736 139.66350021395192,95.73522823758867 139.52486093281186,95.69504579011118 139.43551561831555,92.93035238915036 139.56491228070809,92.52848427599929 139.47248609327653,92.15876042355558 139.33692768507171,86.00534321027226 139.23217800600105,84.84765550195152 139.33076593923033,84.66274253162373 139.33076593923033,84.34115179345645 139.24142062471947,84.26075352088264 138.9148480958538,84.40547024217085 132.77466837826069,84.63460349227898 131.63166452715814,84.63058362716401 131.3975181857095,84.51400728301087 131.13256311509758,84.51802716518068 130.85836542576726,84.42958962161902 130.7166452717065,84.52606692775043 130.3407787761971,84.53812656719674 129.94642704320722,84.70696096382198 126.19700470688986,84.8516753353233 123.94180573384801,84.8717744933183 123.59366709455207,84.81951665194902 122.25348737697641,84.89187363661586 117.7831407787744,84.8717744933183 112.99238339750445,85.06070585991256 112.24681215232704,85.28179410768098 110.51844244757376,86.13397216754493 108.96876337184221,86.78514702541543 108.5035515618365,87.14690416881058 107.43448866067047,87.79001622257056 106.83371844244539,88.04323746468981 106.0480958493572,88.22812769171833 105.89713307657803,87.80609383110095 105.62909713307454,87.74580275058361 105.33333333332848,87.76589979212076" stroke="#4dd2ff" stroke-linecap="round" stroke-linejoin="round" stroke-width="0.5"><title>2022-01-01 13.7km</title><desc>1641042278000</desc></polyline><polyline fill="none" points="152.89478937911917,76.06618819522191 152.15811539230344,76.04742657552197 152.0,76.26318453873319 152.16530245557078,78.58014586564968 152.1042124176456,79.06321588410356 152.3485725693754,81.84424433861204 152.33419844279706,82.48201785390484 152.54621680974378,83.57933375503126 153.54521860650857,86.67412491113282 153.92972649232252,88.13232444380628 154.0590936314693,88.02917424559564 154.64124575762253,87.96353303753494 157.2178079456935,87.81349548579965 160.1141944499832,87.75723122284398 160.76462367738714,87.63063627008523 161.71690956277598,87.73847644657508 170.63605510081106,87.67752334792021 171.48412856856885,87.7244103571793 171.76083050508169,90.81880134537641 171.83629466959974,92.45964507525423 171.99800359352957,93.22846867283442 171.9692553403729,94.1847844927106 172.0519065681583,95.95670606649583 172.1668995807413,96.71607105341536 173.27011379516625,96.61294846843157 174.62487522458832,96.63169805400685 175.03813136352983,96.90356581286323 174.73268117387488,99.9220805487821 175.07047314832744,103.7885516237875 175.08125374325027,103.84478776422839 175.18546616091044,103.84010142296029 175.23218207227183,103.95257342447803 179.68816130961932,103.73700174177793 180.72669195447816,103.7885516237875 184.42443601516425,103.75106080873229 185.49171491315064,103.82604239503416 185.34797364741098,100.43295011760347 185.54202435615298,100.32046577355868 186.3541625074722,100.25953658914295 188.0,100.24078912449113" stroke="#4dd2ff" stroke-linecap="round" stroke-linejoin="round" stroke-width="0.5"><title>2022-01-01 15.8km</title><desc>1641030436000</desc></polyline><polyline fill="none" points="29.014890152961016,116.74730764504056 25.226006125099957,112.0 21.89178817998618,112.59341436717659 20.073123845271766,120.10997380304616 23.862007874064147,146.41760256967973 30.833554486744106,145.82420305570122 37.956656460650265,139.89019358169753 36.59265821054578,120.50558103621006 30.98510984890163,115.95609086274635 25.074450762942433,119.71436645404901 24.468229319900274,142.2638004986802 29.46955623663962,147.40660118078813 36.137992126867175,146.81320210115518 38.56287790462375,143.84620279294904 38.259767182171345,123.86823784187436 33.4099956266582,117.73632797191385 29.46955623663962,117.3407199283829 24.31667395774275,122.28581215220038 25.074450762942433,142.0660000812495 26.590004375204444,145.62640315957833 33.4099956266582,147.60440081648994 39.77532079350203,138.3077866550302 37.50199037697166,120.90118815365713 31.59133129194379,116.94511176866945 25.226006125099957,120.10997380304616 23.862007874064147,123.86823784187436 25.529116846621037,143.84620279294904 34.470883154310286,147.40660118078813 39.623765433207154,140.6813963506138 36.89576893299818,121.49459861230571 30.833554486744106,117.53852396458387 27.499336541630328,118.7253475751495 23.862007874064147,126.04407013882883 24.619784680195153,141.67039916000795 26.13533829152584,145.03300329798367 33.25844026450068,147.80220042273868 36.44110284931958,146.81320210115518 39.926876155659556,139.49459202424623 37.65354573819786,121.09899166878313 31.43977593164891,116.94511176866945 23.71045251376927,124.2638439743314 25.074450762942433,142.85720157588366 30.075777681544423,147.80220042273868 37.19887965451926,146.02200292248745 39.169099350459874,142.65940124553163 38.411322543397546,123.47263159265276 34.016217071563005,117.3407199283829 30.075777681544423,116.94511176866945 24.468229319900274,121.69240204058588 24.771340041421354,142.85720157588366 30.98510984890163,147.60440081648994 34.77399387676269,147.20880151668098 39.623765433207154,141.47259865584783 38.411322543397546,123.07702522794716 34.319327793084085,117.3407199283829 30.2273330418393,116.74730764504056 24.771340041421354,121.09899166878313 24.922895402647555,140.08799431740772 29.014890152961016,146.61540234985296 36.44110284931958,146.21980276098475 38.71443326678127,143.4506023930153 37.956656460650265,123.86823784187436 33.71310634817928,117.53852396458387 29.924222320318222,117.14291586261243 24.619784680195153,121.69240204058588 25.226006125099957,143.05500187759753 31.28822057042271,147.20880151668098 35.22865996044129,146.61540234985296 39.47221007198095,141.07699756138027 39.01754398830235,125.4506616781 38.259767182171345,121.49459861230571 32.349108098074794,116.74730764504056 25.68067220877856,119.12095521320589 23.558897152543068,126.04407013882883 25.98378293029964,143.84620279294904 35.83488140441477,146.81320210115518 39.926876155659556,140.4835957022151 37.50199037697166,120.90118815365713 28.711779431439936,117.14291586261243 23.558897152543068,124.85725295601878 26.893115097656846,145.03300329798367 33.56155098695308,147.80220042273868 37.19887965451926,146.41760256967973 39.926876155659556,138.90118946961593 36.59265821054578,119.91217014333233 28.257113347761333,117.73632797191385 23.71045251376927,123.86823784187436 25.98378293029964,143.64840260753408 35.53177068196237,147.20880151668098 39.623765433207154,141.27479812304955 36.74421357177198,119.31875898933504 29.46955623663962,117.14291586261243 23.862007874064147,126.04407013882883 26.438449013978243,144.24180307704955 32.9553295429796,147.20880151668098 39.926876155659556,139.89019358169753 38.56287790462375,123.47263159265276 37.04732429329306,119.91217014333233 30.075777681544423,117.14291586261243 24.468229319900274,122.28581215220038 25.074450762942433,142.85720157588366 33.4099956266582,147.60440081648994 37.19887965451926,145.82420305570122 39.926876155659556,138.90118946961593 38.411322543397546,122.48361546429805 29.924222320318222,117.14291586261243 23.558897152543068,124.46164699771907 26.438449013978243,144.83520328637678 34.77399387676269,147.60440081648994 39.926876155659556,141.67039916000795 38.259767182171345,122.68141874833964 36.289547487162054,118.92315140855499 30.530443764291704,117.14291586261243 24.16511859651655,121.69240204058588 25.68067220877856,143.64840260753408 32.349108098074794,148.0 39.32065471075475,142.65940124553163 37.65354573819786,120.90118815365713 31.28822057042271,116.94511176866945 23.862007874064147,124.46164699771907 25.226006125099957,139.692392817582 26.286893652752042,143.64840260753408 32.8037741817534,147.40660118078813 38.259767182171345,142.65940124553163 37.805101099424064,121.69240204058588 31.89444201439619,117.14291586261243 27.80244726408273,117.53852396458387 23.71045251376927,123.47263159265276 25.074450762942433,141.27479812304955 31.28822057042271,147.40660118078813 38.86598862707615,142.85720157588366 38.71443326678127,123.67043473175727 32.197552737779915,116.74730764504056 28.560224069282413,117.3407199283829 23.71045251376927,123.2748284250265 24.922895402647555,142.2638004986802 26.893115097656846,145.4286032343516 34.319327793084085,147.40660118078813 39.01754398830235,141.86819963541348 37.35043501574546,121.49459861230571 31.43977593164891,117.3407199283829 27.80244726408273,118.13193589972798 23.558897152543068,124.2638439743314 25.68067220877856,143.64840260753408 35.38021532166749,147.01100182347 39.32065471075475,140.6813963506138 38.259767182171345,124.65944999130443 34.62243851553649,118.92315140855499 30.681999125517905,117.93413195060566 27.044670458883047,119.12095521320589 23.407341791316867,125.8462673475733 24.922895402647555,142.85720157588366 30.2273330418393,147.80220042273868 36.74421357177198,144.63740324566606 37.50199037697166,122.48361546429805 35.38021532166749,119.12095521320589 28.257113347761333,117.93413195060566 23.862007874064147,123.67043473175727 25.68067220877856,142.2638004986802 27.347781180404127,145.4286032343516 33.25844026450068,147.20880151668098 39.01754398830235,140.87919697037432 37.65354573819786,121.49459861230571 31.742886654101312,116.94511176866945 24.31667395774275,122.48361546429805 25.68067220877856,142.0660000812495 31.28822057042271,147.20880151668098 39.623765433207154,142.0660000812495 38.411322543397546,122.68141874833964 33.56155098695308,117.3407199283829 26.286893652752042,119.31875898933504 24.16511859651655,122.68141874833964 24.922895402647555,141.27479812304955 29.7726669581607,147.01100182347 33.56155098695308,147.40660118078813 39.32065471075475,142.65940124553163 37.956656460650265,121.89020544022787 32.652218820527196,117.3407199283829 28.560224069282413,117.93413195060566 24.01356323529035,123.67043473175727 25.529116846621037,143.2528021497419 27.80244726408273,146.21980276098475 34.77399387676269,147.40660118078813 39.169099350459874,141.67039916000795 38.108211821876466,123.07702522794716 30.530443764291704,118.13193589972798 23.255786430090666,126.04407013882883" stroke="#4dd2ff" stroke-linecap="round" stroke-linejoin="round" stroke-width="0.5"><title>2021-10-20 11.0km</title><desc>1634723987000</desc></polyline><polyline fill="none" points="74.30987970344722,146.17723520111758 81.99125943146646,145.94938945106696 85.65737248305231,140.93677451403346 85.30821885820478,128.40516654984094 81.29295218270272,113.8228048211895 72.21495796088129,113.59495433559641 69.07257534563541,117.24055810901336 72.04038114845753,144.12662225053646 80.42006812337786,145.94938945106696 85.83194929454476,139.7975415949477 82.51498986780643,116.55700805177912 74.1353028928861,113.59495433559641 68.54884490929544,118.37980753672309 68.19969128537923,122.7089477594709 72.04038114845753,143.89877620048355 75.7064942009747,146.63292660063598 83.3878739271313,145.26585200126283 85.83194929454476,136.60768498678226 83.56245073955506,116.78485810407437 76.05564782395959,112.91140267706942 70.64376665279269,114.50635607889853 68.19969128537923,118.37980753672309 68.54884490929544,133.18997422466055 73.43699564412236,145.72154366760515 78.15056956745684,146.40508091752417 84.9590652352199,140.93677451403346 83.3878739271313,116.55700805177912 75.35734057612717,112.45570140506607 68.54884490929544,118.37980753672309 70.46918984036893,142.30385291588027 78.49972319137305,145.72154366760515 85.65737248305231,137.51907325687353 83.91160436253995,118.6076573219616 77.27768550813198,112.45570140506607 68.19969128537923,117.4684080608422 69.4217289686203,141.1646209973842 75.88107101153582,146.86077225080226 80.07091449946165,146.40508091752417 85.13364204764366,139.34184819436632 84.26075798645616,118.15195771830622 75.1827637637034,112.91140267706942 68.54884490929544,117.24055810901336 67.50138403754681,121.79755081818439 70.81834346428514,143.67093011725228 78.84887681528926,146.86077225080226 85.48279567062855,140.02538824558724 83.21329711470753,116.55700805177912 71.69122752454132,114.27850569342263 67.8505376605317,121.56970149942208 69.77088259346783,142.7595454492839 77.10310869663954,147.0886178672081 85.65737248305231,139.5696949113626 83.91160436253995,116.78485810407437 76.57937826029956,112.45570140506607 68.19969128537923,119.97475533524994 69.4217289686203,142.07600659877062 77.10310869663954,147.0886178672081 84.60991161130369,142.5316991993459 85.83194929454476,137.97476719075348 83.56245073955506,115.87345769419335 75.35734057612717,112.91140267706942 68.89799853321165,118.6076573219616 68.19969128537923,123.16464602923952 69.77088259346783,142.9873916663928 80.59464493580163,147.3164634500863 85.83194929454476,140.25323486304842 83.03872030321509,116.32915796595626 75.35734057612717,112.91140267706942 67.8505376605317,120.43045440607239 69.77088259346783,142.7595454492839 76.753955071792,147.54430900025181 85.65737248305231,140.02538824558724 84.26075798645616,119.51905613159761 82.51498986780643,115.87345769419335 75.00818695221096,114.27850569342263 68.19969128537923,119.29120647907257 69.77088259346783,143.2152378502069 79.37260725162923,147.0886178672081 86.00652610696852,137.74692024069373 83.56245073955506,117.01270812295843 73.26241883262992,113.8228048211895 67.8505376605317,121.79755081818439 69.94545940496027,144.35446826706175 79.72176087554544,146.17723520111758 84.9590652352199,139.34184819436632 83.56245073955506,116.55700805177912 76.05564782395959,112.0 67.8505376605317,118.83550707460381 68.89799853321165,139.7975415949477 70.46918984036893,143.67093011725228 78.15056956745684,147.0886178672081 82.34041305538267,145.26585200126283 86.00652610696852,137.51907325687353 83.3878739271313,115.4177572891349 75.88107101153582,112.22785071912222 67.8505376605317,121.34185214771423 68.19969128537923,140.93677451403346 73.7861492689699,145.49369785096496 77.80141594447196,144.35446826706175 84.26075798645616,138.20261410810053 83.56245073955506,116.32915796595626 76.23022463638335,112.22785071912222 68.19969128537923,120.20260488777421 70.12003621738404,143.89877620048355 77.45226231962442,147.3164634500863 86.18110291939229,138.88615465990733 84.43533479887992,117.01270812295843 77.27768550813198,112.0 72.73868839628994,113.13925326347817 67.1522304136306,122.25324935559183 68.7234217217192,141.84816024871543 77.80141594447196,147.0886178672081 84.60991161130369,139.5696949113626 83.7370275510475,116.55700805177912 76.05564782395959,112.45570140506607 71.51665071304888,113.8228048211895 67.67596084903926,121.56970149942208 70.12003621738404,142.9873916663928 73.08784202113748,145.94938945106696 81.8166826190427,145.26585200126283 84.60991161130369,137.74692024069373 82.51498986780643,115.4177572891349 74.30987970344722,113.8228048211895 68.54884490929544,125.44313538016286 69.94545940496027,142.9873916663928 73.08784202113748,146.40508091752417 81.8166826190427,146.63292660063598 85.48279567062855,139.34184819436632 83.7370275510475,116.78485810407437 76.92853188421577,112.45570140506607 68.54884490929544,120.43045440607239 69.24715215712786,140.70892799738795 71.16749708913267,144.58231425075792 79.37260725162923,145.94938945106696 84.9590652352199,140.25323486304842 83.21329711470753,117.4684080608422 80.42006812337786,114.05065527372062 72.73868839628994,114.50635607889853 68.19969128537923,123.39249511482194 69.59630578104407,142.9873916663928 80.76922174729407,146.63292660063598 85.13364204764366,140.70892799738795 83.21329711470753,117.69625798030756 76.05564782395959,112.45570140506607 71.69122752454132,113.59495433559641 67.32680722512305,123.84819318517111 70.81834346428514,144.8101602010429 82.1658362429589,146.40508091752417 85.83194929454476,138.43046099238563 83.3878739271313,116.55700805177912 76.4048014478758,112.6835520581808 69.4217289686203,117.69625798030756 68.7234217217192,122.48109857388772 70.46918984036893,142.9873916663928 76.4048014478758,148.0 83.56245073955506,146.40508091752417 85.83194929454476,138.20261410810053 81.29295218270272,114.73420643177815 72.91326520871371,113.36710381647572 68.19969128537923,120.43045440607239 69.94545940496027,141.84816024871543 76.05564782395959,147.54430900025181 80.42006812337786,147.0886178672081 83.7370275510475,141.1646209973842 81.8166826190427,116.55700805177912 79.19803044013679,113.59495433559641 71.34207390062511,114.05065527372062 68.02511447295547,126.81022738968022 71.69122752454132,145.49369785096496 80.2454913109541,147.3164634500863 84.08618117496371,144.8101602010429 83.91160436253995,119.51905613159761 78.49972319137305,113.13925326347817 70.29461302887648,115.87345769419335 68.02511447295547,119.74690575024579 68.7234217217192,138.20261410810053 72.38953477330506,146.17723520111758 81.11837537121028,146.86077225080226 84.43533479887992,144.12662225053646 83.91160436253995,118.37980753672309 80.94379855971783,113.59495433559641 75.88107101153582,112.22785071912222 69.07257534563541,116.32915796595626" stroke="#4dd2ff" stroke-linecap="round" stroke-linejoin="round" stroke-width="0.5"><title>2021-10-15 10.8km</title><desc>1634303852000</desc></polyline><polyline fill="none" points="135.19577048998326,118.8644340969986 134.98400428070454,116.76372035732129 134.69459046132397,112.06450152356047 134.5534129884618,112.0 134.48988312570145,113.0873025600813 135.2804769736831,123.53550675279621 135.18165274269995,124.89898922085922 131.20750688185217,125.19379235738597 128.05219036352355,125.07402874970285 126.5768857721996,125.24906779175944 125.65923219860997,125.10166652555927 123.88745491430745,125.19379235738597 123.33686277020024,124.81607558996257 123.21686191827757,124.85292610605757 120.16036963096121,126.7046367604562 118.9180078697973,127.72719989332472 113.94856082531624,133.76090540836594 113.56738164860872,133.7701167303676 112.98149513627868,134.07408960082103 112.74855230606045,133.76090540836594 112.88972977892263,133.5029878446876 113.1791435982741,133.49377648356676 113.58149939589202,134.01882191536788 113.55326390132541,134.2030473448649 113.09443711457425,134.59913019274973 112.04266494177864,135.3452329750471 111.60501477596699,134.91231021523345 111.47795505035901,134.58070778994443 111.59795590228168,134.41490592232367 111.81678098524571,134.4056946946439 112.05678268909105,134.69124212579845 112.00031169992872,134.8938879040943 111.38618969300296,135.3728662416288 111.68266238601063,135.95316203781113 111.88736972166225,136.13738180693326 112.98855400990578,135.73209760328973 113.3556154393591,136.275546280016 113.30620332382387,136.45055417732874 113.06620161997853,136.34002293036974 112.6709046960168,135.66762033035047 112.69914019055432,135.49261025661326 113.94150195168913,134.5346517594262 114.37915211752988,134.99521054863726 114.35091662296327,135.31759969634368 114.04738505629939,135.3912884126039 113.82150109976646,135.04126624224227 114.2309157710115,134.5714965865409 114.35797549661947,134.11093469750995 115.4450420376088,132.959515233415 118.40976896754,129.03531950261095 119.14389182638843,128.24308129558267 120.52743106035632,127.34028606699212 121.97450015714276,126.8336096026178 122.71568188961828,126.98100681290816 123.55568785310606,127.55216774269866 124.04275013448205,128.46417203081 124.18392760731513,129.5051304737135 124.56510678399354,135.07811077287988 124.44510593207087,135.2254886797382 121.28978941377136,135.4373438164621 121.42390801300644,139.74798046473734 123.25921516009839,147.7973963986733 123.21686191827757,147.98158151773896 122.89215373070328,148.0" stroke="#4dd2ff" stroke-linecap="round" stroke-linejoin="round" stroke-width="0.5"><title>2021-07-17 11.8km</title><desc>1626518053000</desc></polyline><polyline fill="none" points="188.0,115.70833196951935 187.29330254040542,115.88659700582139 184.66248762785108,115.94860209519175 184.42494226328563,116.09586389142714 184.37743319038418,116.522145729763 183.96172880235827,116.60740168562188 181.13493896403816,116.56864899543143 180.5945232596423,116.24312527810616 178.11217419995228,117.73896773474553 176.3780930385983,119.26576853162624 174.59056417024112,121.62176054584415 172.8089739359857,123.72966456214635 172.3576377433492,123.78391098466454 171.98944242825382,124.0163950232818 171.78159023425542,123.73741405449255 171.9003629165236,123.48942973739031 172.15572418342344,123.50492879122612 172.46453315738472,123.93890045714215 172.33982184095657,124.21013094259251 171.24117452985956,125.05481127020175 171.05113823822467,125.00056614935602 170.73639063016162,124.59760065520823 170.81953150776098,124.30312393214626 171.0273837017303,124.30312393214626 171.193665456929,124.60535002055985 171.06895414055907,124.80683312138717 170.65324975256226,125.07030986597601 170.61167931376258,125.43452556055854 166.15770372815314,128.20868206616433 164.9284064665262,128.49538828124423 161.5493236555485,128.59612252896113 160.7535466842528,128.38690503102043 160.47443088088767,128.0847005195501 153.7281425272231,117.6459632180995 153.05707687232643,116.39813682164458 152.08314087759936,113.70087121488177 152.0,113.77838076468834 152.72451336189988,116.03385897450426 153.24117452985956,117.22744087169849 160.42692180798622,128.2939192111371 160.77730122074718,128.60387130932213 161.16331243814784,128.75109792059084 165.42725173209328,128.75109792059084 165.88452655888977,128.85958042495622 166.0864401187864,129.1152883061659 165.90828109535505,131.04468070565417 166.67436489608372,140.07857133100333 166.38337182448595,142.85196112695485 165.7479379742581,146.26814400713192 166.69218079841812,146.29912878512187 166.73968987131957,144.30057350443167 167.1138238205167,140.26450144352202 167.10788518641493,138.91649334544127 168.83602771360893,138.71506390281866 174.15110524577904,138.43616033346552 175.76047509073396,138.21148694600197 176.14054767403286,138.0255496289683 181.06367535464233,136.90216445798433" stroke="#4dd2ff" stroke-linecap="round" stroke-linejoin="round" stroke-width="0.5"><title>2021-07-13 17.2km</title><desc>1626169012000</desc></polyline><polyline fill="none" points="12.408672530174954,173.47102957450625 12.265084884449607,172.23561957049606 12.0920433626452,171.6010718354919 12.0,170.54346500247266 12.460216813269653,170.37520622632655 14.345264880364994,169.91849948367235 14.672939251395292,169.70216249160148 16.112497443231405,169.21179336097703 19.7979136837821,167.7550653582548 23.62323583556281,166.93292297699736 24.212313356503728,166.913691329617 24.403763550828444,167.25985925733403 24.425853957858635,167.65890941870384 24.164450807933463,168.30795654069516 24.234403763563023,168.57718713396753 24.458989568418474,168.8464155175243 24.698302311328007,168.88487653480843 24.974432399278157,168.66372506964763 25.618735937823658,168.57718713396753 26.200449989773915,168.6012254723355 26.388218449574197,168.54834110466618 26.439762732668896,168.4137259658637 26.182041317253606,167.9329531033436 25.975864184903912,167.77429651232887 24.764573532433133,167.2454356666094 24.24913070157345,166.45212840960812 24.296993250158266,166.37039263227052 26.91838821845886,165.90401400590054 29.160564532634453,165.6395695706342 34.3591736551607,164.34616516165988 39.11965637144749,163.9663080805076 40.34935569646768,163.57202139348374 40.83902638575819,163.30755815469092 41.711597463698126,162.62475229529082 44.587032112904126,160.18673086364652 44.73430149315391,159.99437431807746 45.27919820003444,158.7680748128223 45.97872775619908,157.57539443784844 46.31376559624914,157.1233187634134 46.27694825117942,157.0463690916513 46.62671302925446,156.8636128973958 46.69666598486947,156.902087970313 46.634076498259674,157.8110484349454 46.76661894048448,157.79662068788093 47.00593168337946,158.1236480624575 47.46983023111534,159.22493685152585 47.86745755778975,160.26367316592223 48.0,161.3408464419772 47.94845571691985,161.42259475497485 47.63550828389998,161.50434286420204 47.00961341787479,161.50915157015697 46.33217426876945,161.39374243248312 45.52587441194919,167.42332617552165 45.40437717323948,168.7358398416727 45.15770096135384,170.1252201653515 45.10247494374926,176.78285257575044 45.31233381059428,176.72517491909457 45.42278584577434,176.80688490278044 46.99120474533993,176.4752372354087 47.970546123964596,176.34065461720456 47.54714665575011,176.28297618329816 46.00081816321472,176.6194322852607 45.67682552667975,176.60981930165144 45.352832890159334,176.72036844314061 45.32337901410938,176.86456241581982 45.150337492334074,176.97030425976118 45.04724892615923,180.08953538265268 44.25199427285406,180.0991473469985 43.18429126612318,180.30099794827402 37.7058703211369,180.46920583436076 37.643280834527104,180.59415970593545 37.4297402331722,180.61818924209365 37.47392104726168,182.0695406040577 37.367150746576954,182.146431601308 35.117610963396146,182.24735076186698 34.68684802620555,182.19929405745643 33.55287379832589,182.30501871430897 33.42769482512085,182.21851674766367 33.302515851915814,181.98784372207228 33.02270402945578,182.12720886887837 32.98588668438606,182.0887633702514 33.06320310902083,182.29060173569815 32.76866434853582,182.31943568657516 20.121906320331618,182.84805363051782 17.72509715690103,182.88169266610203 12.342401309069828,183.1363871026042 12.242994477404864,182.55971762557238" stroke="#ffbc00" stroke-linecap="round" stroke-linejoin="round" stroke-width="0.5"><title>2021-07-06 26.8km</title><desc>1625562864000</desc></polyline><polyline fill="none" points="81.49820625442953,155.6660532341739 80.22252702730475,155.1024544175234 79.89405872332281,154.64857601833864 79.70690817803552,154.25454480642657 82.51416635749047,153.71087399747194 84.77906989546318,153.4564929293956 88.26236167731986,152.61353030677856 89.89324500062503,152.12969025528946 89.82067642184848,152.0 89.5380409044592,152.04489283661678 87.97972615993058,152.49880596842922 88.22034828958567,153.76075241526632 88.27381987398257,154.6435883099948 88.51444200363767,155.76081672025975 88.80089691991452,162.79751511831273 88.83909090874658,162.84738022024612 89.01096385849814,162.8025016317879 88.92311768418585,161.92985065029643 89.41582014015876,161.93483729088257 89.40818134241272,162.5581616121235 89.4501947301178,162.0096368121558 89.591512488827,161.92985065029643 90.08039554592688,161.95977048291024 90.07657614702475,161.74534443470475 89.62588707877148,161.86003760525637 89.35089035915735,161.83510434017808 89.2630441848305,161.740357766339 89.01096385849814,161.740357766339 89.06443544286594,161.87001090617923 88.93457588083402,161.88497085206473 89.030060852936,163.03686694140924 88.85054910539475,163.09670463421207 88.88110429646622,163.8197351076342 89.1637398138555,166.73164719574925 89.30505757255014,167.04077392298132 90.78698433938553,166.95601364803952 90.95885728915164,167.0258162427308 90.8442753226409,170.62045641432633 90.95121849139105,172.57964972608897 90.03074336041755,172.60457512345965 89.5380409044592,171.14890133583685 89.25922478592838,171.29845973028569 89.5380409044592,171.84683488991868 89.67935866313928,172.36529055553183 89.67171986536414,172.84884305221567 89.51894391002133,173.22271914161684 89.61824828099634,173.46698263637518 90.00018816936063,173.77604822083958 90.13768652918225,174.19477776397616 91.04288406457636,178.41667966777095 91.13073023891775,179.35868553843466 91.42100455408217,179.3537014489484 91.52412832391565,179.5331282111474 93.30396820370515,179.33874917610592 93.7852124630299,179.4434149481931 93.85396164291888,179.50820788403144 93.86160044069402,179.7873145063786 93.80812885631167,180.4751032068525 93.81194825521379,179.5181760170708 93.33834279364964,179.48827160921428 93.07098487178155,179.35868553843466 92.69668378117785,179.473319395438 92.71960017448873,179.3437332677786 92.52099143255327,179.74245823916863 92.54008842697658,179.85709080462038 92.5171720336657,179.73249017177295 92.70814197784057,178.85030465378077 93.1779280405317,175.4758587989054 93.26959361374611,175.53567463461877 92.67376738789608,181.1728456690944 92.81508514657617,181.14294271383915 92.85327913542278,180.10629070299183 93.47202175455459,179.4483990245717 93.62097831100982,179.6676976625531 93.73556027753511,179.68763383236364 93.77375426636718,179.32878099055233 93.9036138284282,179.1991943130124 93.93416901948513,179.25900361005915 93.86923923846916,180.23088996850493 93.77375426636718,180.29568140646006 93.8501422440313,180.02654693386285 93.83486464851012,179.61785718698957 93.84632284517284,180.26079372441018 93.72792147977452,180.49005498089173 93.84632284517284,181.10805589953088 93.83486464851012,183.54506314636092 92.00537258325494,183.56001357301284 91.58141930718557,183.40054201694147 91.18420182328555,183.42047600228398 90.93212149696774,183.28093786002137 90.67622177176236,183.43542648361836 90.33247587224469,183.42047600228398 89.86268980955356,183.64473253355754 89.61824828099634,183.66964983479193 85.1571903849399,183.81416982262454 82.45305597533297,183.84407043320607 81.97945051376882,183.78925262705525 80.37912238153513,183.86400415902244 75.35279345070012,183.8689875886521 75.32605765851622,183.67961675020342 74.96703416344826,183.52512923390896 74.74550902818737,183.33575648405895 74.47433170747536,183.33575648405895 73.92051886934496,183.5649970471204 73.43163581224508,183.88892129988017 73.1490002948558,183.93377210752806 68.5542634378653,184.09822456370966 67.73691207676893,184.4271270946083 65.20847001581569,185.66297489101999 63.77619543446053,186.19118648421863 63.17273041083536,186.70444084837072 61.85121839711792,187.48676515108673 61.35469654224289,187.71099491950372 60.25089026489877,188.0 60.14394709614862,187.98006869384335 60.010268135214574,187.35222658175553 59.39916431384336,187.3671753379058" stroke="#ffbf00" stroke-linecap="round" stroke-linejoin="round" stroke-width="0.5"><title>2021-06-22 26.1km</title><desc>1624363393000</desc></polyline><polyline fill="none" points="132.1995251707849,160.87385477240605 130.36536653430085,163.05364174762872 129.96578197422787,163.07928581623128 129.49414118196,163.3613698277586 129.23866908616037,163.1818619780206 129.23211851960514,162.95961339984933 129.57929854726535,162.83139268166633 129.99853480700403,163.37846578466633 129.15351172091323,164.1819701168497 128.67532036211924,164.540979118854 128.4591516656801,164.540979118854 128.0530165390228,164.04520420246263 128.11852220460423,163.7289317990908 128.43294939943007,163.7374797243865 128.58361243028776,164.01956055785558 128.00061200658092,164.5067878803966 127.98096030685701,164.87434264534386 123.1073387870565,167.96854922733837 122.06579870419228,168.27625142083707 118.12890820231405,168.4301019099039 117.25113228344708,168.31898770843327 116.61572732721106,167.64375070947062 109.16773314977763,156.11223326572872 108.5847327260417,155.0008474200149 107.66765340778511,152.47877801676077 107.45148471137509,152.0 107.38597904573544,152.09404599162372 107.92967607013998,153.85524295297728 108.76159802314942,155.86431056345464 116.71398582562688,168.14804237047792 117.10046925258939,168.44719638368406 117.55245834516245,168.60959363511938 122.28851796721574,168.55831034134098 122.71430479350965,168.67797129018072 122.96322632278316,168.96857543139777 122.75360819287016,170.74635753401526 122.77325989256497,171.6865088951963 123.55277731304523,181.29227961903962 123.27765351757989,184.10363447613054 123.04183312150417,185.5733467163409 122.64224856137298,187.06865554652904 122.58984402893111,187.9914556229196 123.50692334715859,188.0 123.61828297865577,187.87183421260488 123.64448524490581,185.821143395322 124.03751923845266,181.471731841757 124.05717093811836,179.82245972297824 126.69704926133272,179.54045516766564 131.40690661719418,179.23281228265841 131.89819910909864,179.29263185935633 138.89420419398812,177.76294059045904 139.28068762095063,177.66039002301113 139.1038223238429,176.74597284049378 138.88110306081944,176.3699466698854 138.32430490333354,176.30157801529276" stroke="#4dd2ff" stroke-linecap="round" stroke-linejoin="round" stroke-width="0.5"><title>2021-06-18 14.9km</title><desc>1624019954000</desc></polyline><polyline fill="none" points="180.24863652850036,152.05308703836272 180.1198507520312,152.0 180.07918155944208,152.13271750841886 180.7570014356752,161.41337235892206 180.66888485176605,162.51032412025597 176.96798832758213,162.7403276097648 174.05336285979138,162.68724995911543 172.90784726900165,162.84648277125598 169.63397726684343,162.87302153247583 169.8102104346617,164.35032752862026 169.52552608662518,165.0845440221201 169.82376683218172,165.57991396693978 170.08133838512003,166.87139509011467 170.4473611183057,172.36430447518433 170.25079335420742,172.51466695658746 167.45817546415492,172.68271869908494 167.34294608520577,172.80654599988338 167.4378408678749,176.74235305229377 168.63080385001376,182.10171425083172 168.53590906734462,182.20783541877609 166.41433285476523,182.64116158817342 166.21776509066694,182.8622451721276 167.16671291735838,184.82543193911624 167.55984844558407,184.94923437356192 168.79348062031204,184.58666938545866 169.16628155225771,184.74584452595082 167.78352900472237,184.96692041493588 167.26838589881663,184.83427497856246 167.02437074336922,184.59551245980765 166.27199068077607,182.8357151847449 166.38044186096522,182.71190842300712 168.63758204877377,182.172461716822 169.46452229775605,185.78047272643744 168.61046925373375,186.08113059336756 163.49292918824358,187.25721906545368 162.0288382555882,187.49597107508816 159.6225776950305,187.61976804231745 159.40567533462308,187.51365637166964 159.2429985642957,185.83353010570136 159.34467154575395,185.73625820816233 160.5037435340928,185.63898615415383 161.96105626792996,185.76278692302003 162.4829775726539,185.60361445935632 165.39082484165556,185.60361445935632 166.18387409683783,187.49597107508816 166.23132148821605,187.84083342492158 166.03475372408866,188.0 165.81107316495036,187.88504640447718 165.58739260578295,187.00962339321268 169.50519149034517,186.14303055688652 169.61364267053432,185.65667199379095 169.376405713876,184.7635306268421 167.67507782456232,184.8608040891122 167.2209385074966,184.75468757706767 166.27199068077607,182.7649684947719 166.40077645724523,183.34862621144202 167.04470533964923,184.63972781219127" stroke="#4dd2ff" stroke-linecap="round" stroke-linejoin="round" stroke-width="0.5"><title>2021-05-14 12.6km</title><desc>1620998747000</desc></polyline><polyline fill="none" points="12.0,219.29703387610425 13.822365393469227,219.27543472267644 13.868752876209328,219.184718106093 13.815738610224798,218.20841691406895 13.868752876209328,217.79801520256115 16.234514496085467,217.7332144119191 18.24905660377408,218.17817698224098 22.36428900138708,218.23865681499046 23.18601012424915,217.84985573288577 24.02761159685906,217.5820120151293 27.142199723864906,217.2752847792799 28.04344224574743,217.00311569595942 28.891670501601766,216.97719470030097 29.355545329031884,216.8648701233069 30.084491486428306,216.9642341939434 30.67427519557532,216.92535264082835 30.906212609290378,216.86054993874677 32.03939254487341,216.0872267397899 32.25144960884063,216.00946127716816 32.64242982052383,216.0224222017987 33.31836171193572,216.39396629345356 33.566866083754576,216.46309026079507 34.67685227796028,216.48037122739697 35.591348366317106,216.0872267397899 35.87961343763163,216.07858614293218 35.83653934652102,213.65479907589543 35.87961343763163,212.7733727183131 37.07574781408766,212.78633506093138 37.31762540266209,212.73016486859706 39.71652093878947,212.93324121349178 41.70455591348582,213.01533551035754 42.20819144041161,213.06286368335714 43.04316612977709,213.28754128553555 43.32811780947668,213.29186199192554 43.2287160607375,211.77093435021925 43.02991256327368,210.41413175701564 42.93713759777893,207.86023573682724 43.04647952139203,206.48596691131752 43.248596410485334,205.43145318513598 43.3214910262177,203.42604462876625 43.50704095720721,201.75764851153326 43.48384721581533,201.05309026911164 44.92185918086034,200.81535210390393 46.2472158306482,200.84128726938798 48.0,200.70296612389575" stroke="#4dd2ff" stroke-linecap="round" stroke-linejoin="round" stroke-width="0.5"><title>2021-04-03 14.8km</title><desc>1617446473000</desc></polyline><polyline fill="none" points="94.55750960177102,200.47651852043964 94.66666666667152,200.85746139039475 94.6230038407084,200.92154465197564 92.35799474429223,201.45556527216468 91.62664240953745,201.56592807316338 91.65666060238436,202.87600310785274 91.61572670305031,203.6556066979574 91.66484738224244,204.54553462495642 91.64847382251173,204.58113106555902 91.40832827976556,204.50281882755553 91.6402870426391,204.59892926633802 91.55569031737105,204.73419516719332 91.5447746108839,205.31084663102774 91.14089347080153,205.3962753161868 90.53507176066341,205.4425490621943 87.68061451383983,205.32152523306104 87.63695168789127,205.8518899091505 87.68334344046889,206.3430898434417 87.70790378007223,208.91994747333592 87.86891045077937,210.3897731604975 87.94259146957484,211.90577163363923 86.90014149990748,211.6958150319897 84.12755205175199,211.61396705301013 81.88710329493915,211.46806345195364 81.89801900141174,214.20450013503432 81.1748534465296,214.55676289216535 80.81190620579582,214.62436829336184 80.04507782493602,214.56032107584906 79.27824944411987,214.19738366322235 79.02173034162843,214.19382542652966 78.91803112998605,214.21873307243914 77.74459268244391,214.99085746671517 76.89862542955962,215.02288053067605 75.61602991713153,214.987299345903 74.7482312512584,215.2577150470297 72.19668485951843,215.5138955745806 71.47079037800722,215.73805132680354 70.9441075399227,216.0155746393284 69.31220941986248,216.0511543226021 69.2221548413072,218.1609366671346 69.28219122701557,218.51314223508052 69.09116636346153,218.9756266648219 68.74732160905842,219.50213671732854 67.37467151810415,219.52348147955854 67.20547806752438,219.4594471368 67.18091772792104,219.39541262580315 67.03628461694461,219.37406775141062 64.25277946230199,219.37762523176752 63.720638770988444,219.32070548366573 62.13786133010581,219.33137794654976 61.332827976570115,219.26734309907806 58.66666666667152,219.3135905058025" stroke="#4dd2ff" stroke-linecap="round" stroke-linejoin="round" stroke-width="0.5"><title>2021-04-03 17.8km</title><desc>1617429273000</desc></polyline><polyline fill="none" points="137.92408441306907,197.96331164508229 138.51567821903154,197.2851278640519 138.99350398540264,197.05741347038565 139.8240106745361,196.9435556983226 140.8782611748902,196.9386053517046 141.33333333332848,203.36354516784195 141.23473436565837,203.8832288365811 137.48797359458695,203.97231666354492 136.86983391270041,204.0663535595886 135.4894483654498,204.01191117797498 134.38969064925914,204.11089726118735 133.08135819375457,204.912673856139 132.4594262439059,205.43233371760653 132.06123810527788,205.84805585712093 130.8477123494522,207.446558858941 129.85793040487624,208.60456027898545 129.5431721619534,208.6490980033086 129.3080515467591,208.7827108244128 129.19807577512984,208.65404663573645 129.2208293830481,208.54022790695672 129.315636082727,208.48084407031638 129.42181958636502,208.5105360016605 129.63418659364106,208.75796774922128 129.6190175216907,208.86188854340435 129.36493556655478,209.09447202092633 128.81126444046095,209.47056106845776 128.52684434143885,209.16375189654354 128.5799360932724,208.99550052385894 128.71266547280538,208.99550052385894 128.8264335124113,209.1538547801465 128.77713402859808,209.25777435789132 128.47375258961983,209.45076701232756 128.49271392956143,209.65365553855008 125.83812633871275,211.33609886419435 125.21998665684077,211.6082509503285 122.71329751746089,211.71711117166342 122.38716247060802,211.69237024303584 122.1520418553846,211.58845814517554 117.55960532322933,204.55633104984736 117.271392956216,204.01191117797498 116.60016152252501,202.18556594729307 116.4750166789745,202.11627177389528 115.17047649146116,202.5963784871965 114.45753010989574,202.77456068749598 114.18448681486188,202.7597122066727 113.95695073565003,202.4429430622913 113.6497770286951,200.55711532547502 113.65736156467756,200.25517513156956 113.52842445310671,200.17597725724772 112.36040591311757,200.2205260843839 111.79915025105583,199.07708760510286 111.08241160151374,197.9534112498004 110.65388531901408,197.4732385975185 108.69707503775135,197.93856065142973 106.96021629973256,198.6810825788525 106.57719723304035,198.93848637356132 105.7163524000207,200.05223020719131 105.40917869308032,200.28487428660083 105.33333333332848,200.50266729307623 105.38263281717082,200.75510743139967 105.46985498088179,200.8343039491192 105.898381263396,200.93824909710747 105.95147301520046,201.37877498663875 106.21313950630429,201.85889217218937 110.83970645036607,206.28851778611715 111.13171108537063,206.7735141727244 111.43888479229645,207.91669242167336 112.07219354613335,209.040037733379 112.208715193643,210.0396352283169 112.29972962534521,210.04953208553343 112.39453632500954,210.17324255622952 116.96042698129895,210.16334573522545 120.88921661574568,210.0297383682264 121.00298465535161,210.07922263977161 121.89037536430988,211.42516706069364 122.14066505144001,211.68742205514354 122.40233154252928,211.80123019365055 125.13276449314435,211.79628202166714 125.3337546964467,211.82102287430826 125.51578355980746,211.94967501623978 125.59162891954475,212.26635512712164 125.4816531479155,212.83043423084382 125.46269180798845,213.49346255458659 125.56129077565856,214.01299059288067 125.54991397169943,214.7700028795989 125.80020365884411,217.08051732628883 125.92534850239463,219.23256764983307 125.73952737102809,220.95410936218832 125.39063871625694,222.46780643527381 125.36030057235621,223.0218224246746 125.75090417500178,223.0613946482954 125.95947891428659,222.97235708009248 126.0125706661056,221.0035776570512 126.21735313739919,219.1435200064043 126.19459952948091,218.33218623789435 127.10095157836622,218.18376941915994 129.29288247480872,218.11450801427782 131.31795357982628,217.9364066078415" stroke="#ffc000" stroke-linecap="round" stroke-linejoin="round" stroke-width="0.5"><title>2021-04-02 25.8km</title><desc>1617360244000</desc></polyline><polyline fill="none" points="174.00733348581707,226.03698335582158 173.78840552817564,221.41501800322294 164.85043369157938,222.02383966424532 159.8341278791777,219.5388258193052 159.4533836049959,216.27092183029163 159.00600908283377,214.40704189577082 157.85425765340915,204.37866501125973 157.1784365667263,199.92951346829068 157.644848302647,199.14653807139985 156.70250622398453,196.95913993167778 153.75173809903208,192.52202838486846 153.35195661114994,192.0 152.89506348210853,192.1242927640269 156.0171665304224,196.92185424715717 157.0451760707656,199.8798009595921 157.70195994374808,204.0058400412454 159.5961627078359,219.91158253568574 164.02231489529368,221.91201560504123 164.76476622989867,222.4835592483796 165.09791746985866,222.47113442752016 165.71662691538222,222.14808844611252 166.430522429524,222.04868943518522 169.69540458067786,221.7007919799289 173.69321945961565,221.58896749500127 176.33939216524595,221.2286431520697 176.75821086682845,220.96771767266182 177.81477622769307,219.6382277704397 179.04267651197733,218.9424116669179 181.7459608587087,218.5323745052665 183.85909158043796,218.5323745052665 184.50635684654117,228.0 187.10493651789147,227.81363961120223" stroke="#4dd2ff" stroke-linecap="round" stroke-linejoin="round" stroke-width="0.5"><title>2021-03-30 11.1km</title><desc>1617098167000</desc></polyline><polyline fill="none" points="14.338406289112754,263.37243190827576 13.671107860689517,257.28863277953496 13.671107860689517,252.6605064152609 16.40005964244483,252.12747636966378 17.953769415966235,250.37235482231335 19.31824530684389,249.7873065960448 21.589051898918115,249.50128161552857 24.11881011998048,249.46227813775477 24.596874665701762,258.27662850922206 25.025140821177047,262.0725098463299 25.2342940599774,266.5311632178564 25.134697279601824,267.67503820300044 19.547317901684437,267.9870015509441 15.105301497853361,268.0 14.926027293200605,267.8310200139749 13.760744963015895,257.5096327788342 13.611349792510737,252.86851727227622 13.850382065342274,252.50449795265013 16.5096161008114,252.07547326706117 17.555382294522133,250.72338190754817 18.850140439230017,249.89131545137207 20.71260023181094,249.54028507624025 24.298084324633237,249.35826877975342 24.477358529285993,248.83822016208433 24.507237563375384,243.2605071842845 24.75622951425612,242.51938607695047 25.2243343819282,241.96029062075831 25.85179409815464,241.59622657022555 27.68437485670438,241.21915865802293 28.13256036833627,240.86809398962941 28.441310387395788,240.29598562920728 27.823810349218547,233.83350557732774 27.823810349218547,232.80622697627405 27.983165197772905,232.6501836169482 31.688165427010972,232.1560445024079 36.996673819900025,232.0 40.12401272309944,232.18205189285072 40.72159340523649,232.58516546956525 44.6158275170601,237.1623266984243 45.45244047208689,238.7746795501589 45.870746949571185,240.56903780662833 46.388650207431056,255.83261903396487 45.860787271521986,258.471626367369 42.225504788570106,258.4586265235048 27.6146571104764,259.19961458756734" stroke="#4dd2ff" stroke-linecap="round" stroke-linejoin="round" stroke-width="0.5"><title>2021-03-25 13.5km</title><desc>1616666045000</desc></polyline><polyline fill="none" points="77.20086872609681,234.570071125092 77.2476114063029,234.6179855995706 77.33775800380681,235.0666355753583 77.2609664577758,235.15375129203858 74.58327863496379,235.82017809489844 73.71520028841041,235.96391525452418 73.64174750524398,236.07280658035415 73.66845760821889,239.69648287438758 71.54166565915511,238.95174885226515 70.99744731113606,238.5510655355265 69.70534607992158,237.32720594916645 69.62521577102598,237.19654181281112 69.60184443091566,236.9439228573483 69.23124175218982,232.3180038738701 69.27464566953131,232.0653435389322 69.05428732003202,232.0 68.96414072248444,232.08276845843466 69.36813102991437,236.96134492306373 69.17448278338998,238.82109184110232 68.89402670219715,240.06666537398087 68.75045989874343,241.2207342335205 68.8272514447599,242.4749168731796 68.84728402199107,244.90909988002932 69.11104628883186,247.65657026878944 69.17782154626912,249.1978294476212 69.07765866011323,249.8116986221812 68.64361948682927,250.07291571307178 68.6469582497084,250.9262089242893 68.93075309378037,251.37026001392587 69.10770752595272,251.9971444091043 69.11772381457558,252.2757554643904 69.05094855713833,253.5120606091823 68.77717000170378,255.77993781821897 68.7571374244726,260.8591828291319 68.93075309378037,260.9244631236361 69.04760979425919,260.8809429431749 69.21120917495864,260.94622319005066 69.70868484280072,260.95492721217306 71.77537906017096,260.8852949640768 75.79191079437442,260.9375191653962 75.84866976320336,261.0115032940412 75.80192708301183,262.4519812246399 76.26601512212073,262.4389258458614 76.60656893499254,262.33883441857506 79.77839366276748,262.4302222568076 80.21911036178062,262.66957002988784 80.82008767861407,262.6739217898066 80.90355675040337,262.86104686541694 80.91357303901168,263.104742878284 80.90021798753878,266.7816999801689 80.87684664744302,267.03841733599984 80.67652087516035,267.4517711479948 80.69321468952694,267.6997806860945 80.63645572071255,267.8477152183441 80.69655345239153,268.0 80.87684664744302,267.96084113039615 82.82000663854706,266.7512418422011 84.64964869205141,265.8287806446442 84.68971384651377,265.2239439043042 84.65966498067428,265.51113410146536 84.5862121974933,265.6025122207175 83.0670750910358,266.47276599595716 83.02367117369431,266.46841479022623 82.9869447821402,265.9506167774016 82.93352457617584,265.87664489900453 81.09052747119858,265.8026728371624 81.09720499694231,262.7087358462504 81.15396396577125,262.6391076927175 81.4811627271556,262.6391076927175 81.45111386130156,262.190872562971 81.32424087219988,261.78614961974745 81.09052747119858,261.4075328620147 81.09052747119858,258.5046446837114 81.39769365538086,258.40889243347556 81.42440375834121,258.2652634816259 81.64142334497592,257.99541327697625 81.67147221081541,257.7125031821888 81.40770994398918,257.3555973874227 81.35428973803937,257.1771428880529 81.10388252268604,257.0944440993626 81.07717241971113,257.0117450813286 81.04712355387164,250.86526021924692 81.21740046031482,250.66064579802878 81.22741674890858,250.53439364595943 81.05046231673623,250.19916981973438 81.04378479100706,242.244116392636 80.77668376130168,237.64515295360434 80.48955015436513,237.59288792566258 78.8836052132392,237.71919491955123 78.7333608840272,235.87244623318475 78.44622727710521,234.11705773887115 78.4362109884969,233.7555132657708 78.3260318137327,233.3634721305625 78.34940315382846,233.00191850966985 78.1757874845207,232.96706973598157 77.61821408501419,233.1718056974496 75.76520069141407,233.5986974309253 75.73849058845371,233.72066537382852 76.18254605034599,234.63105317013833 76.3561617196392,234.73123768739788" stroke="#ffaf00" stroke-linecap="round" stroke-linejoin="round" stroke-width="0.5"><title>2021-02-27 29.9km</title><desc>1614420945000</desc></polyline><polyline fill="none" points="125.41017116117291,246.26543418685833 126.23470016007195,246.288578620115 127.26314493289101,246.18442856373076 134.23174485901836,246.0050583787779 134.30267208471196,245.50744650685738 134.16081763326656,242.4984970445803 134.19184829454753,241.56683354700363 139.0016007880622,241.38165557648608 139.03263144931407,241.19647673815052 139.19665065879235,241.15018189295733 138.71345893360558,235.8548510419605 138.67356236916385,234.4773699719808 138.84201453023707,234.38476447952416 139.55571973894257,234.45421861922296 139.56458564216155,235.21241836841364 138.87747814308386,235.21241836841364 138.75778844967135,235.1198145990238 138.86417928824085,235.40341295723556 139.17005294913542,235.40920065762475 138.7045930304157,235.3802621471732 138.67799532075878,234.44264293775632 138.49624430487165,234.51788480667528 138.5494397241564,236.06899294490722 138.9883019332483,241.22541098884903 136.1866765176528,241.29485310407836 139.34737101342762,246.66467376083529 139.64437877107412,247.6945775185668 139.62221401304123,248.0128007803105 139.42273119074525,248.56245310664235 139.54242088412866,248.84595500264913 139.86159339980804,248.98481233224447 139.95911833515856,249.11788348199116 140.80137914046645,252.79162743891357 141.16488117226982,254.52713575543748 141.33333333334303,256.0311813355838 141.24467430118239,256.67327567395114 140.37138283462264,256.6964140139971 140.40684644746943,260.3000451890621 139.76850141608156,260.61238298565513 136.61667282352573,260.65287103789524 135.55276443788898,260.7569829818931 123.24245782537037,260.85531067728516 122.63071050363942,260.7743349458833 122.77256495505571,260.67022304759666 121.65546115010511,260.8321747709597 121.22103189260815,260.73384701801115 121.01711611868814,260.8379587488089 119.61630341090495,260.9825579201315 115.34293806180358,261.10402081541906 114.49181135327672,261.33537767899907 111.45523950250936,262.78711110176664 109.5357714566926,263.56790185799036 108.87082871567691,264.1231214611762 107.78475557197817,264.76508441015903 106.42827238023165,265.38968700702026 105.33333333334303,265.6152355204722" stroke="#ffd800" stroke-linecap="round" stroke-linejoin="round" stroke-width="0.5"><title>2021-02-25 20.0km</title><desc>1614253167000</desc></polyline></svg>