<?xml version="1.0" encoding="utf-8" ?>
<svg baseProfile="full" height="200mm" version="1.1" viewBox="0,0,200,200" width="200mm" xmlns="http://www.w3.org/2000/svg" xmlns:ev="http://www.w3.org/2001/xml-events" xmlns:xlink="http://www.w3.org/1999/xlink"><defs /><rect fill="#1a1a1a" height="200" width="200" x="0" y="0" /><text alignment-baseline="middle" fill="#e1ed5e" style="dominant-baseline: central; font-size:9.0px; font-family:Arial;" text-anchor="middle" x="100.0" y="100.0">2022</text><line stroke="#e1ed5e" stroke-width="0.3" x1="100.0" x2="100.0" y1="15.0" y2="10.0" /><path d="M 100.0 14.0 a86.0,86.0 0 0,1 42.46469731375804,11.215312516191453" fill="none" id="id13" stroke="none" /><text fill="#e1ed5e" style="font-size:6.75px; font-family:Arial;" text-anchor="middle"><textPath startOffset="22.20632615414155" xlink:href="#id13">January</textPath></text><path d="M 100.0 79.0 l 0.0 -26.83317785106137 a47.83317785106137,47.83317785106137 0 0,0 0.8233695264157026,0.007087001460896597 l -0.4618890471431742 26.829202226209034" fill="#b3ff20" stroke="none" /><path d="M 100.36148047927253 79.00311137660856 l 0.05406208523018198 -3.140240337765575 a24.14070566720116,24.14070566720116 0 0,0 0.4154194302727051,0.010729058277243094 l -0.1081081506977549 3.138844487345972" fill="#ff1802" stroke="none" /><path d="M 100.72285384407766 79.0124445844662 l 0.3096176988899286 -8.989533176480284 a29.99486352595222,29.99486352595222 0 0,0 0.5158533306489763,0.02221372954405069 l -0.46431186192823654 8.982871720412039" fill="#ff6b09" stroke="none" /><path d="M 101.08401301168833 79.027996857942 l 0.490259154455635 -9.484864495909234 a30.49752644346343,30.49752644346343 0 0,0 0.5240316646342429,0.031611021079139115 l -0.6534528679294899 9.475020205449791" fill="#ff720a" stroke="none" /><path d="M 101.44485096284872 79.0497635885617 l 0.5608445485514466 -8.132206147444325 a29.151522767690167,29.151522767690167 0 0,0 0.5003092762144101,0.038833628868244735 l -0.7007440141281979 8.121347256387617" fill="#ff6008" stroke="none" /><path d="M 101.80526077348638 79.07773832637324 l 0.7809175494300032 -9.050526967994962 a30.08415492037712,30.08415492037712 0 0,0 0.515549115646101,0.048957600624995726 l -0.9365917921663485 9.035743822854789" fill="#ff6c0a" stroke="none" /><path d="M 102.16513564639614 79.11191278185805 l 0.8851870407568359 -8.539817882761357 a29.58557194180181,29.58557194180181 0 0,0 0.5061010732001735,0.05686635249798929 l -1.0320548174667346 8.523315576792767" fill="#ff6609" stroke="none" /><path d="M 102.88285421437855 79.19881850522331 l 1.0538091568241446 -7.603740564689594 a28.67641741400977,28.67641741400977 0 0,0 0.4883607808297983,0.07197168439146465 l -1.1845389180825985 7.584474396137161" fill="#ff5908" stroke="none" /><path d="M 103.2404852339499 79.25152402106235 l 1.417210996549733 -9.074248514058496 a30.184251363264963,30.184251363264963 0 0,0 0.5126590902780692,0.08459314252847008 l -1.5731992929666774 9.048509108590402" fill="#ff6e0a" stroke="none" /><path d="M 103.59715602781102 79.31037775812273 l 0.7806126092770092 -4.489819145547474 a25.557173686122454,25.557173686122454 0 0,0 0.43277407874312873,0.07908669666801138 l -0.8577818091230388 4.475716967528724" fill="#ff2d04" stroke="none" /><path d="M 103.95276090670814 79.375362276772 l 1.6394463643374426 -8.554270832252943 a29.70995601900909,29.70995601900909 0 0,0 0.5014383993519611,0.10058382562246092 l -1.7864511731565291 8.524783050553273" fill="#ff6709" stroke="none" /><path d="M 104.307194497241 79.44645832069477 l 1.5438932340288622 -7.367318553721211 a28.52734940002687,28.52734940002687 0 0,0 0.47974480958257043,0.10485363375166383 l -1.6704807677649607 7.339651421873677" fill="#ff5708" stroke="none" /><path d="M 104.66035177308747 79.52364482259891 l 0.7451914966838842 -3.274174676983533 a24.357905624363227,24.357905624363227 0 0,0 0.4080254397073003,0.09656643880548409 l -0.8014406233537081 3.2608623260371803" fill="#ff1c02" stroke="none" /><path d="M 105.36241919743992 79.69619591428918 l 2.2043114100875076 -8.346215647534729 a29.632398532725162,29.632398532725162 0 0,0 0.49204190074883225,0.13449363846513793 l -2.347651200060051 8.307035468243297" fill="#ff6609" stroke="none" /><path d="M 105.71112130821622 79.79150937346287 l 2.0965921223170194 -7.418676642459267 a28.709245206421475,28.709245206421475 0 0,0 0.47439947278119327,0.13849021499491412 l -2.2239818128216395 7.381488098545649" fill="#ff5908" stroke="none" /><path d="M 106.0581310904928 79.89281104454417 l 2.6183229525039193 -8.690322735839114 a30.076195476996464,30.076195476996464 0 0,0 0.494416314850996,0.15361755571950406 l -2.7675246400656337 8.64396504523709" fill="#ff6c0a" stroke="none" /><path d="M 106.40334571778207 80.00007090966166 l 2.682431133859768 -8.378187721136111 a29.79712829726247,29.79712829726247 0 0,0 0.4871364758236549,0.16060123713032692 l -2.82625043192584 8.330772759746548" fill="#ff6809" stroke="none" /><line stroke="#e1ed5e" stroke-width="0.3" x1="143.23703022742887" x2="145.7803849466894" y1="26.81831364943548" y2="22.513508569990506" /><path d="M 143.74570117128098 25.957352633546492 a86.0,86.0 0 0,1 28.547481713284135,27.462654790039103" fill="none" id="id14" stroke="none" /><text fill="#e1ed5e" style="font-size:6.75px; font-family:Arial;" text-anchor="middle"><textPath startOffset="19.985693538727396" xlink:href="#id14">February</textPath></text><path d="M 113.34407831869373 83.78471172551755 l 5.211150285345816 -6.33241967713554 a29.200952765614076,29.200952765614076 0 0,0 0.3853725701239409,0.3227384447569894 l -5.319380392428875 6.241780074984732" fill="#ff6008" stroke="none" /><path d="M 113.6212207817346 84.01681056812373 l 5.026577758127341 -5.898204411306381 a28.74953542065939,28.74953542065939 0 0,0 0.3738893528288852,0.32423316240634575 l -5.127360909602991 5.810806255480364" fill="#ff5a08" stroke="none" /><path d="M 113.89432698308785 84.25364557470407 l 2.558244239988631 -2.899242299275471 a24.86655137058117,24.86655137058117 0 0,0 0.318515671193629,0.28596651449926375 l -2.60777089877825 2.85477677600691" fill="#ff2303" stroke="none" /><path d="M 114.68862486808459 84.99185889309783 l 3.5692158722086345 -3.646855708562142 a26.102828480509444,26.102828480509444 0 0,0 0.31841000814663456,0.31704265438128554 l -3.6314616805225914 3.5848772035307377" fill="#ff3505" stroke="none" /><path d="M 114.94478906791727 85.2469230424477 l 10.600415256234054 -10.46443287667138 a35.89540731349635,35.89540731349635 0 0,0 0.4302931804638004,0.4434549463063445 l -10.778972700400963 10.280413734814921" fill="#ffba11" stroke="none" /><path d="M 115.19652480421416 85.50635884689758 l 6.782479575543599 -6.4687700880740095 a30.372673879156743,30.372673879156743 0 0,0 0.3575770239076995,0.3814382377677467 l -6.892823921421761 6.351062433428208" fill="#ff700a" stroke="none" /><path d="M 115.4437574822437 85.77008943001954 l 6.972734490948962 -6.424692199971465 a30.48133409102556,30.48133409102556 0 0,0 0.3522137885568849,0.3889232623807606 l -7.082291920121882 6.303716150321154" fill="#ff720a" stroke="none" /><path d="M 115.68641384162765 86.03803664274999 l 2.894772969979843 -2.5765426401769997 a24.875342891200233,24.875342891200233 0 0,0 0.28193019068555186,0.322294944514913 l -2.9386950242432426 2.526332139459139" fill="#ff2303" stroke="none" /><path d="M 115.9244219780498 86.31012108654704 l 6.012187633097223 -5.168546827979749 a28.928447291152708,28.928447291152708 0 0,0 0.3213666533963467,0.38039675336085405 l -6.1002648999806866 5.064291124989788" fill="#ff5c08" stroke="none" /><path d="M 116.15771136456269 86.58626213691792 l 7.251180187964713 -6.019752924455419 a30.424279250416,30.424279250416 0 0,0 0.33104731839088003,0.4058248688716812 l -7.353725998432002 5.894043885975638" fill="#ff710a" stroke="none" /><path d="M 116.38621287248628 86.86637796730983 l 11.548178994356684 -9.255916498704678 a35.79974419767769,35.79974419767769 0 0,0 0.38126031931383464,0.4841618879369545 l -11.705793394264482 9.055762216814685" fill="#ffb911" stroke="none" /><path d="M 116.60985879189232 87.15038557335679 l 6.021887140249687 -4.658614431492949 a28.613528298444745,28.613528298444745 0 0,0 0.2980222416165737,0.39216233619291724 l -6.101185322090374 4.554267319418998" fill="#ff5808" stroke="none" /><path d="M 116.82858285166822 87.43820079747576 l 7.7549921474691175 -5.788761598782067 a30.677275652519235,30.677275652519235 0 0,0 0.3122324168175618,0.42588466564530675 l -7.853487176800305 5.654414489465267" fill="#ff750a" stroke="none" /><path d="M 117.04232023915458 87.72973835380427 l 3.6138066484742444 -2.6018964843568964 a25.45302861071714,25.45302861071714 0 0,0 0.25293932661082735,0.3577647396276369 l -3.6580585948889546 2.539305244397466" fill="#ff2b04" stroke="none" /><path d="M 117.2510076193507 88.02491185347247 l 2.7297236823669953 -1.8948853558757421 a24.32294777178149,24.32294777178149 0 0,0 0.23578843281675751,0.3459904303941538 l -2.761936580852486 1.847616902211182" fill="#ff1b02" stroke="none" /><path d="M 117.45458315368197 88.32363383020206 l 15.22385266544167 -10.184103319548699 a39.316158178021894,39.316158178021894 0 0,0 0.37145038415807524,0.5657444188187934 l -15.396899684957672 9.920540836752231" fill="#ffe515" stroke="none" /><path d="M 117.65298651832404 88.62581576622439 l 7.86324870390024 -5.06645373242203 a30.354123882126103,30.354123882126103 0 0,0 0.2792180511503973,0.44165590255990583 l -7.949294351296593 4.930350182147918" fill="#ff700a" stroke="none" /><line stroke="#e1ed5e" stroke-width="0.3" x1="172.23445277983987" x2="176.4835382374775" y1="55.19839476539836" y2="52.563006222186495" /><path d="M 173.08426987136738 54.67131705675599 a86.0,86.0 0 0,1 12.851231095245387,41.99856678651699" fill="none" id="id15" stroke="none" /><text fill="#e1ed5e" style="font-size:6.75px; font-family:Arial;" text-anchor="middle"><textPath startOffset="22.20632615414155" xlink:href="#id15">March</textPath></text><path d="M 117.84615892207809 88.93136811851018 l 11.461299857374476 -7.108583396492447 a34.4867843582353,34.4867843582353 0 0,0 0.3085486642296275,0.5071728765848095 l -11.581964319890329 6.910242746700557" fill="#ffa80f" stroke="none" /><path d="M 118.03404312379186 89.2402003453031 l 7.405178954874346 -4.418212899608087 a29.62306677348478,29.62306677348478 0 0,0 0.25749544057234014,0.44014317631154853 l -7.480134069917013 4.290090310942643" fill="#ff6609" stroke="none" /><path d="M 118.21658344932153 89.55222093294921 l 7.09051206637624 -4.066629933535414 a29.17391218326655,29.17391218326655 0 0,0 0.24609217223196486,0.4377705146981671 l -7.159461879900638 3.9439759089024533" fill="#ff6008" stroke="none" /><path d="M 118.3937258080291 89.86733742301442 l 6.626451240968971 -3.650353126296846 a28.56537732010799,28.56537732010799 0 0,0 0.23354494898243316,0.4327233211338114 l -6.688304289169869 3.5357488218305755" fill="#ff5708" stroke="none" /><path d="M 118.56541770881063 90.18545643968196 l 6.833650379966605 -3.6125855276790806 a28.72978341937302,28.72978341937302 0 0,0 0.2273628091263187,0.4391925791033906 l -6.894822622253041 3.4944202263153454" fill="#ff5a08" stroke="none" /><path d="M 118.73160827565052 90.50648371742162 l 16.233693297047243 -8.227528003681229 a39.19958832265047,39.19958832265047 0 0,0 0.29985816001820503,0.6044957530037566 l -16.372911470018856 7.946872662178522" fill="#ffe415" stroke="none" /><path d="M 118.89224826269711 90.83032412892265 l 8.045560872425321 -3.905050599341959 a29.943180079553485,29.943180079553485 0 0,0 0.22106879626931042,0.46562726451520375 l -8.111587862536387 3.7659809191862146" fill="#ff6a09" stroke="none" /><path d="M 119.04729006885535 91.15688171328212 l 7.146809686757026 -3.3180616877354856 a28.879493769420858,28.879493769420858 0 0,0 0.2054537836391873,0.4526901783179106 l -7.202865787359561 3.1945495005755125" fill="#ff5c08" stroke="none" /><path d="M 119.47837535516314 92.15188598940014 l 6.183095701875554 -2.4912570541416623 a27.666110872792512,27.666110872792512 0 0,0 0.17417325271767564,0.4432519301816476 l -6.225062504474931 2.38445611906423" fill="#ff4b07" stroke="none" /><path d="M 119.61058180528143 92.48833698450437 l 58.83174541584429 -22.534989046486903 a84.0,84.0 0 0,0 0.505581645993499,1.354707451882667 l -59.21093165033941 21.518958457574904" fill="#4dd2ff" stroke="none" /><path d="M 119.7369772167798 92.82701384747503 l 7.42338813799835 -2.697873120784194 a28.898430908935296,28.898430908935296 0 0,0 0.16588651502393928,0.46898351649103026 l -7.4687277338320985 2.5696919778665492" fill="#ff5c08" stroke="none" /><path d="M 119.85752413597 93.16781622104841 l 8.66022988937121 -2.979640450995398 a30.158484533696967,30.158484533696967 0 0,0 0.16466921201790055,0.49233998444060545 l -8.710236395160882 2.830127363632479" fill="#ff6d0a" stroke="none" /><path d="M 119.97218684219823 93.5106431181261 l 15.5910052071726 -5.065824675880183 a37.39335301324411,37.39335301324411 0 0,0 0.19363438493856763,0.6138739156225745 l -15.675895075879374 4.796700593831189" fill="#ffcd13" stroke="none" /><path d="M 120.08093135843002 93.85539295169968 l 7.335426736108594 -2.2445828841530084 a28.67115621824047,28.67115621824047 0 0,0 0.14034408486782227,0.47317048539245915 l -7.372976718088118 2.1179830120140197" fill="#ff5908" stroke="none" /><path d="M 120.18372546131832 94.20196356495316 l 4.271188894905053 -1.2269543044017135 a25.443925229012088,25.443925229012088 0 0,0 0.11730040813755474,0.42199197875801264 l -4.29167607360897 1.1532510222247487" fill="#ff2b04" stroke="none" /><path d="M 120.53481517161879 95.60439243477599 l 4.259451206409178 -0.9117625744434105 a25.355942558383465,25.355942558383465 0 0,0 0.0876841143489858,0.42757888194503646 l -4.274514616673161 0.8383080363349622" fill="#ff2a04" stroke="none" /><path d="M 120.6074358757038 95.95851677861258 l 7.7544509203242145 -1.5207851900930542 a28.902170377189005,28.902170377189005 0 0,0 0.09154318762250646,0.48902736875844594 l -7.77947983185658 1.3870797438720457" fill="#ff5c08" stroke="none" /><path d="M 120.67395015179393 96.31383870115 l 4.279076859445732 -0.7629585733873275 a25.34656238351058,25.34656238351058 0 0,0 0.07288722472389252,0.4301845262296362 l -4.291575945689848 0.6891882588418535" fill="#ff2a04" stroke="none" /><path d="M 120.73433829027371 96.67025291283417 l 13.396266383989419 -2.151319147325316 a34.56790798555376,34.56790798555376 0 0,0 0.08929072782613592,0.5883143331802736 l -13.431313005254855 1.9204057017529603" fill="#ffa90f" stroke="none" /><path d="M 120.78858239683441 97.02765380044208 l 4.415360864722821 -0.6313071683009069 a25.46026460050006,25.46026460050006 0 0,0 0.058296732716104034,0.43437837202569035 l -4.425573596496761 0.5552104542105523" fill="#ff2c04" stroke="none" /><path d="M 120.83666639777658 97.38593545837742 l 21.362455121346155 -2.68002738003587 a42.52991025455681,42.52991025455681 0 0,0 0.08487683455035809,0.7271728850181276 l -21.405422308900103 2.3119107566928894" fill="#f1ff19" stroke="none" /><path d="M 120.87857604477298 97.74499172005257 l 8.0195744090611 -0.8661609228190026 a29.066214009477207,29.066214009477207 0 0,0 0.049444224283523734,0.4978965909043098 l -8.033295759026853 0.7279888012102579" fill="#ff5e08" stroke="none" /><path d="M 120.91429891909075 98.10471618934814 l 8.533665838012775 -0.7733330565307629 a29.568634468291286,29.568634468291286 0 0,0 0.04157281882995141,0.5072936898140961 l -8.54571314066222 0.6263254495088981" fill="#ff6509" stroke="none" /><path d="M 120.94382443527127 98.46500227214037 l 7.997721225726476 -0.5861624722593745 a29.01917272842536,29.01917272842536 0 0,0 0.03222428369369821,0.4984954059359507 l -8.00662610042459 0.4484080020703885" fill="#ff5e08" stroke="none" /><path d="M 120.98425023603335 99.18683210126433 l 8.718375934689954 -0.3378487846578203 a29.72491952626932,29.72491952626932 0 0,0 0.015412095527780122,0.5114524185824124 l -8.722899724673379 0.18772621865040884" fill="#ff6709" stroke="none" /><line stroke="#e1ed5e" stroke-width="0.3" x1="184.98032266829074" x2="189.97916517819016" y1="98.17113171792111" y2="98.06355123074" /><path d="M 185.9800911702706 98.14961562048488 a86.0,86.0 0 0,1 -9.607161424134198,41.387399972396054" fill="none" id="id16" stroke="none" /><text fill="#e1ed5e" style="font-size:6.75px; font-family:Arial;" text-anchor="middle"><textPath startOffset="21.466115282336823" xlink:href="#id16">April</textPath></text><path d="M 120.99513854157772 99.54816195383933 l 7.982638565807316 -0.17179499938227735 a28.98448695872985,28.98448695872985 0 0,0 0.006441447349193268,0.4988971959190576 l -7.984413020274225 0.034361545402757" fill="#ff5d08" stroke="none" /><path d="M 120.99980553446 99.90962569577887 l 7.66446487920368 -0.03298462357418836 a28.664535854827676,28.664535854827676 0 0,0 -0.00212349981545207,0.49342657253384975 l -7.663897082098725 -0.09895142716334612" fill="#ff5908" stroke="none" /><path d="M 120.99824983174949 100.27111621757518 l 7.920890208108468 0.10226956104711558 a28.92155040077543,28.92155040077543 0 0,0 -0.010711905050934705,0.4977401360942727 l -7.917956240372526 -0.2385995129315031" fill="#ff5c08" stroke="none" /><path d="M 120.95626037817324 101.35467743843564 l 8.287624181339467 0.5357376408811777 a29.30492199788653,29.30492199788653 0 0,0 -0.03687318510749119,0.5031053149097539 l -8.277174437567638 -0.6783160922877018" fill="#ff6209" stroke="none" /><path d="M 120.92983693683757 101.71520430193887 l 8.620593109972283 0.7064593208303883 a29.649491912227546,29.649491912227546 0 0,0 -0.046063173515048246,0.5083032813562166 l -8.60715534018016 -0.8547439907351755" fill="#ff6609" stroke="none" /><path d="M 120.89721153311464 102.0752229133903 l 12.073957651267076 1.1990189951184862 a33.13334660822173,33.13334660822173 0 0,0 -0.06124572661424268,0.5670593637743314 l -12.051529623151781 -1.4066746807776092" fill="#ff960d" stroke="none" /><path d="M 120.8583938346157 102.4346265915055 l 8.48165620083685 0.9899930881684513 a29.53923756689176,29.53923756689176 0 0,0 -0.06329624326233026,0.5045333365300422 l -8.463358448327673 -1.1358441789858884" fill="#ff6509" stroke="none" /><path d="M 120.81339534386255 102.79330883721812 l 7.663891255126389 1.0285498745756463 a28.732602667594676,28.732602667594676 0 0,0 -0.07000623248811493,0.48962342697078687 l -7.645050971621672 -1.1603187735268423" fill="#ff5a08" stroke="none" /><path d="M 120.76222939487914 103.15116336523771 l 9.460526951969277 1.4358605417509902 a30.568869614760906,30.568869614760906 0 0,0 -0.08343590368936248,0.5195554519194497 l -9.434409293918627 -1.598495223363645" fill="#ff730a" stroke="none" /><path d="M 120.70491114924044 103.5080841355445 l 15.501477854209838 2.6264536054211893 a36.72240675615499,36.72240675615499 0 0,0 -0.11096035021644984,0.6223245710696829 l -15.453971061654201 -2.8928969272240903" fill="#ffc512" stroke="none" /><path d="M 120.64145759157962 103.86396538481128 l 8.543768538921707 1.59934567332591 a29.692173918500174,29.692173918500174 0 0,0 -0.09836602521944261,0.5015662433856726 l -8.514972580726601 -1.7461756437795273" fill="#ff6709" stroke="none" /><path d="M 120.5718875245553 104.21870165774334 l 8.748350795324576 1.7940347942648907 a29.930408864161215,29.930408864161215 0 0,0 -0.10784348371796228,0.5038088529859422 l -8.716173272882171 -1.9443574666670018" fill="#ff6a09" stroke="none" /><path d="M 120.49622156327973 104.57218783832717 l 11.620963181798343 2.59234251373715 a32.9065958603306,32.9065958603306 0 0,0 -0.1280841201321636,0.5517830372564938 l -11.574618495735626 -2.7919942083422087" fill="#ff930d" stroke="none" /><path d="M 120.23288151984713 105.62410040840565 l 8.66783215723797 2.4093828814098694 a29.99646820565046,29.99646820565046 0 0,0 -0.14256516163504426,0.4962880304437018 l -8.625074358716827 -2.5582283873581533" fill="#ff6b09" stroke="none" /><path d="M 120.13307415673323 105.97154293290107 l 7.677110700692616 2.2770589226925524 a29.00768543638565,29.00768543638565 0 0,0 -0.14610650051111243,0.4774844973358585 l -7.636777427675371 -2.408870392580468" fill="#ff5e08" stroke="none" /><path d="M 120.02730092923936 106.31721596034902 l 6.790592175090641 2.141957991257538 a28.12040210414512,28.12040210414512 0 0,0 -0.1495841342653354,0.4603726274510388 l -6.752715789809058 -2.258529518686372" fill="#ff5107" stroke="none" /><path d="M 119.9155931802556 106.66101706037122 l 9.066006097037432 3.0322381430077403 a30.559651390476063,30.559651390476063 0 0,0 -0.17114739079516342,0.49743442996855886 l -9.012467875299038 -3.1878452760655995" fill="#ff730a" stroke="none" /><path d="M 119.79798401119884 107.00284435728193 l 9.476574860882879 3.3520068888506436 a31.051936195421234,31.051936195421234 0 0,0 -0.18257908423562785,0.5023792252199724 l -9.417471515642024 -3.5146339110767473" fill="#ff7a0b" stroke="none" /><path d="M 119.54520255179757 107.68017299344265 l 8.233141900206896 3.2351649416564707 a29.84595488054656,29.84595488054656 0 0,0 -0.1920052609216028,0.4765413113705775 l -8.1762340250279 -3.376405620869862" fill="#ff6909" stroke="none" /><path d="M 119.41010516605496 108.01547362559984 l 7.13669876019598 2.9471257469661842 a28.721270579523413,28.721270579523413 0 0,0 -0.19263632285886084,0.4553353633884903 l -7.08491145614481 -3.069535636020838" fill="#ff5a08" stroke="none" /><path d="M 119.26925614724726 108.34839909993367 l 7.142514403299298 3.0944920945630505 a28.784047361408533,28.784047361408533 0 0,0 -0.2008837503967477,0.4529398253833673 l -7.088189568171278 -3.2169802564391055" fill="#ff5a08" stroke="none" /><path d="M 118.97047184881838 109.00673069616215 l 7.998381438754878 3.7974420561676396 a29.854076564485382,29.854076564485382 0 0,0 -0.2243985124989998,0.4623274003918521 l -7.931829669641164 -3.9345584125247672" fill="#ff6909" stroke="none" /><path d="M 118.81262510543309 109.33194174019688 l 8.161157252608445 4.0483156171507595 a30.110068443094715,30.110068443094715 0 0,0 -0.23431559227604862,0.462326893086643 l -8.090262990546128 -4.188196721940097" fill="#ff6d0a" stroke="none" /><line stroke="#e1ed5e" stroke-width="0.3" x1="174.80103733775053" x2="179.2010983576182" y1="140.37084112569926" y2="142.7455964860345" /><path d="M 175.68104954172406 140.8457921977663 a86.0,86.0 0 0,1 -30.038265399797805,32.042727171017184" fill="none" id="id17" stroke="none" /><text fill="#e1ed5e" style="font-size:6.75px; font-family:Arial;" text-anchor="middle"><textPath startOffset="22.206326154141568" xlink:href="#id17">May</textPath></text><path d="M 118.48025628344425 109.97397251340804 l 7.296396507132049 3.9379355509402227 a29.29124468295609,29.29124468295609 0 0,0 -0.2432897175826467,0.44164150568797317 l -7.2275303800978925 -4.062947575026001" fill="#ff6109" stroke="none" /><path d="M 118.30583269289576 110.29060199501025 l 13.178023099434636 7.408009953568593 a36.11750324231499,36.11750324231499 0 0,0 -0.3093171839090624,0.5393205825684733 l -13.048553919373195 -7.633750381995381" fill="#ffbd11" stroke="none" /><path d="M 118.12598468904814 110.60418214915192 l 5.825796548819354 3.408245611335407 a27.749521729383687,27.749521729383687 0 0,0 -0.24474962450045057,0.4102144486348537 l -5.766266048620676 -3.508022153856365" fill="#ff4c07" stroke="none" /><path d="M 117.94076556474637 110.91462005526583 l 8.411033313764749 5.117018700267685 a30.845271036601766,30.845271036601766 0 0,0 -0.2798626110237269,0.45122763916554925 l -8.321706063073059 -5.261042670798508" fill="#ff770a" stroke="none" /><path d="M 117.55443506779139 111.5257021239791 l 6.399995443845922 4.202040156560402 a28.65617941003179,28.65617941003179 0 0,0 -0.2742763367718869,0.41000590917191293 l -6.326716001663314 -4.311582979938121" fill="#ff5908" stroke="none" /><path d="M 117.14729908036423 112.12312394758627 l 7.141134450447374 5.048775183975676 a29.745623596845164,29.745623596845164 0 0,0 -0.2991846091448954,0.41554125467686764 l -7.053170048926876 -5.170950044103675" fill="#ff6809" stroke="none" /><path d="M 116.71984013943494 112.70617746262583 l 9.064353424196547 6.888420118333369 a32.38476327050341,32.38476327050341 0 0,0 -0.3411089934020022,0.4409293559271331 l -8.944437613576476 -7.043427468373755" fill="#ff8c0c" stroke="none" /><line stroke="#e1ed5e" stroke-width="0.3" x1="143.8653032363475" x2="146.44561519142675" y1="172.8068346515853" y2="177.08958963109032" /><path d="M 144.38136562736335 173.6633856474863 a86.0,86.0 0 0,1 -40.68145358897372,12.25698825130547" fill="none" id="id18" stroke="none" /><text fill="#e1ed5e" style="font-size:6.75px; font-family:Arial;" text-anchor="middle"><textPath startOffset="21.466115282336833" xlink:href="#id18">June</textPath></text><path d="M 109.2508944713604 118.85261126421891 l 3.0390361749926327 6.193321932534107 a27.8987663703681,27.8987663703681 0 0,0 -0.4329454542154329,0.2078401280753324 l -2.931978052776967 -6.244716337109" fill="#ff4e07" stroke="none" /><path d="M 108.59647513512805 119.15986991738527 l 3.6768136248250056 8.194901940010974 a29.981947240887937,29.981947240887937 0 0,0 -0.4726858507123809,0.20721158599563652 l -3.535207099454871 -8.256978079301065" fill="#ff6b09" stroke="none" /><path d="M 108.2653958097858 119.30500536409082 l 1.4134004742627946 3.3011974701740106 a24.591045201293014,24.591045201293014 0 0,0 -0.3905626388294867,0.16325521470629334 l -1.3563663759358466 -3.325037727900277" fill="#ff1f03" stroke="none" /><path d="M 107.93186726928326 119.44442032107085 l 3.075655712590245 7.5397558239664555 a29.142946392272584,29.142946392272584 0 0,0 -0.4661191178669567,0.18547841660152384 l -2.9454155186814215 -7.591581084974049" fill="#ff5f08" stroke="none" /><path d="M 107.59598834532513 119.57807347666477 l 1.2232827689294876 3.1529168877120424 a24.38190857853662,24.38190857853662 0 0,0 -0.3925833031001785,0.14844141321457405 l -1.1688292450690343 -3.173506551033247" fill="#ff1c02" stroke="none" /><path d="M 107.2578585660854 119.70592522655815 l 1.4703422210813795 3.9921491445800856 a25.25431087717694,25.25431087717694 0 0,0 -0.40921657148947793,0.14673050330788762 l -1.4014060889621667 -4.016867188927933" fill="#ff2903" stroke="none" /><path d="M 106.91757812671514 119.82793768551818 l 1.0327795988883266 2.9602686308013233 a24.13525502413859,24.13525502413859 0 0,0 -0.3934394427638809,0.1334760204264536 l -0.9816704231872186 -2.9776076381259" fill="#ff1802" stroke="none" /><path d="M 106.57524785965236 119.94407469862006 l 2.636267785166022 7.996340633111375 a29.419701381631786,29.419701381631786 0 0,0 -0.48231310569020924,0.15442142549613186 l -2.498233334384872 -8.040534905267213" fill="#ff6309" stroke="none" /><path d="M 105.53697534728816 120.25689768951611 l 1.1574031241246503 4.23433286232748 a25.389664768603627,25.389664768603627 0 0,0 -0.42256811859234183,0.11160408078210156 l -1.084344562720811 -4.253628292413166" fill="#ff2b04" stroke="none" /><line stroke="#e1ed5e" stroke-width="0.3" x1="102.19456741930631" x2="102.32365962044197" y1="184.97166512339345" y2="189.96999836594603" /><path d="M 102.22038585953345 185.97133177190398 a86.0,86.0 0 0,1 -42.740103519485714,-10.115201625700543" fill="none" id="id19" stroke="none" /><text fill="#e1ed5e" style="font-size:6.75px; font-family:Arial;" text-anchor="middle"><textPath startOffset="22.20632615414155" xlink:href="#id19">July</textPath></text><path d="M 91.7346041902142 119.30500536409082 l -0.5769489529399814 1.347546189878301 a22.4658618039072,22.4658618039072 0 0,0 -0.35418963663190334,-0.1552663280254845 l 0.600059264229628 -1.3374153085583644" fill="#ff0000" stroke="none" /><line stroke="#e1ed5e" stroke-width="0.3" x1="58.666819895761336" x2="56.23545636021788" y1="174.27360380694188" y2="178.64263932499728" /><path d="M 58.180547188652646 175.14741091055294 a86.0,86.0 0 0,1 -31.652253787137756,-30.449443065178592" fill="none" id="id20" stroke="none" /><text fill="#e1ed5e" style="font-size:6.75px; font-family:Arial;" text-anchor="middle"><textPath startOffset="22.20632615414155" xlink:href="#id20">August</textPath></text><line stroke="#e1ed5e" stroke-width="0.3" x1="26.63291911575756" x2="22.317208475507996" y1="142.92168965132927" y2="145.44649492493687" /><path d="M 25.769776987707644 143.4266507060508 a86.0,86.0 0 0,1 -11.730757126820373,-40.83630448921669" fill="none" id="id21" stroke="none" /><text fill="#e1ed5e" style="font-size:6.75px; font-family:Arial;" text-anchor="middle"><textPath startOffset="21.46611528233685" xlink:href="#id21">September</textPath></text><line stroke="#e1ed5e" stroke-width="0.3" x1="15.007084014347285" x2="10.007500721073583" y1="101.09737516637583" y2="101.16192664675087" /><path d="M 14.007167355692545 101.11028546245083 a86.0,86.0 0 0,1 10.666146001902534,-42.60595125391555" fill="none" id="id22" stroke="none" /><text fill="#e1ed5e" style="font-size:6.75px; font-family:Arial;" text-anchor="middle"><textPath startOffset="22.20632615414155" xlink:href="#id22">October</textPath></text><line stroke="#e1ed5e" stroke-width="0.3" x1="26.266209847984243" x2="21.928928074336255" y1="57.711370442889674" y2="55.22380399835377" /><path d="M 25.398753493254645 57.213857153982495 a86.0,86.0 0 0,1 29.58750427330803,-30.492523968695096" fill="none" id="id23" stroke="none" /><text fill="#e1ed5e" style="font-size:6.75px; font-family:Arial;" text-anchor="middle"><textPath startOffset="21.46611528233685" xlink:href="#id23">November</textPath></text><path d="M 88.70189139769569 82.29822771554957 l -2.0690610502876887 -3.241785757604455 a24.84580141557318,24.84580141557318 0 0,0 0.3624894141759169,-0.22699083790211738 l 2.0129524837395296 3.2769209368295025" fill="#ff2303" stroke="none" /><line stroke="#e1ed5e" stroke-width="0.3" x1="56.762969772571076" x2="54.21961505331055" y1="26.818313649435495" y2="22.513508569990535" /><path d="M 56.25429882871897 25.957352633546506 a86.0,86.0 0 0,1 42.265352541879196,-11.944610805530505" fill="none" id="id24" stroke="none" /><text fill="#e1ed5e" style="font-size:6.75px; font-family:Arial;" text-anchor="middle"><textPath startOffset="22.20632615414155" xlink:href="#id24">December</textPath></text></svg>