<?xml version="1.0" encoding="utf-8" ?>
<svg baseProfile="full" height="200mm" version="1.1" viewBox="0,0,200,200" width="200mm" xmlns="http://www.w3.org/2000/svg" xmlns:ev="http://www.w3.org/2001/xml-events" xmlns:xlink="http://www.w3.org/1999/xlink"><defs /><rect fill="#1a1a1a" height="200" width="200" x="0" y="0" /><text alignment-baseline="middle" fill="#e1ed5e" style="dominant-baseline: central; font-size:9.0px; font-family:Arial;" text-anchor="middle" x="100.0" y="100.0">2023</text><line stroke="#e1ed5e" stroke-width="0.3" x1="100.0" x2="100.0" y1="15.0" y2="10.0" /><path d="M 100.0 14.0 a86.0,86.0 0 0,1 42.46469731375804,11.215312516191453" fill="none" id="id25" stroke="none" /><text fill="#e1ed5e" style="font-size:6.75px; font-family:Arial;" text-anchor="middle"><textPath startOffset="22.20632615414155" xlink:href="#id25">January</textPath></text><path d="M 103.59715602781102 79.31037775812273 l 0.7819718099174209 -4.497636806939869 a25.56510862506532,25.56510862506532 0 0,0 0.4329084455527399,0.0791112513436168 l -0.8592753765730616 4.483510074245514" fill="#ff0000" stroke="none" /><line stroke="#e1ed5e" stroke-width="0.3" x1="143.23703022742887" x2="145.7803849466894" y1="26.81831364943548" y2="22.513508569990506" /><path d="M 143.74570117128098 25.957352633546492 a86.0,86.0 0 0,1 28.547481713284135,27.462654790039103" fill="none" id="id26" stroke="none" /><text fill="#e1ed5e" style="font-size:6.75px; font-family:Arial;" text-anchor="middle"><textPath startOffset="19.985693538727396" xlink:href="#id26">February</textPath></text><line stroke="#e1ed5e" stroke-width="0.3" x1="172.23445277983987" x2="176.4835382374775" y1="55.19839476539836" y2="52.563006222186495" /><path d="M 173.08426987136738 54.67131705675599 a86.0,86.0 0 0,1 12.851231095245387,41.99856678651699" fill="none" id="id27" stroke="none" /><text fill="#e1ed5e" style="font-size:6.75px; font-family:Arial;" text-anchor="middle"><textPath startOffset="22.20632615414155" xlink:href="#id27">March</textPath></text><line stroke="#e1ed5e" stroke-width="0.3" x1="184.98032266829074" x2="189.97916517819016" y1="98.17113171792111" y2="98.06355123074" /><path d="M 185.9800911702706 98.14961562048488 a86.0,86.0 0 0,1 -9.607161424134198,41.387399972396054" fill="none" id="id28" stroke="none" /><text fill="#e1ed5e" style="font-size:6.75px; font-family:Arial;" text-anchor="middle"><textPath startOffset="21.466115282336823" xlink:href="#id28">April</textPath></text><line stroke="#e1ed5e" stroke-width="0.3" x1="174.80103733775053" x2="179.2010983576182" y1="140.37084112569926" y2="142.7455964860345" /><path d="M 175.68104954172406 140.8457921977663 a86.0,86.0 0 0,1 -30.038265399797805,32.042727171017184" fill="none" id="id29" stroke="none" /><text fill="#e1ed5e" style="font-size:6.75px; font-family:Arial;" text-anchor="middle"><textPath startOffset="22.206326154141568" xlink:href="#id29">May</textPath></text><path d="M 116.498646956653 112.99209946851258 l 4.698491704223574 3.6998956177214533 a26.98038894025231,26.98038894025231 0 0,0 -0.29046584119925567,0.3624007980608755 l -4.634107950969464 -3.7802242493605793" fill="#ff1602" stroke="none" /><path d="M 112.04921762599082 117.19931262002967 l 3.406102555092217 4.861944109511887 a26.936331791588394,26.936331791588394 0 0,0 -0.38203814179230283,0.2627693175345104 l -3.321907528677031 -4.919854216411492" fill="#ff1502" stroke="none" /><path d="M 111.1453310114006 117.79835938074945 l 3.5752434614983395 5.709428274165317 a27.736463243188147,27.736463243188147 0 0,0 -0.40682893329594877,0.24990755880961738 l -3.4764353282700817 -5.770124299803312" fill="#ff2103" stroke="none" /><line stroke="#e1ed5e" stroke-width="0.3" x1="143.8653032363475" x2="146.44561519142675" y1="172.8068346515853" y2="177.08958963109032" /><path d="M 144.38136562736335 173.6633856474863 a86.0,86.0 0 0,1 -40.68145358897372,12.25698825130547" fill="none" id="id30" stroke="none" /><text fill="#e1ed5e" style="font-size:6.75px; font-family:Arial;" text-anchor="middle"><textPath startOffset="21.466115282336833" xlink:href="#id30">June</textPath></text><path d="M 110.21172684928248 118.3499491758327 l 3.058673654118816 5.49627961332342 a27.290037687505155,27.290037687505155 0 0,0 -0.41243978215519,0.2248950540786163 l -2.963611060094977 -5.548115319161807" fill="#ff1b02" stroke="none" /><path d="M 109.2508944713604 118.85261126421891 l 3.0382149018802225 6.191648241111299 a27.89690203871736,27.89690203871736 0 0,0 -0.4329165226884033,0.20782623918419219 l -2.9311857111915867 -6.24302875679505" fill="#ff2403" stroke="none" /><path d="M 108.2653958097858 119.30500536409082 l 3.604848139861526 8.419634616211203 a30.158885149512745,30.158885149512745 0 0,0 -0.4789928070047943,0.2002190321754709 l -3.4593838733592706 -8.480438691406649" fill="#ff4606" stroke="none" /><path d="M 107.2578585660854 119.70592522655815 l 2.3615393614395908 6.411852428973724 a27.83291443869779,27.83291443869779 0 0,0 -0.45099982638833724,0.16171249193761503 l -2.2508199744215185 -6.451552461951299" fill="#ff2303" stroke="none" /><path d="M 106.91757812671514 119.82793768551818 l 2.7250035611680374 7.810710600432653 a29.272414671188184,29.272414671188184 0 0,0 -0.4771825491409565,0.16188622886625512 l -2.590151279089854 -7.856459816197032" fill="#ff3905" stroke="none" /><path d="M 105.88484417918355 120.15858648285463 l 2.764864143018179 9.471066903951286 a30.866386472689435,30.866386472689435 0 0,0 -0.5113073241469653,0.14450055711474816 l -2.6014256507666076 -9.517256254404554" fill="#ff5007" stroke="none" /><path d="M 103.41894727170886 120.7198165907248 l 2.800398118578268 16.971228505946232 a38.200721689033244,38.200721689033244 0 0,0 -0.6497108462664261,0.10147147220840015 l -2.507851408703325 -17.01691828550174" fill="#ffb811" stroke="none" /><path d="M 103.06178313531738 120.77559828337769 l 0.6792929388614487 4.609313132511461 a25.659099317500072,25.659099317500072 0 0,0 -0.43751380197591844,0.060635426319019324 l -0.5998505456986998 -4.6203231243230825" fill="#ff0100" stroke="none" /><line stroke="#e1ed5e" stroke-width="0.3" x1="102.19456741930631" x2="102.32365962044197" y1="184.97166512339345" y2="189.96999836594603" /><path d="M 102.22038585953345 185.97133177190398 a86.0,86.0 0 0,1 -42.740103519485714,-10.115201625700543" fill="none" id="id31" stroke="none" /><text fill="#e1ed5e" style="font-size:6.75px; font-family:Arial;" text-anchor="middle"><textPath startOffset="22.20632615414155" xlink:href="#id31">July</textPath></text><path d="M 98.37488393609728 120.93702456842531 l -0.6400792636120611 8.246398866922735 a29.27120279863157,29.27120279863157 0 0,0 -0.5020090483079451,-0.043315453031921726 l 0.781932629661548 -8.23415916161215" fill="#ff3805" stroke="none" /><path d="M 97.2962882734958 120.8252237178851 l -1.1443127293219049 8.814019763181062 a29.887991674626754,29.887991674626754 0 0,0 -0.5096207278823746,-0.07062878920984571 l 1.2958620483911105 -8.79301640847861" fill="#ff4206" stroke="none" /><path d="M 94.46302465271185 120.25689768951611 l -1.7215757057127907 6.298345350672486 a27.529393315373046,27.529393315373046 0 0,0 -0.456029423590832,-0.12887847026156038 l 1.8297362974082365 -6.267778087072404" fill="#ff1e03" stroke="none" /><path d="M 93.08242187328487 119.8279376855182 l -2.673303005216843 7.662520672841103 a29.11546499095515,29.11546499095515 0 0,0 -0.471782058075811,-0.1691642608243553 l 2.804804623922381 -7.61536887097679" fill="#ff3605" stroke="none" /><path d="M 92.40401165467489 119.57807347666478 l -1.9175861331601025 4.9424302021141555 a26.301391598519967,26.301391598519967 0 0,0 -0.42067062422440954,-0.16739352303114108 l 2.00237783342637 -4.908689834676948" fill="#ff0b01" stroke="none" /><path d="M 91.7346041902142 119.30500536409082 l -3.4803055379199224 8.128747687881182 a29.8424581203707,29.8424581203707 0 0,0 -0.470486709573661,-0.2062475471472192 l 3.6197129221513267 -8.06763558743951" fill="#ff4106" stroke="none" /><path d="M 90.42595943632237 118.69057910512821 l -4.559187839203515 8.900511795099296 a31.00026519487573,31.00026519487573 0 0,0 -0.47284128409571125,-0.24736821197967612 l 4.711720025825723 -8.820714164174904" fill="#ff5207" stroke="none" /><line stroke="#e1ed5e" stroke-width="0.3" x1="58.666819895761336" x2="56.23545636021788" y1="174.27360380694188" y2="178.64263932499728" /><path d="M 58.180547188652646 175.14741091055294 a86.0,86.0 0 0,1 -31.652253787137756,-30.449443065178592" fill="none" id="id32" stroke="none" /><text fill="#e1ed5e" style="font-size:6.75px; font-family:Arial;" text-anchor="middle"><textPath startOffset="22.20632615414155" xlink:href="#id32">August</textPath></text><path d="M 89.4739219176387 118.17145234162733 l -4.643629949367774 8.016423558408638 a30.26425095593132,30.26425095593132 0 0,0 -0.44853367889265844,-0.26500160353509083 l 4.7809314992888154 -7.935303382579798" fill="#ff4706" stroke="none" /><path d="M 88.54995079064634 117.60387380957326 l -5.828428811729486 8.96091566365928 a31.68964882232399,31.68964882232399 0 0,0 -0.4547091894386472,-0.3013564562256796 l 5.981812699908095 -8.859261186342284" fill="#ff5c08" stroke="none" /><path d="M 88.24862548938628 117.40417183066458 l -3.757251750147428 5.564613314941997 a27.714302797671227,27.714302797671227 0 0,0 -0.3930721088458546,-0.2703585806870237 l 3.8524807436161725 -5.4991139448898725" fill="#ff2103" stroke="none" /><path d="M 87.36589467227662 116.77436683061367 l -3.8983040321913833 5.175798377250194 a27.479634493499255,27.479634493499255 0 0,0 -0.37538655655639863,-0.28783040426349954 l 3.9868193172412685 -5.107928631159328" fill="#ff1d03" stroke="none" /><path d="M 85.70375840098266 115.38237550388516 l -5.393930859902541 5.803726060051908 a28.923239634236403,28.923239634236403 0 0,0 -0.3617666002495789,-0.3420729008686484 l 5.493033294542937 -5.710018522437328" fill="#ff3304" stroke="none" /><path d="M 84.67929136418377 114.36230785411682 l -5.508739763859475 5.164135566928328 a28.550795318344996,28.550795318344996 0 0,0 -0.33302951751463483,-0.3614377671336036 l 5.596815689369839 -5.06854654499338" fill="#ff2e04" stroke="none" /><path d="M 84.19399662182784 113.82643327865904 l -4.71115537355367 4.12112245450934 a27.259283923806677,27.259283923806677 0 0,0 -0.305897830494376,-0.35582828495111185 l 4.781395713618825 -4.039417070396698" fill="#ff1a02" stroke="none" /><path d="M 83.72743513129214 113.27417163493432 l -5.454764954853115 4.449666467649771 a28.039459665771265,28.039459665771265 0 0,0 -0.30186759933767043,-0.37662624443900516 l 5.5305504662456455 -4.355112389632506" fill="#ff2603" stroke="none" /><path d="M 82.6465618267979 111.8261652097733 l -5.655423153717749 3.8541047531621224 a27.843824551809732,27.843824551809732 0 0,0 -0.2665010604001056,-0.39838292595945135 l 5.7209273195285855 -3.7561849129968503" fill="#ff2303" stroke="none" /><path d="M 82.05923443525364 110.91462005526583 l -4.557333803791286 2.7725442793335167 a26.334444036639972,26.334444036639972 0 0,0 -0.2322686982590655,-0.3892956983527572 l 4.604383377748584 -2.693686487094648" fill="#ff0c01" stroke="none" /><line stroke="#e1ed5e" stroke-width="0.3" x1="26.63291911575756" x2="22.317208475507996" y1="142.92168965132927" y2="145.44649492493687" /><path d="M 25.769776987707644 143.4266507060508 a86.0,86.0 0 0,1 -11.730757126820373,-40.83630448921669" fill="none" id="id33" stroke="none" /><text fill="#e1ed5e" style="font-size:6.75px; font-family:Arial;" text-anchor="middle"><textPath startOffset="21.46611528233685" xlink:href="#id33">September</textPath></text><path d="M 81.87401531095188 110.60418214915194 l -5.027032314861285 2.9409473333976086 a26.82410723737794,26.82410723737794 0 0,0 -0.22972676864938066,-0.40054798486715615 l 5.076911079663042 -2.8539795026721455" fill="#ff1302" stroke="none" /><path d="M 81.69416730710424 110.29060199501025 l -5.008158264411428 2.815330189654803 a26.745235702577766,26.745235702577766 0 0,0 -0.22214285910995737,-0.40325381503977364 l 5.055877532972902 -2.7287058562172066" fill="#ff1202" stroke="none" /><path d="M 81.35079622478065 109.6543875284942 l -7.388720953864948 3.8250198929835255 a29.32009462180585,29.32009462180585 0 0,0 -0.22816804119466855,-0.45019719158476446 l 7.453467664845883 -3.6972684896960764" fill="#ff3905" stroke="none" /><path d="M 80.58989483394504 108.01547362559985 l -7.971924602836535 3.2920353008212997 a29.624910335485467,29.624910335485467 0 0,0 -0.19058323519920853,-0.47301196014707075 l 8.02741045229313 -3.1543239728314236" fill="#ff3e05" stroke="none" /><path d="M 80.32549172779594 107.34259656027581 l -8.482008223028283 3.1655156785101 a30.05344978482858,30.05344978482858 0 0,0 -0.17670818673924232,-0.48622503676007356 l 8.53524067077275 -3.0190428447439097" fill="#ff4406" stroke="none" /><path d="M 79.97269907076064 106.31721596034903 l -5.772018858036928 1.8206691846424128 a27.0523580509947,27.0523580509947 0 0,0 -0.1362578677320704,-0.4452985955758725 l 5.8025034982751285 -1.7210436165144924" fill="#ff1702" stroke="none" /><path d="M 79.76711848015287 105.62410040840567 l -5.537608284999431 1.539279760359673 a26.7475636315527,26.7475636315527 0 0,0 -0.1194876379736543,-0.44465795139234554 l 5.56328399931486 -1.4437308757917886" fill="#ff1202" stroke="none" /><path d="M 79.58551787078972 104.9243191809786 l -7.7746185068957745 1.8753697887598137 a28.9976061901271,28.9976061901271 0 0,0 -0.11286894854045808,-0.4862364762574643 l 7.805748021366788 -1.7412646551537752" fill="#ff3405" stroke="none" /><path d="M 79.4281124754447 104.21870165774334 l -6.765959732753097 1.387503480500738 a27.906763135770476,27.906763135770476 0 0,0 -0.09245120865655965,-0.47140672116098153 l 6.788840874385323 -1.2708330322718018" fill="#ff2403" stroke="none" /><path d="M 79.18660465613746 102.79330883721812 l -62.440186031587636 8.379926511654372 a84.0,84.0 0 0,0 -0.1799939630126075,-1.4347289828503655 l 62.5751815038471 -7.303879774516597" fill="#4dd2ff" stroke="none" /><line stroke="#e1ed5e" stroke-width="0.3" x1="15.007084014347285" x2="10.007500721073583" y1="101.09737516637583" y2="101.16192664675087" /><path d="M 14.007167355692545 101.11028546245083 a86.0,86.0 0 0,1 10.666146001902534,-42.60595125391555" fill="none" id="id34" stroke="none" /><text fill="#e1ed5e" style="font-size:6.75px; font-family:Arial;" text-anchor="middle"><textPath startOffset="22.20632615414155" xlink:href="#id34">October</textPath></text><line stroke="#e1ed5e" stroke-width="0.3" x1="26.266209847984243" x2="21.928928074336255" y1="57.711370442889674" y2="55.22380399835377" /><path d="M 25.398753493254645 57.213857153982495 a86.0,86.0 0 0,1 29.58750427330803,-30.492523968695096" fill="none" id="id35" stroke="none" /><text fill="#e1ed5e" style="font-size:6.75px; font-family:Arial;" text-anchor="middle"><textPath startOffset="21.46611528233685" xlink:href="#id35">November</textPath></text><line stroke="#e1ed5e" stroke-width="0.3" x1="56.762969772571076" x2="54.21961505331055" y1="26.818313649435495" y2="22.513508569990535" /><path d="M 56.25429882871897 25.957352633546506 a86.0,86.0 0 0,1 42.265352541879196,-11.944610805530505" fill="none" id="id36" stroke="none" /><text fill="#e1ed5e" style="font-size:6.75px; font-family:Arial;" text-anchor="middle"><textPath startOffset="22.20632615414155" xlink:href="#id36">December</textPath></text></svg>