<?xml version="1.0" encoding="utf-8" ?>
<svg baseProfile="full" height="200mm" version="1.1" viewBox="0,0,200,200" width="200mm" xmlns="http://www.w3.org/2000/svg" xmlns:ev="http://www.w3.org/2001/xml-events" xmlns:xlink="http://www.w3.org/1999/xlink"><defs /><rect fill="#1a1a1a" height="200" width="200" x="0" y="0" /><text alignment-baseline="middle" fill="#e1ed5e" style="dominant-baseline: central; font-size:9.0px; font-family:Arial;" text-anchor="middle" x="100.0" y="100.0">2023</text><line stroke="#e1ed5e" stroke-width="0.3" x1="100.0" x2="100.0" y1="15.0" y2="10.0" /><path d="M 100.0 14.0 a86.0,86.0 0 0,1 42.46469731375804,11.215312516191453" fill="none" id="id25" stroke="none" /><text fill="#e1ed5e" style="font-size:6.75px; font-family:Arial;" text-anchor="middle"><textPath startOffset="22.20632615414155" xlink:href="#id25">January</textPath></text><path d="M 103.59715602781102 79.31037775812273 l 2.8640788982829224 -16.473211064037464 a37.720335842796814,37.720335842796814 0 0,0 0.638739783777889,0.11672561276345883 l -3.1472138031637122 16.421469969923265" fill="#ff0000" stroke="none" /><line stroke="#e1ed5e" stroke-width="0.3" x1="143.23703022742887" x2="145.7803849466894" y1="26.81831364943548" y2="22.513508569990506" /><path d="M 143.74570117128098 25.957352633546492 a86.0,86.0 0 0,1 28.547481713284135,27.462654790039103" fill="none" id="id26" stroke="none" /><text fill="#e1ed5e" style="font-size:6.75px; font-family:Arial;" text-anchor="middle"><textPath startOffset="19.985693538727396" xlink:href="#id26">February</textPath></text><line stroke="#e1ed5e" stroke-width="0.3" x1="172.23445277983987" x2="176.4835382374775" y1="55.19839476539836" y2="52.563006222186495" /><path d="M 173.08426987136738 54.67131705675599 a86.0,86.0 0 0,1 12.851231095245387,41.99856678651699" fill="none" id="id27" stroke="none" /><text fill="#e1ed5e" style="font-size:6.75px; font-family:Arial;" text-anchor="middle"><textPath startOffset="22.20632615414155" xlink:href="#id27">March</textPath></text><line stroke="#e1ed5e" stroke-width="0.3" x1="184.98032266829074" x2="189.97916517819016" y1="98.17113171792111" y2="98.06355123074" /><path d="M 185.9800911702706 98.14961562048488 a86.0,86.0 0 0,1 -9.607161424134198,41.387399972396054" fill="none" id="id28" stroke="none" /><text fill="#e1ed5e" style="font-size:6.75px; font-family:Arial;" text-anchor="middle"><textPath startOffset="21.466115282336823" xlink:href="#id28">April</textPath></text><line stroke="#e1ed5e" stroke-width="0.3" x1="174.80103733775053" x2="179.2010983576182" y1="140.37084112569926" y2="142.7455964860345" /><path d="M 175.68104954172406 140.8457921977663 a86.0,86.0 0 0,1 -30.038265399797805,32.042727171017184" fill="none" id="id29" stroke="none" /><text fill="#e1ed5e" style="font-size:6.75px; font-family:Arial;" text-anchor="middle"><textPath startOffset="22.206326154141568" xlink:href="#id29">May</textPath></text><path d="M 116.498646956653 112.99209946851258 l 17.208869646138787 13.551374653370868 a42.9039939164943,42.9039939164943 0 0,0 -0.461896405991756,0.5762867862938628 l -16.973055328092176 -13.84558927324298" fill="#ff6209" stroke="none" /><path d="M 112.04921762599082 117.19931262002967 l 12.475317306460667 17.807536476480518 a42.7426285728764,42.7426285728764 0 0,0 -0.606218935883451,0.41696291190002055 l -12.166941485954332 -18.019640177745632" fill="#ff5f08" stroke="none" /><path d="M 111.1453310114006 117.79835938074945 l 13.094819051575204 20.911563350376564 a45.67321964702437,45.67321964702437 0 0,0 -0.6699191265401829,0.4115190435379868 l -12.732920725102712 -21.13387086074293" fill="#ff940d" stroke="none" /><line stroke="#e1ed5e" stroke-width="0.3" x1="143.8653032363475" x2="146.44561519142675" y1="172.8068346515853" y2="177.08958963109032" /><path d="M 144.38136562736335 173.6633856474863 a86.0,86.0 0 0,1 -40.68145358897372,12.25698825130547" fill="none" id="id30" stroke="none" /><text fill="#e1ed5e" style="font-size:6.75px; font-family:Arial;" text-anchor="middle"><textPath startOffset="21.466115282336833" xlink:href="#id30">June</textPath></text><path d="M 110.21172684928248 118.3499491758327 l 11.202811352522724 20.130877174772614 a44.038124880857666,44.038124880857666 0 0,0 -0.6655569640601859,0.36291472331443153 l -10.854631576593889 -20.320732549846817" fill="#ff770b" stroke="none" /><path d="M 109.2508944713604 118.85261126421891 l 11.127878369225101 22.677760052283933 a46.26084871870367,46.26084871870367 0 0,0 -0.7178964078563425,0.34463390226390456 l -10.735869293368525 -22.865948231047398" fill="#ff9f0e" stroke="none" /><path d="M 108.2653958097858 119.30500536409082 l 13.203250242463549 30.838065426028 a54.54567179510789,54.54567179510789 0 0,0 -0.8663113478358493,0.36211821365531566 l -12.670467435130238 -31.060768682703287" fill="#d6ff1c" stroke="none" /><path d="M 107.2578585660854 119.70592522655815 l 8.649461485418415 23.484288062337008 a46.02648536615881,46.02648536615881 0 0,0 -0.7458053649078857,0.26741926937206323 l -8.243936559880794 -23.62969487274903" fill="#ff9b0e" stroke="none" /><path d="M 106.91757812671514 119.82793768551818 l 9.980698918176339 28.607797784495986 a51.29885220555227,51.29885220555227 0 0,0 -0.8362452274066873,0.2836997843194035 l -9.486783957832426 -28.77536055571351" fill="#fff417" stroke="none" /><path d="M 105.88484417918355 120.15858648285463 l 10.12669376083227 34.689080245357246 a57.13699233188221,57.13699233188221 0 0,0 -0.9464847038337125,0.2674860314835774 l -9.528077888893952 -34.85825507017935" fill="#aeff20" stroke="none" /><path d="M 103.41894727170886 120.7198165907248 l 10.256841815126581 62.15944977217439 a84.0,84.0 0 0,0 -1.4286565455659315,0.22312677061157693 l -9.185349405952133 -62.326794850133076" fill="#4dd2ff" stroke="none" /><path d="M 103.06178313531738 120.77559828337769 l 2.488003464154448 16.882240908145462 a38.06458963228547,38.06458963228547 0 0,0 -0.6490400588346488,0.08995103808799722 l -2.197034814132969 -16.922566511726064" fill="#ff0701" stroke="none" /><line stroke="#e1ed5e" stroke-width="0.3" x1="102.19456741930631" x2="102.32365962044197" y1="184.97166512339345" y2="189.96999836594603" /><path d="M 102.22038585953345 185.97133177190398 a86.0,86.0 0 0,1 -42.740103519485714,-10.115201625700543" fill="none" id="id31" stroke="none" /><text fill="#e1ed5e" style="font-size:6.75px; font-family:Arial;" text-anchor="middle"><textPath startOffset="22.20632615414155" xlink:href="#id31">July</textPath></text><path d="M 98.37488393609728 120.93702456842531 l -2.34437800556183 30.203565757788382 a51.29441355626494,51.29441355626494 0 0,0 -0.8797130719240054,-0.07590534548516176 l 2.863935395227377 -30.15873616002456" fill="#fff417" stroke="none" /><path d="M 97.2962882734958 120.8252237178851 l -4.1912021629443545 32.28255506479369 a53.55348732597026,53.55348732597026 0 0,0 -0.9131415549365886,-0.12655309894940717 l 4.746272309067774 -32.20562740035168" fill="#e5ff1a" stroke="none" /><path d="M 94.46302465271185 120.25689768951611 l -6.305506909576752 23.068552835510026 a44.91479766402881,44.91479766402881 0 0,0 -0.7440218189620628,-0.21026799787175401 l 6.701659896643429 -22.95659604429975" fill="#ff870c" stroke="none" /><path d="M 93.08242187328487 119.8279376855182 l -9.791338548081992 28.065031869957643 a50.724002496717944,50.724002496717944 0 0,0 -0.8219231360096202,-0.2947123939485655 l 10.272981244721338 -27.89233193496912" fill="#ffeb16" stroke="none" /><path d="M 92.40401165467489 119.57807347666478 l -7.023421957121176 18.102327818705177 a40.41707311732742,40.41707311732742 0 0,0 -0.6464401441993084,-0.25723187438102596 l 7.3339831773623425 -17.978749099918083" fill="#ff3404" stroke="none" /><path d="M 91.7346041902142 119.30500536409082 l -12.747095898234868 29.772652194182296 a53.38671444457656,53.38671444457656 0 0,0 -0.8416779714547675,-0.36896688805024475 l 13.257694544347379 -29.5488207528376" fill="#e8ff1a" stroke="none" /><path d="M 90.42595943632237 118.69057910512821 l -16.698650153321854 32.599343982686776 a57.627341495726554,57.627341495726554 0 0,0 -0.8789791306806477,-0.45984033805286345 l 17.257320186528997 -32.30707422568919" fill="#a6ff21" stroke="none" /><line stroke="#e1ed5e" stroke-width="0.3" x1="58.666819895761336" x2="56.23545636021788" y1="174.27360380694188" y2="178.64263932499728" /><path d="M 58.180547188652646 175.14741091055294 a86.0,86.0 0 0,1 -31.652253787137756,-30.449443065178592" fill="none" id="id32" stroke="none" /><text fill="#e1ed5e" style="font-size:6.75px; font-family:Arial;" text-anchor="middle"><textPath startOffset="22.20632615414155" xlink:href="#id32">August</textPath></text><path d="M 89.4739219176387 118.17145234162733 l -17.00793095191417 29.361249679526058 a54.931588498161254,54.931588498161254 0 0,0 -0.8141178683845507,-0.48099518662924473 l 17.5108166913271 -29.064135920603064" fill="#d0ff1d" stroke="none" /><path d="M 88.54995079064634 117.60387380957326 l -21.347419124458575 32.82058142772406 a60.152303489439355,60.152303489439355 0 0,0 -0.8631148081162172,-0.5720254306074586 l 21.909208631314755 -32.44825797602528" fill="#81ff25" stroke="none" /><path d="M 88.24862548938628 117.40417183066458 l -13.761449347221662 20.38115871991936 a45.59205397893174,45.59205397893174 0 0,0 -0.6466323520726848,-0.4447596280641741 l 14.110238583917237 -20.141258302490083" fill="#ff930d" stroke="none" /><path d="M 87.36589467227662 116.77436683061367 l -14.278072656953764 18.957070735855215 a44.73254916104608,44.73254916104608 0 0,0 -0.6110706312169953,-0.46854290262873177 l 14.602272016664246 -18.708488491399116" fill="#ff840c" stroke="none" /><path d="M 85.70375840098266 115.38237550388516 l -19.756010841714826 21.256941911710012 a50.019950789340896,50.019950789340896 0 0,0 -0.6256404113283154,-0.5915820594164437 l 20.118987087433958 -20.913725215547636" fill="#ffdf14" stroke="none" /><path d="M 84.67929136418377 114.36230785411682 l -20.176514183379748 18.914354095032753 a48.65582245069574,48.65582245069574 0 0,0 -0.5675437372009512,-0.6159566354821929 l 20.499104328576426 -18.564246204749217" fill="#ffc812" stroke="none" /><path d="M 84.19399662182784 113.82643327865904 l -17.255252070214897 15.094175658898225 a43.925485007483076,43.925485007483076 0 0,0 -0.4929223601309449,-0.5733800652851414 l 17.512516939916623 -14.794918494451554" fill="#ff750a" stroke="none" /><path d="M 83.72743513129214 113.27417163493432 l -19.978824049856534 16.297513123572394 a46.78298556079455,46.78298556079455 0 0,0 -0.5036569074234154,-0.6283894328004913 l 20.25639886933481 -15.951195857193644" fill="#ffa80f" stroke="none" /><line stroke="#e1ed5e" stroke-width="0.3" x1="26.63291911575756" x2="22.317208475507996" y1="142.92168965132927" y2="145.44649492493687" /><path d="M 25.769776987707644 143.4266507060508 a86.0,86.0 0 0,1 -11.730757126820373,-40.83630448921669" fill="none" id="id33" stroke="none" /><text fill="#e1ed5e" style="font-size:6.75px; font-family:Arial;" text-anchor="middle"><textPath startOffset="21.46611528233685" xlink:href="#id33">September</textPath></text><line stroke="#e1ed5e" stroke-width="0.3" x1="15.007084014347285" x2="10.007500721073583" y1="101.09737516637583" y2="101.16192664675087" /><path d="M 14.007167355692545 101.11028546245083 a86.0,86.0 0 0,1 10.666146001902534,-42.60595125391555" fill="none" id="id34" stroke="none" /><text fill="#e1ed5e" style="font-size:6.75px; font-family:Arial;" text-anchor="middle"><textPath startOffset="22.20632615414155" xlink:href="#id34">October</textPath></text><line stroke="#e1ed5e" stroke-width="0.3" x1="26.266209847984243" x2="21.928928074336255" y1="57.711370442889674" y2="55.22380399835377" /><path d="M 25.398753493254645 57.213857153982495 a86.0,86.0 0 0,1 29.58750427330803,-30.492523968695096" fill="none" id="id35" stroke="none" /><text fill="#e1ed5e" style="font-size:6.75px; font-family:Arial;" text-anchor="middle"><textPath startOffset="21.46611528233685" xlink:href="#id35">November</textPath></text><line stroke="#e1ed5e" stroke-width="0.3" x1="56.762969772571076" x2="54.21961505331055" y1="26.818313649435495" y2="22.513508569990535" /><path d="M 56.25429882871897 25.957352633546506 a86.0,86.0 0 0,1 42.265352541879196,-11.944610805530505" fill="none" id="id36" stroke="none" /><text fill="#e1ed5e" style="font-size:6.75px; font-family:Arial;" text-anchor="middle"><textPath startOffset="22.20632615414155" xlink:href="#id36">December</textPath></text></svg>